<svg xmlns="http://www.w3.org/2000/svg" width="261.025" height="261.013" viewBox="0 0 261.025 261.013"><defs><style>.a{opacity:0.33;}.b{opacity:0.001;}.c{fill:#ff007c;}.d{opacity:0.002;}.e{opacity:0.003;}.f{opacity:0.005;}.g{opacity:0.008;}.h{opacity:0.012;}.i{opacity:0.016;}.j{opacity:0.021;}.k{opacity:0.027;}.l{opacity:0.034;}.m{opacity:0.043;}.n{opacity:0.053;}.o{opacity:0.067;}.p{opacity:0.087;}.q{opacity:0.153;}.r{fill:#fff;}.s{fill:#0051d2;}.t{fill:#00998f;}</style></defs><g class="a"><g transform="translate(11.449 11.449)"><g class="b"><path class="c" d="M244.088,254.548a119.852,119.852,0,0,1-23.974-2.418,119.032,119.032,0,0,1-92.671-92.671,120.039,120.039,0,0,1,0-47.947A118.52,118.52,0,0,1,145.371,68.9a119.342,119.342,0,0,1,52.366-43.115,118.608,118.608,0,0,1,22.376-6.947,120.621,120.621,0,0,1,47.948,0,118.56,118.56,0,0,1,42.611,17.928,119.238,119.238,0,0,1,50.061,122.691,118.966,118.966,0,0,1-32.455,60.216,20.271,20.271,0,0,1-28.668-28.667,78.7,78.7,0,0,0,16.836-24.965,77.972,77.972,0,0,0,4.567-14.711,79.466,79.466,0,0,0,0-31.693,77.977,77.977,0,0,0-11.8-28.041,78.8,78.8,0,0,0-34.564-28.47,77.953,77.953,0,0,0-14.713-4.568,79.848,79.848,0,0,0-31.691,0,77.953,77.953,0,0,0-28.041,11.8,78.8,78.8,0,0,0-28.471,34.565,78.027,78.027,0,0,0-4.567,14.71,79.512,79.512,0,0,0,0,31.693,77.979,77.979,0,0,0,11.8,28.041,78.81,78.81,0,0,0,34.565,28.471,78.033,78.033,0,0,0,14.712,4.567,79.871,79.871,0,0,0,31.692,0,20.271,20.271,0,1,1,8.127,39.72A119.836,119.836,0,0,1,244.088,254.548Z" transform="translate(-125.025 -16.433)"/></g><g class="d" transform="translate(1.192 1.192)"><path class="c" d="M244.146,253.413a118.589,118.589,0,0,1-23.735-2.394,117.343,117.343,0,0,1-42.181-17.747,118.143,118.143,0,0,1-42.684-51.842,117.4,117.4,0,0,1-6.876-22.152,118.83,118.83,0,0,1,0-47.469A117.787,117.787,0,0,1,160.8,52.2a117.991,117.991,0,0,1,37.461-25.252,117.392,117.392,0,0,1,22.15-6.877,119.387,119.387,0,0,1,47.471,0,117.344,117.344,0,0,1,42.181,17.748,118.157,118.157,0,0,1,42.684,51.842,117.42,117.42,0,0,1,6.876,22.152,118.829,118.829,0,0,1,0,47.469,117.323,117.323,0,0,1-17.747,42.18,118.589,118.589,0,0,1-14.383,17.433,19.079,19.079,0,1,1-26.982-26.983A79.877,79.877,0,0,0,317.6,166.564a79.2,79.2,0,0,0,4.636-14.936,80.674,80.674,0,0,0,0-32.17,79.15,79.15,0,0,0-11.983-28.47A80.25,80.25,0,0,0,288.7,69.433a79.177,79.177,0,0,0-28.47-11.983,81.074,81.074,0,0,0-32.17,0,79.175,79.175,0,0,0-28.469,11.983,80,80,0,0,0-28.9,35.089,79.13,79.13,0,0,0-4.636,14.936,80.673,80.673,0,0,0,0,32.17A79.156,79.156,0,0,0,178.036,180.1,79.986,79.986,0,0,0,213.124,209a79.16,79.16,0,0,0,14.938,4.637,81.069,81.069,0,0,0,32.169,0,19.079,19.079,0,1,1,7.65,37.384A118.589,118.589,0,0,1,244.146,253.413Z" transform="translate(-126.275 -17.683)"/></g><g class="e" transform="translate(2.385 2.385)"><path class="c" d="M244.2,252.278a117.482,117.482,0,0,1-23.5-2.37,116.185,116.185,0,0,1-41.753-17.567A116.979,116.979,0,0,1,136.7,181.023a116.26,116.26,0,0,1-6.807-21.927,117.668,117.668,0,0,1,0-46.991,116.158,116.158,0,0,1,17.567-41.753A116.973,116.973,0,0,1,198.781,28.1a116.272,116.272,0,0,1,21.925-6.806,118.2,118.2,0,0,1,46.992,0,116.121,116.121,0,0,1,41.753,17.567,116.953,116.953,0,0,1,42.254,51.319,116.241,116.241,0,0,1,6.806,21.925,116.621,116.621,0,0,1-31.8,106,17.887,17.887,0,1,1-25.3-25.3,81.053,81.053,0,0,0,17.346-25.722,80.459,80.459,0,0,0,4.707-15.162,81.861,81.861,0,0,0,0-32.648,80.348,80.348,0,0,0-12.162-28.9,81.188,81.188,0,0,0-35.611-29.33,80.3,80.3,0,0,0-15.163-4.708,82.277,82.277,0,0,0-32.647,0,80.392,80.392,0,0,0-28.9,12.163,81.2,81.2,0,0,0-29.331,35.612,80.271,80.271,0,0,0-4.707,15.161,81.889,81.889,0,0,0,0,32.649,80.378,80.378,0,0,0,12.163,28.9,81.2,81.2,0,0,0,35.611,29.331,80.342,80.342,0,0,0,15.163,4.707,82.278,82.278,0,0,0,32.647,0,17.887,17.887,0,1,1,7.171,35.048A117.465,117.465,0,0,1,244.2,252.278Z" transform="translate(-127.525 -18.933)"/></g><g class="f" transform="translate(3.577 3.577)"><path class="c" d="M244.261,251.143A116.225,116.225,0,0,1,221,248.8a114.962,114.962,0,0,1-41.325-17.387,115.787,115.787,0,0,1-41.823-50.8,115.042,115.042,0,0,1-6.736-21.7,116.458,116.458,0,0,1,0-46.513A115.457,115.457,0,0,1,221,22.517a117.011,117.011,0,0,1,46.514,0,115.471,115.471,0,0,1,58.4,194.8,16.694,16.694,0,0,1-23.61-23.61,82.258,82.258,0,0,0,17.6-26.1,81.528,81.528,0,0,0,4.776-15.387,83.051,83.051,0,0,0,0-33.127,81.547,81.547,0,0,0-12.343-29.327,82.381,82.381,0,0,0-36.134-29.762,81.6,81.6,0,0,0-15.389-4.777,83.494,83.494,0,0,0-33.124,0,81.594,81.594,0,0,0-29.327,12.343,82.392,82.392,0,0,0-29.764,36.136,81.505,81.505,0,0,0-4.776,15.387,83.044,83.044,0,0,0,0,33.126,81.512,81.512,0,0,0,12.342,29.326,82.384,82.384,0,0,0,36.135,29.763,81.578,81.578,0,0,0,15.388,4.777,83.464,83.464,0,0,0,33.125,0,16.695,16.695,0,0,1,6.694,32.711A116.225,116.225,0,0,1,244.261,251.143Z" transform="translate(-128.775 -20.183)"/></g><g class="g" transform="translate(4.77 4.769)"><path class="c" d="M244.318,250.008a115.051,115.051,0,0,1-23.018-2.322,113.746,113.746,0,0,1-40.9-17.207,114.595,114.595,0,0,1-41.391-50.271,113.858,113.858,0,0,1-6.667-21.476,115.3,115.3,0,0,1,0-46.035,113.772,113.772,0,0,1,17.208-40.9A114.288,114.288,0,0,1,267.335,23.743a113.786,113.786,0,0,1,40.9,17.207,114.588,114.588,0,0,1,41.391,50.272,113.776,113.776,0,0,1,6.666,21.475,115.25,115.25,0,0,1,0,46.035,113.747,113.747,0,0,1-17.207,40.9,114.984,114.984,0,0,1-13.947,16.905,15.5,15.5,0,1,1-21.923-21.923,83.432,83.432,0,0,0,17.855-26.479,82.772,82.772,0,0,0,4.847-15.613,84.253,84.253,0,0,0,0-33.6,82.77,82.77,0,0,0-12.523-29.755,83.581,83.581,0,0,0-36.659-30.193,82.768,82.768,0,0,0-15.614-4.847,84.649,84.649,0,0,0-33.6,0,82.727,82.727,0,0,0-29.755,12.524A83.569,83.569,0,0,0,167.567,103.3a82.761,82.761,0,0,0-4.846,15.613,84.258,84.258,0,0,0,0,33.605,82.733,82.733,0,0,0,12.523,29.754A83.567,83.567,0,0,0,211.9,212.465a82.768,82.768,0,0,0,15.614,4.848,84.684,84.684,0,0,0,33.6,0,15.5,15.5,0,1,1,6.215,30.373A115.035,115.035,0,0,1,244.318,250.008Z" transform="translate(-130.025 -21.432)"/></g><g class="h" transform="translate(5.962 5.961)"><path class="c" d="M244.376,248.873a113.861,113.861,0,0,1-22.779-2.3,112.548,112.548,0,0,1-40.467-17.027A113.4,113.4,0,0,1,140.169,179.8a112.629,112.629,0,0,1-6.6-21.25,114.088,114.088,0,0,1,0-45.557A112.555,112.555,0,0,1,150.6,72.527a113.356,113.356,0,0,1,49.748-40.961,112.555,112.555,0,0,1,21.249-6.6,114.565,114.565,0,0,1,45.557,0A112.564,112.564,0,0,1,307.622,42a113.4,113.4,0,0,1,40.961,49.748,112.6,112.6,0,0,1,6.6,21.249,114.042,114.042,0,0,1,0,45.557,112.529,112.529,0,0,1-17.026,40.466,113.77,113.77,0,0,1-13.8,16.73,14.309,14.309,0,1,1-20.236-20.236,84.672,84.672,0,0,0,18.111-26.858,84.041,84.041,0,0,0,4.916-15.839,85.424,85.424,0,0,0,0-34.083,83.925,83.925,0,0,0-12.7-30.183,84.795,84.795,0,0,0-37.182-30.624,84.017,84.017,0,0,0-15.84-4.917,85.874,85.874,0,0,0-34.082,0,83.948,83.948,0,0,0-30.183,12.7,84.752,84.752,0,0,0-30.624,37.183,83.944,83.944,0,0,0-4.917,15.838,85.468,85.468,0,0,0,0,34.083A83.95,83.95,0,0,0,174.313,183,84.767,84.767,0,0,0,211.5,213.621a84,84,0,0,0,15.84,4.917,85.869,85.869,0,0,0,34.081,0,14.309,14.309,0,1,1,5.737,28.038A113.845,113.845,0,0,1,244.376,248.873Z" transform="translate(-131.275 -22.682)"/></g><g class="i" transform="translate(7.155 7.154)"><path class="c" d="M244.433,247.738a112.667,112.667,0,0,1-22.539-2.273,111.372,111.372,0,0,1-40.039-16.847,112.187,112.187,0,0,1-40.531-49.224,111.415,111.415,0,0,1-6.526-21.024,112.873,112.873,0,0,1,0-45.079,111.366,111.366,0,0,1,16.846-40.039A112.2,112.2,0,0,1,200.87,32.721a111.461,111.461,0,0,1,21.023-6.526,113.414,113.414,0,0,1,45.079,0,111.371,111.371,0,0,1,40.039,16.847,112.208,112.208,0,0,1,40.531,49.224,111.485,111.485,0,0,1,6.526,21.024,112.875,112.875,0,0,1,0,45.079,111.366,111.366,0,0,1-16.846,40.039,112.608,112.608,0,0,1-13.658,16.553,13.117,13.117,0,0,1-18.55-18.55,85.847,85.847,0,0,0,18.366-27.237,85.207,85.207,0,0,0,4.986-16.064,86.629,86.629,0,0,0,0-34.561,85.14,85.14,0,0,0-12.883-30.613A86.181,86.181,0,0,0,292.325,64.78,85.167,85.167,0,0,0,261.712,51.9a87.054,87.054,0,0,0-34.559,0A85.141,85.141,0,0,0,196.541,64.78a85.986,85.986,0,0,0-31.055,37.706A85.154,85.154,0,0,0,160.5,118.55a86.631,86.631,0,0,0,0,34.561,85.127,85.127,0,0,0,12.883,30.612,85.964,85.964,0,0,0,37.705,31.054,85.232,85.232,0,0,0,16.066,4.987,87.055,87.055,0,0,0,34.559,0,13.117,13.117,0,1,1,5.259,25.7A112.674,112.674,0,0,1,244.433,247.738Z" transform="translate(-132.525 -23.932)"/></g><g class="j" transform="translate(8.347 8.346)"><path class="c" d="M244.491,246.6a111.493,111.493,0,0,1-22.3-2.249,110.214,110.214,0,0,1-39.61-16.667,111.021,111.021,0,0,1-40.1-48.7,110.277,110.277,0,0,1-6.456-20.8,111.715,111.715,0,0,1,0-44.6A110.174,110.174,0,0,1,152.69,73.977a111,111,0,0,1,48.7-40.1,110.246,110.246,0,0,1,20.8-6.456,112.193,112.193,0,0,1,44.6,0A110.15,110.15,0,0,1,306.4,44.088a110.987,110.987,0,0,1,40.1,48.7,110.247,110.247,0,0,1,6.456,20.8,111.667,111.667,0,0,1,0,44.6A110.193,110.193,0,0,1,336.292,197.8a111.452,111.452,0,0,1-13.513,16.378,11.924,11.924,0,0,1-16.864-16.863A87.031,87.031,0,0,0,324.536,169.7a86.427,86.427,0,0,0,5.057-16.29,87.842,87.842,0,0,0,0-35.039,86.332,86.332,0,0,0-13.064-31.04A87.157,87.157,0,0,0,278.3,55.842a86.346,86.346,0,0,0-16.291-5.057,88.28,88.28,0,0,0-35.038,0A86.364,86.364,0,0,0,195.93,63.849a87.17,87.17,0,0,0-31.485,38.23,86.343,86.343,0,0,0-5.056,16.289,87.839,87.839,0,0,0,0,35.039,86.329,86.329,0,0,0,13.064,31.04,87.135,87.135,0,0,0,38.229,31.486,86.255,86.255,0,0,0,16.291,5.057,88.275,88.275,0,0,0,35.037,0,11.925,11.925,0,0,1,4.781,23.365A111.483,111.483,0,0,1,244.491,246.6Z" transform="translate(-133.775 -25.182)"/></g><g class="k" transform="translate(9.54 9.539)"><path class="c" d="M244.548,245.468a110.305,110.305,0,0,1-22.061-2.225,108.993,108.993,0,0,1-39.182-16.486,109.808,109.808,0,0,1-39.669-48.177,109.05,109.05,0,0,1-6.387-20.574,110.5,110.5,0,0,1,0-44.123A109,109,0,0,1,153.736,74.7a109.818,109.818,0,0,1,48.178-39.67,109.063,109.063,0,0,1,20.572-6.387,111.043,111.043,0,0,1,44.124,0,109.015,109.015,0,0,1,39.182,16.487A109.808,109.808,0,0,1,345.46,93.31a109.009,109.009,0,0,1,6.386,20.573,110.454,110.454,0,0,1,0,44.123,108.973,108.973,0,0,1-16.485,39.181,110.23,110.23,0,0,1-13.368,16.2,10.732,10.732,0,1,1-15.178-15.178,88.189,88.189,0,0,0,18.876-27.993,87.539,87.539,0,0,0,5.127-16.515,89.006,89.006,0,0,0,0-35.518,87.547,87.547,0,0,0-13.243-31.468A88.333,88.333,0,0,0,278.821,54.8a87.536,87.536,0,0,0-16.516-5.128,89.466,89.466,0,0,0-35.516,0,87.525,87.525,0,0,0-31.468,13.244A88.35,88.35,0,0,0,163.4,101.672a87.585,87.585,0,0,0-5.127,16.515,89.05,89.05,0,0,0,0,35.517,87.507,87.507,0,0,0,13.244,31.468,88.34,88.34,0,0,0,38.753,31.916,87.509,87.509,0,0,0,16.516,5.128,89.465,89.465,0,0,0,35.516,0,10.732,10.732,0,1,1,4.3,21.028A110.305,110.305,0,0,1,244.548,245.468Z" transform="translate(-135.025 -26.432)"/></g><g class="l" transform="translate(10.732 10.73)"><path class="c" d="M244.606,244.333a109.063,109.063,0,0,1-21.823-2.2,107.776,107.776,0,0,1-38.753-16.306,108.618,108.618,0,0,1-39.238-47.654,107.776,107.776,0,0,1-6.316-20.347,109.292,109.292,0,0,1,0-43.645,107.79,107.79,0,0,1,16.306-38.754,108.595,108.595,0,0,1,47.653-39.237,107.866,107.866,0,0,1,20.348-6.317,109.782,109.782,0,0,1,43.645,0,107.814,107.814,0,0,1,38.754,16.306A108.617,108.617,0,0,1,344.42,93.833a107.842,107.842,0,0,1,6.316,20.347,109.29,109.29,0,0,1,0,43.645,107.776,107.776,0,0,1-16.306,38.753A109.069,109.069,0,0,1,321.208,212.6a9.54,9.54,0,1,1-13.492-13.492,89.377,89.377,0,0,0,19.132-28.373,88.739,88.739,0,0,0,5.2-16.74,90.214,90.214,0,0,0,0-35.995,88.7,88.7,0,0,0-13.424-31.9A89.54,89.54,0,0,0,279.344,53.76a88.784,88.784,0,0,0-16.741-5.2,90.651,90.651,0,0,0-35.994,0,88.719,88.719,0,0,0-31.9,13.423,89.532,89.532,0,0,0-32.347,39.277,88.742,88.742,0,0,0-5.2,16.74,90.215,90.215,0,0,0,0,36,88.724,88.724,0,0,0,13.423,31.9,89.539,89.539,0,0,0,39.277,32.347,88.739,88.739,0,0,0,16.741,5.2,90.686,90.686,0,0,0,35.994,0,9.539,9.539,0,1,1,3.825,18.691A109.054,109.054,0,0,1,244.606,244.333Z" transform="translate(-136.275 -27.681)"/></g><g class="m" transform="translate(11.925 11.923)"><path class="c" d="M244.663,243.2a107.93,107.93,0,0,1-21.583-2.176A106.635,106.635,0,0,1,184.755,224.9a107.446,107.446,0,0,1-38.807-47.13,106.714,106.714,0,0,1-6.247-20.123,108.129,108.129,0,0,1,0-43.167,106.6,106.6,0,0,1,16.127-38.324,107.427,107.427,0,0,1,47.13-38.808A106.691,106.691,0,0,1,223.079,31.1a108.6,108.6,0,0,1,43.167,0,106.593,106.593,0,0,1,38.325,16.126,107.432,107.432,0,0,1,38.807,47.13,106.608,106.608,0,0,1,6.247,20.122,108.082,108.082,0,0,1,0,43.167A106.6,106.6,0,0,1,333.5,195.968a107.78,107.78,0,0,1-13.078,15.85,8.347,8.347,0,0,1-11.8-11.8A90.6,90.6,0,0,0,328,171.262,89.906,89.906,0,0,0,333.27,154.3a91.427,91.427,0,0,0,0-36.474,89.919,89.919,0,0,0-13.6-32.326,90.744,90.744,0,0,0-39.8-32.777A89.968,89.968,0,0,0,262.9,47.453a91.842,91.842,0,0,0-36.473,0,89.92,89.92,0,0,0-32.326,13.6,90.709,90.709,0,0,0-32.777,39.8,89.927,89.927,0,0,0-5.267,16.965,91.425,91.425,0,0,0,0,36.474,89.926,89.926,0,0,0,13.6,32.325,90.739,90.739,0,0,0,39.8,32.778,89.92,89.92,0,0,0,16.966,5.267,91.842,91.842,0,0,0,36.473,0,8.347,8.347,0,1,1,3.346,16.356A107.928,107.928,0,0,1,244.663,243.2Z" transform="translate(-137.525 -28.932)"/></g><g class="n" transform="translate(13.117 13.115)"><path class="c" d="M244.721,242.064a106.674,106.674,0,0,1-21.344-2.152,105.434,105.434,0,0,1-37.9-15.945A106.248,106.248,0,0,1,147.1,177.359a105.462,105.462,0,0,1-6.176-19.9,106.916,106.916,0,0,1,0-42.688,105.4,105.4,0,0,1,15.945-37.9A106.235,106.235,0,0,1,203.479,38.5a105.465,105.465,0,0,1,19.9-6.177,107.411,107.411,0,0,1,42.689,0,105.4,105.4,0,0,1,37.9,15.946,106.214,106.214,0,0,1,38.377,46.607,105.357,105.357,0,0,1,6.176,19.9,106.867,106.867,0,0,1,0,42.688,105.414,105.414,0,0,1-15.944,37.9,106.754,106.754,0,0,1-12.933,15.676,7.155,7.155,0,0,1-10.119-10.119,91.781,91.781,0,0,0,19.641-29.129,91.117,91.117,0,0,0,5.336-17.191,92.586,92.586,0,0,0,0-36.952,91.1,91.1,0,0,0-13.784-32.754,91.922,91.922,0,0,0-40.324-33.208A91.189,91.189,0,0,0,263.2,46.342a93.094,93.094,0,0,0-36.95,0A91.136,91.136,0,0,0,193.49,60.127a91.943,91.943,0,0,0-33.208,40.324,91.215,91.215,0,0,0-5.336,17.191,92.635,92.635,0,0,0,0,36.952,91.064,91.064,0,0,0,13.785,32.753,91.9,91.9,0,0,0,40.324,33.208,91.109,91.109,0,0,0,17.191,5.337,93.028,93.028,0,0,0,36.951,0,7.154,7.154,0,0,1,2.869,14.018A106.683,106.683,0,0,1,244.721,242.064Z" transform="translate(-138.775 -30.181)"/></g><g class="o" transform="translate(14.309 14.308)"><path class="c" d="M244.779,240.929a105.569,105.569,0,0,1-21.105-2.127,104.243,104.243,0,0,1-37.468-15.766,105.048,105.048,0,0,1-37.946-46.083,104.22,104.22,0,0,1-6.106-19.672,105.711,105.711,0,0,1,0-42.211A104.224,104.224,0,0,1,157.918,77.6,105.051,105.051,0,0,1,204,39.656a104.279,104.279,0,0,1,19.672-6.106,106.22,106.22,0,0,1,42.21,0,104.192,104.192,0,0,1,37.469,15.766A105.056,105.056,0,0,1,341.3,95.4,104.283,104.283,0,0,1,347.4,115.07a105.713,105.713,0,0,1,0,42.211,104.2,104.2,0,0,1-15.765,37.467,105.477,105.477,0,0,1-12.788,15.5,5.962,5.962,0,1,1-8.432-8.432,92.972,92.972,0,0,0,19.9-29.509,92.319,92.319,0,0,0,5.407-17.416,93.795,93.795,0,0,0,0-37.43,92.32,92.32,0,0,0-13.964-33.183A93.107,93.107,0,0,0,280.91,50.639a92.3,92.3,0,0,0-17.417-5.407,94.249,94.249,0,0,0-37.429,0A92.32,92.32,0,0,0,192.881,59.2a93.122,93.122,0,0,0-33.64,40.848,92.324,92.324,0,0,0-5.406,17.416,93.8,93.8,0,0,0,0,37.43A92.276,92.276,0,0,0,167.8,188.073a93.113,93.113,0,0,0,40.847,33.639,92.218,92.218,0,0,0,17.418,5.407,94.243,94.243,0,0,0,37.428,0,5.963,5.963,0,0,1,2.391,11.683A105.567,105.567,0,0,1,244.779,240.929Z" transform="translate(-140.025 -31.432)"/></g><g class="p" transform="translate(15.502 15.5)"><path class="c" d="M244.836,239.794a104.314,104.314,0,0,1-20.866-2.1A103.02,103.02,0,0,1,186.931,222.1a103.852,103.852,0,0,1-37.516-45.559,103.116,103.116,0,0,1-6.037-19.447,104.545,104.545,0,0,1,0-41.732,103.025,103.025,0,0,1,15.586-37.039,103.831,103.831,0,0,1,45.559-37.515,103.054,103.054,0,0,1,19.447-6.038,105.034,105.034,0,0,1,41.732,0,103.066,103.066,0,0,1,37.04,15.586,103.858,103.858,0,0,1,37.516,45.56,103.1,103.1,0,0,1,6.036,19.446,104.5,104.5,0,0,1,0,41.732,103,103,0,0,1-15.585,37.039,104.3,104.3,0,0,1-12.643,15.323,4.77,4.77,0,1,1-6.745-6.745,94.175,94.175,0,0,0,20.151-29.888,93.491,93.491,0,0,0,5.476-17.642,94.961,94.961,0,0,0,0-37.908A93.468,93.468,0,0,0,322.8,83.667,94.32,94.32,0,0,0,281.432,49.6a93.6,93.6,0,0,0-17.643-5.477,95.469,95.469,0,0,0-37.907,0,93.493,93.493,0,0,0-33.612,14.144A94.306,94.306,0,0,0,158.2,99.637a93.571,93.571,0,0,0-5.477,17.643,95.008,95.008,0,0,0,0,37.908A93.5,93.5,0,0,0,166.869,188.8a94.306,94.306,0,0,0,41.371,34.07,93.483,93.483,0,0,0,17.643,5.477,95.435,95.435,0,0,0,37.907,0,4.77,4.77,0,1,1,1.913,9.346A104.321,104.321,0,0,1,244.836,239.794Z" transform="translate(-141.275 -32.681)"/></g><g class="q" transform="translate(16.694 16.692)"><path class="c" d="M244.894,238.659a103.076,103.076,0,0,1-20.627-2.08,101.861,101.861,0,0,1-36.611-15.406,102.673,102.673,0,0,1-37.084-45.036,101.891,101.891,0,0,1-5.966-19.22,103.339,103.339,0,0,1,0-41.255,101.8,101.8,0,0,1,15.406-36.61,102.639,102.639,0,0,1,45.036-37.084A101.882,101.882,0,0,1,224.266,36a103.814,103.814,0,0,1,41.254,0,101.843,101.843,0,0,1,36.611,15.406,102.653,102.653,0,0,1,37.084,45.036,101.918,101.918,0,0,1,5.967,19.22,103.337,103.337,0,0,1,0,41.254,101.843,101.843,0,0,1-15.406,36.611,103.09,103.09,0,0,1-12.5,15.148,3.577,3.577,0,0,1-5.06-5.059,95.373,95.373,0,0,0,20.407-30.266,94.728,94.728,0,0,0,5.546-17.868,96.168,96.168,0,0,0,0-38.385,94.653,94.653,0,0,0-14.325-34.039,95.511,95.511,0,0,0-41.894-34.5,94.745,94.745,0,0,0-17.869-5.546,96.62,96.62,0,0,0-38.385,0,94.669,94.669,0,0,0-34.04,14.325,95.5,95.5,0,0,0-34.5,41.894,94.728,94.728,0,0,0-5.547,17.868,96.219,96.219,0,0,0,0,38.386,94.719,94.719,0,0,0,14.325,34.039,95.489,95.489,0,0,0,41.9,34.5A94.669,94.669,0,0,0,225.7,229.57a96.656,96.656,0,0,0,38.385,0,3.577,3.577,0,1,1,1.435,7.009A103.059,103.059,0,0,1,244.894,238.659Z" transform="translate(-142.525 -33.931)"/></g><g transform="translate(17.887 17.885)"><path class="c" d="M244.951,237.524a101.944,101.944,0,0,1-20.388-2.055,100.672,100.672,0,0,1-36.182-15.225,101.471,101.471,0,0,1-36.655-44.513,100.615,100.615,0,0,1-5.9-19,102.126,102.126,0,0,1,0-40.776,100.621,100.621,0,0,1,15.224-36.182,101.462,101.462,0,0,1,44.513-36.654,100.651,100.651,0,0,1,19-5.9,102.588,102.588,0,0,1,40.775,0,100.622,100.622,0,0,1,36.183,15.225,101.441,101.441,0,0,1,36.654,44.513,100.634,100.634,0,0,1,5.9,18.994,102.126,102.126,0,0,1,0,40.776,100.648,100.648,0,0,1-15.224,36.182,101.939,101.939,0,0,1-12.354,14.972,2.385,2.385,0,0,1-3.372-3.372,96.592,96.592,0,0,0,20.661-30.645A95.888,95.888,0,0,0,339.4,155.78a97.382,97.382,0,0,0,0-38.864,95.876,95.876,0,0,0-14.5-34.468,96.7,96.7,0,0,0-42.418-34.931A95.93,95.93,0,0,0,264.383,41.9a97.811,97.811,0,0,0-38.863,0A95.891,95.891,0,0,0,191.05,56.4a96.716,96.716,0,0,0-34.931,42.418,95.906,95.906,0,0,0-5.616,18.093,97.383,97.383,0,0,0,0,38.864,95.832,95.832,0,0,0,14.505,34.468,96.675,96.675,0,0,0,42.418,34.931A95.838,95.838,0,0,0,225.52,230.8a97.805,97.805,0,0,0,38.863,0,2.385,2.385,0,1,1,.956,4.673A101.934,101.934,0,0,1,244.951,237.524Z" transform="translate(-143.775 -35.181)"/></g><g transform="translate(19.476 19.474)"><path class="r" d="M245.028,236.01a100.321,100.321,0,0,1-20.069-2.022A99.068,99.068,0,0,1,189.347,219a99.88,99.88,0,0,1-36.08-43.814,99.191,99.191,0,0,1-5.8-18.695,100.545,100.545,0,0,1,0-40.139,99.048,99.048,0,0,1,14.985-35.61,99.873,99.873,0,0,1,43.815-36.08,99.154,99.154,0,0,1,18.695-5.8,101.031,101.031,0,0,1,40.138,0,99.067,99.067,0,0,1,35.611,14.986,99.873,99.873,0,0,1,36.08,43.815,99.063,99.063,0,0,1,5.8,18.694,100.547,100.547,0,0,1,0,40.139,99.028,99.028,0,0,1-14.985,35.61,100.254,100.254,0,0,1-12.159,14.739.8.8,0,1,1-1.125-1.125,98.162,98.162,0,0,0,21-31.15,97.453,97.453,0,0,0,5.709-18.393,98.963,98.963,0,0,0,0-39.5,97.449,97.449,0,0,0-14.744-35.039,98.285,98.285,0,0,0-43.116-35.505,97.5,97.5,0,0,0-18.394-5.71,99.438,99.438,0,0,0-39.5,0,97.489,97.489,0,0,0-35.04,14.745A98.284,98.284,0,0,0,154.732,98.28a97.5,97.5,0,0,0-5.709,18.393,98.965,98.965,0,0,0,0,39.5,97.451,97.451,0,0,0,14.744,35.039,98.257,98.257,0,0,0,43.117,35.505,97.485,97.485,0,0,0,18.393,5.71,99.4,99.4,0,0,0,39.5,0,.8.8,0,1,1,.319,1.558A100.319,100.319,0,0,1,245.028,236.01Z" transform="translate(-145.441 -36.847)"/></g></g><g transform="translate(26.593 26.59)"><g class="b"><path class="s" d="M244.819,240.135a104.658,104.658,0,0,1-20.921-2.11A103.87,103.87,0,0,1,171.336,209.7a104.061,104.061,0,0,1-22.263-33.026,104.374,104.374,0,0,1-6.063-61.378,20.271,20.271,0,0,1,39.72,8.127,64.2,64.2,0,0,0,0,25.589,62.933,62.933,0,0,0,9.523,22.626,63.639,63.639,0,0,0,27.9,22.984,62.929,62.929,0,0,0,11.869,3.684,64.476,64.476,0,0,0,25.588,0,62.89,62.89,0,0,0,22.626-9.523,63.8,63.8,0,0,0,17.146-17.146A63.051,63.051,0,0,0,308.2,136.215a63.94,63.94,0,0,0-1.288-12.795,62.939,62.939,0,0,0-9.524-22.626,63.8,63.8,0,0,0-17.144-17.144,62.934,62.934,0,0,0-22.627-9.524,64.476,64.476,0,0,0-25.588,0A62.939,62.939,0,0,0,209.4,83.65,63.931,63.931,0,0,0,200,91.4a20.272,20.272,0,0,1-28.668-28.669A104.078,104.078,0,0,1,204.363,40.47,103.512,103.512,0,0,1,223.9,34.407a105.2,105.2,0,0,1,41.843,0A103.842,103.842,0,0,1,318.3,62.733a104.026,104.026,0,0,1,22.263,33.025,103.578,103.578,0,0,1,6.064,19.534A103.859,103.859,0,0,1,244.819,240.135Z" transform="translate(-140.899 -32.305)"/></g><g class="d" transform="translate(1.192 1.192)"><path class="s" d="M244.876,239a103.41,103.41,0,0,1-20.683-2.086,102.7,102.7,0,0,1-79.958-79.958,103.564,103.564,0,0,1,0-41.366,19.079,19.079,0,1,1,37.384,7.65,65.4,65.4,0,0,0,0,26.066,64.117,64.117,0,0,0,9.7,23.054,64.812,64.812,0,0,0,28.424,23.415,64.048,64.048,0,0,0,12.094,3.754,65.667,65.667,0,0,0,26.067,0,64.131,64.131,0,0,0,23.054-9.7A64.8,64.8,0,0,0,304.379,161.4a64.1,64.1,0,0,0,3.755-12.094,65.374,65.374,0,0,0,0-26.065,64.106,64.106,0,0,0-9.7-23.055A64.8,64.8,0,0,0,270,76.771a64.076,64.076,0,0,0-12.1-3.755,65.661,65.661,0,0,0-26.066,0,64.131,64.131,0,0,0-23.054,9.7,65.19,65.19,0,0,0-9.57,7.9,19.079,19.079,0,1,1-26.981-26.983,102.862,102.862,0,0,1,32.647-22.007,102.287,102.287,0,0,1,19.309-5.995,104.009,104.009,0,0,1,41.364,0A102.252,102.252,0,0,1,302.326,51.1,102.779,102.779,0,0,1,284.866,230.92a102.322,102.322,0,0,1-19.308,5.994A103.4,103.4,0,0,1,244.876,239Z" transform="translate(-142.149 -33.555)"/></g><g class="e" transform="translate(2.385 2.385)"><path class="s" d="M244.934,237.865a102.219,102.219,0,0,1-20.443-2.062,101.057,101.057,0,0,1-36.338-15.289,101.762,101.762,0,0,1-36.767-44.656,101.109,101.109,0,0,1-5.924-19.083,102.353,102.353,0,0,1,0-40.888,17.887,17.887,0,1,1,35.048,7.171,66.572,66.572,0,0,0,0,26.545,65.268,65.268,0,0,0,9.884,23.483,65.995,65.995,0,0,0,28.948,23.845,65.284,65.284,0,0,0,12.32,3.824,66.882,66.882,0,0,0,26.544,0,65.284,65.284,0,0,0,23.484-9.884,66.011,66.011,0,0,0,23.846-28.949,65.4,65.4,0,0,0,3.824-12.32,66.567,66.567,0,0,0,0-26.544,65.308,65.308,0,0,0-9.884-23.484A66.019,66.019,0,0,0,270.527,75.73a65.351,65.351,0,0,0-12.32-3.824,66.852,66.852,0,0,0-26.545,0A65.318,65.318,0,0,0,208.18,81.79a66.243,66.243,0,0,0-9.747,8.041,17.887,17.887,0,0,1-25.3-25.3,101.662,101.662,0,0,1,32.27-21.752,101.115,101.115,0,0,1,19.083-5.924,102.827,102.827,0,0,1,40.887,0,101.068,101.068,0,0,1,36.339,15.29A101.587,101.587,0,0,1,284.459,229.88a101.069,101.069,0,0,1-19.083,5.923A102.217,102.217,0,0,1,244.934,237.865Z" transform="translate(-143.399 -34.805)"/></g><g class="f" transform="translate(3.577 3.577)"><path class="s" d="M244.991,236.73a101.051,101.051,0,0,1-20.2-2.038,100.316,100.316,0,0,1-78.1-78.1,101.191,101.191,0,0,1,0-40.41,16.695,16.695,0,0,1,32.711,6.694,67.776,67.776,0,0,0,0,27.022,66.486,66.486,0,0,0,10.064,23.912,67.387,67.387,0,0,0,18.106,18.105,66.5,66.5,0,0,0,23.911,10.065,68.108,68.108,0,0,0,27.023,0,66.491,66.491,0,0,0,23.911-10.064,67.183,67.183,0,0,0,24.277-29.474,66.515,66.515,0,0,0,3.894-12.546,67.769,67.769,0,0,0,0-27.021A66.505,66.505,0,0,0,300.52,98.964a67.211,67.211,0,0,0-29.471-24.275A66.451,66.451,0,0,0,258.5,70.8a68.033,68.033,0,0,0-27.022,0,66.466,66.466,0,0,0-23.911,10.063,67.512,67.512,0,0,0-9.922,8.186,16.695,16.695,0,1,1-23.609-23.611,100.476,100.476,0,0,1,31.891-21.5,99.86,99.86,0,0,1,18.858-5.854,101.585,101.585,0,0,1,40.408,0,99.893,99.893,0,0,1,35.911,15.109,100.393,100.393,0,0,1-17.054,175.645,99.922,99.922,0,0,1-18.857,5.854A101.042,101.042,0,0,1,244.991,236.73Z" transform="translate(-144.649 -36.055)"/></g><g class="g" transform="translate(4.77 4.769)"><path class="s" d="M245.049,235.6a99.788,99.788,0,0,1-19.965-2.014A98.661,98.661,0,0,1,189.6,218.653,99.388,99.388,0,0,1,153.7,175.044a98.747,98.747,0,0,1-5.784-18.633,99.979,99.979,0,0,1,0-39.931,15.5,15.5,0,0,1,30.374,6.215,68.989,68.989,0,0,0,0,27.5,67.706,67.706,0,0,0,10.245,24.34,68.392,68.392,0,0,0,30,24.707,67.615,67.615,0,0,0,12.772,3.964,69.271,69.271,0,0,0,27.5,0,67.662,67.662,0,0,0,24.34-10.245,68.581,68.581,0,0,0,18.428-18.428,67.708,67.708,0,0,0,10.245-24.34,68.984,68.984,0,0,0,0-27.5,67.731,67.731,0,0,0-10.246-24.34A68.6,68.6,0,0,0,283.14,79.929,67.707,67.707,0,0,0,258.8,69.684a69.258,69.258,0,0,0-27.5,0,67.712,67.712,0,0,0-24.339,10.245,68.786,68.786,0,0,0-10.1,8.331,15.5,15.5,0,1,1-21.922-21.923,99.283,99.283,0,0,1,31.512-21.243,98.713,98.713,0,0,1,18.632-5.784,100.4,100.4,0,0,1,39.93,0A98.671,98.671,0,0,1,300.5,54.239,99.2,99.2,0,0,1,283.646,227.8a98.7,98.7,0,0,1-18.633,5.784A99.778,99.778,0,0,1,245.049,235.6Z" transform="translate(-145.899 -37.305)"/></g><g class="h" transform="translate(5.962 5.961)"><path class="s" d="M245.107,234.461a98.612,98.612,0,0,1-19.727-1.99,97.524,97.524,0,0,1-35.052-14.747,98.207,98.207,0,0,1-35.474-43.086,97.487,97.487,0,0,1-5.714-18.408,98.77,98.77,0,0,1,0-39.453,14.309,14.309,0,1,1,28.038,5.736,70.157,70.157,0,0,0,0,27.98A68.883,68.883,0,0,0,187.6,175.261,69.59,69.59,0,0,0,218.12,200.4a68.865,68.865,0,0,0,13,4.034,70.5,70.5,0,0,0,27.979,0,68.9,68.9,0,0,0,24.769-10.424A69.571,69.571,0,0,0,309,163.488a68.918,68.918,0,0,0,4.034-13,70.149,70.149,0,0,0,0-27.978,68.885,68.885,0,0,0-10.425-24.769,69.582,69.582,0,0,0-30.519-25.137,68.823,68.823,0,0,0-13-4.034,70.479,70.479,0,0,0-27.979,0A68.91,68.91,0,0,0,206.349,79a69.948,69.948,0,0,0-10.273,8.476A14.309,14.309,0,1,1,175.84,67.237,98.095,98.095,0,0,1,206.973,46.25a97.505,97.505,0,0,1,18.407-5.714,99.2,99.2,0,0,1,39.453,0,97.5,97.5,0,0,1,35.053,14.749A98.192,98.192,0,0,1,335.36,98.368a97.6,97.6,0,0,1,5.714,18.407,98.065,98.065,0,0,1-57.835,109.982,97.527,97.527,0,0,1-18.407,5.713A98.61,98.61,0,0,1,245.107,234.461Z" transform="translate(-147.149 -38.554)"/></g><g class="i" transform="translate(7.155 7.154)"><path class="s" d="M245.164,233.326a97.359,97.359,0,0,1-19.488-1.966,96.282,96.282,0,0,1-34.624-14.568,97.016,97.016,0,0,1-35.044-42.561,96.377,96.377,0,0,1-5.645-18.183,97.609,97.609,0,0,1,0-38.975,13.117,13.117,0,0,1,25.7,5.259,71.359,71.359,0,0,0,0,28.457,70.055,70.055,0,0,0,10.605,25.2,70.766,70.766,0,0,0,31.043,25.567,69.987,69.987,0,0,0,13.222,4.1,71.7,71.7,0,0,0,28.457,0,70.06,70.06,0,0,0,25.2-10.605,70.763,70.763,0,0,0,25.569-31.044,70.166,70.166,0,0,0,4.1-13.222,71.354,71.354,0,0,0,0-28.456,70.1,70.1,0,0,0-10.605-25.2,70.78,70.78,0,0,0-31.043-25.567,70.056,70.056,0,0,0-13.222-4.1,71.665,71.665,0,0,0-28.457,0,70.127,70.127,0,0,0-25.2,10.6,71.049,71.049,0,0,0-10.448,8.622,13.117,13.117,0,1,1-18.55-18.552A96.9,96.9,0,0,1,207.5,47.405a96.326,96.326,0,0,1,18.182-5.645,98.027,98.027,0,0,1,38.974,0A96.277,96.277,0,0,1,299.276,56.33a96.908,96.908,0,0,1,40.687,99.719A96.32,96.32,0,0,1,325.4,190.672a97,97,0,0,1-42.564,35.044,96.232,96.232,0,0,1-18.182,5.644A97.348,97.348,0,0,1,245.164,233.326Z" transform="translate(-148.399 -39.805)"/></g><g class="j" transform="translate(8.347 8.346)"><path class="s" d="M245.222,232.191a96.234,96.234,0,0,1-19.248-1.941,95.1,95.1,0,0,1-34.2-14.388,95.819,95.819,0,0,1-34.614-42.038,95.135,95.135,0,0,1-5.574-17.956,96.4,96.4,0,0,1,0-38.5,11.925,11.925,0,1,1,23.365,4.78,72.53,72.53,0,0,0,0,28.936,71.24,71.24,0,0,0,10.785,25.625,71.961,71.961,0,0,0,31.567,26,71.305,71.305,0,0,0,13.447,4.175,72.921,72.921,0,0,0,28.935,0A71.278,71.278,0,0,0,285.315,196.1a71.981,71.981,0,0,0,26-31.568,71.329,71.329,0,0,0,4.175-13.447,72.57,72.57,0,0,0,0-28.935A71.264,71.264,0,0,0,304.7,96.525a71.959,71.959,0,0,0-31.567-26,71.257,71.257,0,0,0-13.447-4.175,72.855,72.855,0,0,0-28.936,0A71.245,71.245,0,0,0,205.13,77.137,72.212,72.212,0,0,0,194.505,85.9a11.925,11.925,0,0,1-16.864-16.864A95.53,95.53,0,0,1,264.47,42.987a95.143,95.143,0,0,1,34.2,14.389,95.808,95.808,0,0,1,34.612,42.037,95.189,95.189,0,0,1,5.575,17.956,96.4,96.4,0,0,1,0,38.5,95.128,95.128,0,0,1-14.388,34.195,95.82,95.82,0,0,1-42.04,34.614,95.142,95.142,0,0,1-17.956,5.574A96.224,96.224,0,0,1,245.222,232.191Z" transform="translate(-149.649 -41.054)"/></g><g class="k" transform="translate(9.54 9.538)"><path class="s" d="M245.279,231.056a94.482,94.482,0,0,1-86.959-57.639,93.975,93.975,0,0,1-5.5-17.731,95.188,95.188,0,0,1,0-38.019,10.732,10.732,0,0,1,21.028,4.3,73.734,73.734,0,0,0,0,29.413,72.458,72.458,0,0,0,10.965,26.055,73.158,73.158,0,0,0,32.09,26.429,72.465,72.465,0,0,0,13.672,4.244,74.076,74.076,0,0,0,29.414,0,72.462,72.462,0,0,0,26.054-10.965,73.16,73.16,0,0,0,26.431-32.091,72.43,72.43,0,0,0,4.244-13.673,73.727,73.727,0,0,0,0-29.412,72.457,72.457,0,0,0-10.965-26.055A73.391,73.391,0,0,0,286.04,76.207a72.48,72.48,0,0,0-26.055-10.966,74.072,74.072,0,0,0-29.413,0,72.461,72.461,0,0,0-26.054,10.965,73.482,73.482,0,0,0-10.8,8.911,10.732,10.732,0,0,1-15.178-15.178,94.511,94.511,0,0,1,30-20.221,93.933,93.933,0,0,1,17.731-5.5,95.6,95.6,0,0,1,38.017,0,93.941,93.941,0,0,1,33.768,14.208,94.619,94.619,0,0,1,34.182,41.514,94.1,94.1,0,0,1,5.5,17.73,95.192,95.192,0,0,1,0,38.02,93.907,93.907,0,0,1-14.207,33.766,94.628,94.628,0,0,1-41.516,34.183,94,94,0,0,1-17.731,5.5A94.986,94.986,0,0,1,245.279,231.056Z" transform="translate(-150.899 -42.304)"/></g><g class="l" transform="translate(10.732 10.731)"><path class="s" d="M245.337,229.921a93.866,93.866,0,0,1-18.77-1.893A92.735,92.735,0,0,1,193.229,214a93.422,93.422,0,0,1-33.752-40.991,92.807,92.807,0,0,1-5.435-17.505,94.026,94.026,0,0,1,0-37.541,9.54,9.54,0,0,1,18.692,3.824,74.945,74.945,0,0,0,0,29.891,73.633,73.633,0,0,0,11.145,26.483,74.363,74.363,0,0,0,32.614,26.86,73.638,73.638,0,0,0,13.9,4.315,75.292,75.292,0,0,0,29.891,0,73.678,73.678,0,0,0,26.483-11.145,74.344,74.344,0,0,0,26.861-32.615,73.668,73.668,0,0,0,4.315-13.9,74.942,74.942,0,0,0,0-29.89A73.658,73.658,0,0,0,306.794,95.3a74.369,74.369,0,0,0-32.613-26.86,73.727,73.727,0,0,0-13.9-4.315,75.3,75.3,0,0,0-29.891,0,73.663,73.663,0,0,0-26.482,11.146,74.625,74.625,0,0,0-10.975,9.055,9.54,9.54,0,0,1-13.491-13.492,93.361,93.361,0,0,1,29.619-19.967,92.758,92.758,0,0,1,17.505-5.433,94.418,94.418,0,0,1,37.54,0,92.7,92.7,0,0,1,33.339,14.028,93.42,93.42,0,0,1,33.751,40.99,92.832,92.832,0,0,1,5.434,17.505,93.987,93.987,0,0,1,0,37.542A92.691,92.691,0,0,1,322.6,188.841a93.445,93.445,0,0,1-40.992,33.753,92.831,92.831,0,0,1-17.505,5.434A93.88,93.88,0,0,1,245.337,229.921Z" transform="translate(-152.149 -43.554)"/></g><g class="m" transform="translate(11.925 11.923)"><path class="s" d="M245.394,228.786a92.611,92.611,0,0,1-18.531-1.869,91.527,91.527,0,0,1-32.911-13.848A92.243,92.243,0,0,1,160.632,172.6a91.575,91.575,0,0,1-5.364-17.28,92.813,92.813,0,0,1,0-37.062,8.347,8.347,0,1,1,16.355,3.346,76.16,76.16,0,0,0,0,30.37,74.842,74.842,0,0,0,11.325,26.91,75.542,75.542,0,0,0,33.138,27.291,74.8,74.8,0,0,0,14.123,4.384,76.484,76.484,0,0,0,30.369,0,74.81,74.81,0,0,0,26.911-11.325A75.543,75.543,0,0,0,314.782,166.1a74.941,74.941,0,0,0,4.383-14.124,76.109,76.109,0,0,0,0-30.369A74.855,74.855,0,0,0,307.84,94.694a75.719,75.719,0,0,0-20.35-20.349A74.856,74.856,0,0,0,260.579,63.02a76.448,76.448,0,0,0-30.369,0A74.882,74.882,0,0,0,203.3,74.344a75.915,75.915,0,0,0-11.151,9.2,8.347,8.347,0,0,1-11.8-11.805,92.133,92.133,0,0,1,29.24-19.712,91.58,91.58,0,0,1,17.28-5.364,93.227,93.227,0,0,1,37.061,0,91.547,91.547,0,0,1,32.911,13.848,92.244,92.244,0,0,1,33.321,40.467,91.689,91.689,0,0,1,5.364,17.28,92.816,92.816,0,0,1,0,37.063,91.549,91.549,0,0,1-13.848,32.91,92.25,92.25,0,0,1-40.468,33.321,91.6,91.6,0,0,1-17.28,5.364A92.617,92.617,0,0,1,245.394,228.786Z" transform="translate(-153.399 -44.804)"/></g><g class="n" transform="translate(13.117 13.116)"><path class="s" d="M245.452,227.651a91.366,91.366,0,0,1-18.292-1.845,90.331,90.331,0,0,1-32.481-13.666A91.032,91.032,0,0,1,161.787,172.2a90.321,90.321,0,0,1-5.294-17.055,91.605,91.605,0,0,1,0-36.584,7.154,7.154,0,0,1,14.018,2.869,77.316,77.316,0,0,0,0,30.847,76.032,76.032,0,0,0,11.506,27.34,76.748,76.748,0,0,0,33.661,27.722,76.034,76.034,0,0,0,14.35,4.454,77.667,77.667,0,0,0,30.847,0,76.017,76.017,0,0,0,27.339-11.506,76.734,76.734,0,0,0,27.723-33.661,76.121,76.121,0,0,0,4.454-14.349,77.32,77.32,0,0,0,0-30.847,76.016,76.016,0,0,0-11.506-27.34,76.726,76.726,0,0,0-33.662-27.721,76.03,76.03,0,0,0-14.349-4.455,77.668,77.668,0,0,0-30.847,0,76.032,76.032,0,0,0-27.34,11.506,77.059,77.059,0,0,0-11.326,9.345,7.155,7.155,0,0,1-10.118-10.119,90.958,90.958,0,0,1,28.861-19.457A90.359,90.359,0,0,1,227.16,47.89a92.047,92.047,0,0,1,36.584,0,90.375,90.375,0,0,1,32.481,13.667,91.043,91.043,0,0,1,32.89,39.943,90.444,90.444,0,0,1,5.294,17.055,91.6,91.6,0,0,1,0,36.584,90.331,90.331,0,0,1-13.666,32.481A91.047,91.047,0,0,1,280.8,220.513a90.331,90.331,0,0,1-17.053,5.294A91.373,91.373,0,0,1,245.452,227.651Z" transform="translate(-154.649 -46.055)"/></g><g class="o" transform="translate(14.309 14.308)"><path class="s" d="M245.509,226.516a90.26,90.26,0,0,1-18.054-1.82,89.54,89.54,0,0,1-45.31-24.426,89.722,89.722,0,0,1-19.2-28.481,89.245,89.245,0,0,1-5.224-16.829,90.44,90.44,0,0,1,0-36.106,5.962,5.962,0,1,1,11.682,2.39,78.532,78.532,0,0,0,0,31.326,77.237,77.237,0,0,0,11.686,27.768,77.931,77.931,0,0,0,34.184,28.152,77.268,77.268,0,0,0,14.575,4.525,78.889,78.889,0,0,0,31.325,0,77.235,77.235,0,0,0,27.768-11.686,77.92,77.92,0,0,0,28.153-34.185,77.317,77.317,0,0,0,4.525-14.575,78.527,78.527,0,0,0,0-31.325,77.254,77.254,0,0,0-11.686-27.768,77.945,77.945,0,0,0-34.185-28.152A77.263,77.263,0,0,0,261.172,60.8a78.818,78.818,0,0,0-31.325,0,77.23,77.23,0,0,0-27.768,11.685,78.329,78.329,0,0,0-11.5,9.49,5.962,5.962,0,0,1-8.431-8.432,89.717,89.717,0,0,1,28.482-19.2,89.121,89.121,0,0,1,16.828-5.224,90.79,90.79,0,0,1,36.106,0A89.133,89.133,0,0,1,295.615,62.6a89.863,89.863,0,0,1,32.46,39.42,89.325,89.325,0,0,1,5.224,16.829,90.444,90.444,0,0,1,0,36.107,89.155,89.155,0,0,1-13.487,32.052,89.855,89.855,0,0,1-39.422,32.461,89.2,89.2,0,0,1-16.829,5.224A90.257,90.257,0,0,1,245.509,226.516Z" transform="translate(-155.899 -47.304)"/></g><g class="p" transform="translate(15.502 15.5)"><path class="s" d="M245.567,225.381a88.992,88.992,0,0,1-17.814-1.8,87.975,87.975,0,0,1-31.625-13.307,88.654,88.654,0,0,1-32.028-38.9,87.989,87.989,0,0,1-5.154-16.6,89.231,89.231,0,0,1,0-35.629,4.77,4.77,0,0,1,9.346,1.913,79.69,79.69,0,0,0,0,31.8,78.447,78.447,0,0,0,11.865,28.2,79.115,79.115,0,0,0,34.708,28.583,78.438,78.438,0,0,0,14.8,4.594,80.04,80.04,0,0,0,31.8,0,78.433,78.433,0,0,0,28.2-11.865,79.117,79.117,0,0,0,28.584-34.709,78.43,78.43,0,0,0,4.594-14.8,79.688,79.688,0,0,0,0-31.8,78.447,78.447,0,0,0-11.865-28.2,79.122,79.122,0,0,0-34.709-28.583,78.426,78.426,0,0,0-14.8-4.594,80.075,80.075,0,0,0-31.8,0,78.433,78.433,0,0,0-28.2,11.865,79.437,79.437,0,0,0-11.677,9.635,4.77,4.77,0,1,1-6.745-6.745,88.552,88.552,0,0,1,28.1-18.947,87.972,87.972,0,0,1,16.6-5.154,89.64,89.64,0,0,1,35.629,0,87.995,87.995,0,0,1,31.625,13.307,88.653,88.653,0,0,1,32.028,38.9,88.089,88.089,0,0,1,5.154,16.6,89.229,89.229,0,0,1,0,35.629A87.975,87.975,0,0,1,318.882,186.4a88.661,88.661,0,0,1-38.9,32.028,87.961,87.961,0,0,1-16.6,5.154A89.007,89.007,0,0,1,245.567,225.381Z" transform="translate(-157.149 -48.554)"/></g><g class="q" transform="translate(16.694 16.693)"><path class="s" d="M245.625,224.246a87.9,87.9,0,0,1-17.576-1.771,86.785,86.785,0,0,1-31.2-13.127,87.47,87.47,0,0,1-31.6-38.373,86.821,86.821,0,0,1-5.085-16.378,88.069,88.069,0,0,1,0-35.151,3.577,3.577,0,0,1,7.01,1.434,80.9,80.9,0,0,0,0,32.282,79.624,79.624,0,0,0,12.046,28.626A80.342,80.342,0,0,0,214.459,210.8a79.729,79.729,0,0,0,15.025,4.664,81.261,81.261,0,0,0,32.281,0,79.585,79.585,0,0,0,28.626-12.047A80.329,80.329,0,0,0,319.4,168.187a79.745,79.745,0,0,0,4.664-15.025,80.9,80.9,0,0,0,0-32.282,79.59,79.59,0,0,0-12.047-28.625A80.314,80.314,0,0,0,276.79,63.241a79.681,79.681,0,0,0-15.025-4.665,81.265,81.265,0,0,0-32.282,0,79.634,79.634,0,0,0-28.625,12.047A80.6,80.6,0,0,0,189.006,80.4a3.577,3.577,0,0,1-5.059-5.059,87.35,87.35,0,0,1,27.724-18.692,86.717,86.717,0,0,1,16.379-5.084,88.414,88.414,0,0,1,35.15,0,86.753,86.753,0,0,1,31.2,13.127,87.471,87.471,0,0,1,31.6,38.373,86.859,86.859,0,0,1,5.084,16.379,88.026,88.026,0,0,1,0,35.151,86.758,86.758,0,0,1-13.127,31.2,87.476,87.476,0,0,1-38.374,31.6,86.781,86.781,0,0,1-16.378,5.085A87.889,87.889,0,0,1,245.625,224.246Z" transform="translate(-158.399 -49.803)"/></g><g transform="translate(17.887 17.885)"><path class="s" d="M245.682,223.111a86.635,86.635,0,0,1-17.336-1.748,85.583,85.583,0,0,1-30.767-12.946,86.273,86.273,0,0,1-31.168-37.85,85.592,85.592,0,0,1-5.014-16.153,86.855,86.855,0,0,1,0-34.672,2.385,2.385,0,1,1,4.672.955,82.118,82.118,0,0,0,0,32.761A80.812,80.812,0,0,0,178.3,182.512a81.513,81.513,0,0,0,35.755,29.445,80.748,80.748,0,0,0,15.25,4.734,82.451,82.451,0,0,0,32.76,0,80.782,80.782,0,0,0,29.054-12.226,81.513,81.513,0,0,0,29.445-35.755,80.893,80.893,0,0,0,4.734-15.251,82.069,82.069,0,0,0,0-32.76,80.834,80.834,0,0,0-12.226-29.053A81.5,81.5,0,0,0,277.313,62.2a80.71,80.71,0,0,0-15.251-4.735,82.451,82.451,0,0,0-32.76,0,80.787,80.787,0,0,0-29.053,12.226,81.814,81.814,0,0,0-12.028,9.925,2.385,2.385,0,0,1-3.373-3.373,86.191,86.191,0,0,1,27.346-18.437,85.641,85.641,0,0,1,16.152-5.014,87.264,87.264,0,0,1,34.672,0A85.6,85.6,0,0,1,293.786,65.74a86.272,86.272,0,0,1,31.167,37.849,85.627,85.627,0,0,1,5.015,16.152,86.862,86.862,0,0,1,0,34.673,85.581,85.581,0,0,1-12.946,30.767A86.265,86.265,0,0,1,279.17,216.35a85.618,85.618,0,0,1-16.152,5.014A86.632,86.632,0,0,1,245.682,223.111Z" transform="translate(-159.649 -51.054)"/></g><g transform="translate(19.476 19.475)"><path class="r" d="M245.759,221.6a85.078,85.078,0,0,1-17.018-1.715,83.964,83.964,0,0,1-30.2-12.707,84.7,84.7,0,0,1-30.594-37.151,84.022,84.022,0,0,1-4.921-15.852,85.227,85.227,0,0,1,0-34.034.795.795,0,1,1,1.558.318,83.652,83.652,0,0,0,0,33.4,82.366,82.366,0,0,0,12.466,29.624A83.109,83.109,0,0,0,213.508,213.5a82.413,82.413,0,0,0,15.551,4.827,84.044,84.044,0,0,0,33.4,0,82.38,82.38,0,0,0,29.625-12.466A83.108,83.108,0,0,0,322.1,169.406a82.52,82.52,0,0,0,4.827-15.551,83.694,83.694,0,0,0,0-33.4,82.385,82.385,0,0,0-12.466-29.624,83.087,83.087,0,0,0-36.454-30.018,82.417,82.417,0,0,0-15.551-4.828,84.043,84.043,0,0,0-33.4,0,82.43,82.43,0,0,0-29.624,12.466,83.432,83.432,0,0,0-12.263,10.118.795.795,0,0,1-1.124-1.125,84.6,84.6,0,0,1,26.841-18.1,84.073,84.073,0,0,1,15.852-4.921,85.636,85.636,0,0,1,34.035,0,83.975,83.975,0,0,1,30.2,12.707,84.7,84.7,0,0,1,30.594,37.151,84.108,84.108,0,0,1,4.921,15.853,85.275,85.275,0,0,1,0,34.034,83.967,83.967,0,0,1-12.707,30.2,84.705,84.705,0,0,1-37.152,30.594,83.98,83.98,0,0,1-15.852,4.921A85.075,85.075,0,0,1,245.759,221.6Z" transform="translate(-161.315 -52.72)"/></g></g><g transform="translate(0 0)"><g class="b"><path class="t" d="M243.535,265.444a131.391,131.391,0,0,1-26.286-2.651,129.893,129.893,0,0,1-46.7-19.648,130.853,130.853,0,0,1-47.268-57.407,129.99,129.99,0,0,1-7.612-24.521,131.641,131.641,0,0,1,0-52.572,129.887,129.887,0,0,1,19.648-46.7,130.833,130.833,0,0,1,57.408-47.268A130.056,130.056,0,0,1,217.25,7.071a132.208,132.208,0,0,1,52.571,0,129.984,129.984,0,0,1,24.521,7.611,16.218,16.218,0,0,1-12.635,29.873,97.439,97.439,0,0,0-18.388-5.709,99.656,99.656,0,0,0-39.566,0A97.475,97.475,0,0,0,188.71,53.594a98.407,98.407,0,0,0-35.552,43.167,97.428,97.428,0,0,0-5.708,18.389,99.191,99.191,0,0,0,0,39.567A97.44,97.44,0,0,0,162.2,189.757a98.414,98.414,0,0,0,43.166,35.552,97.5,97.5,0,0,0,18.388,5.708,99.625,99.625,0,0,0,39.567,0A97.436,97.436,0,0,0,298.36,216.27,98.393,98.393,0,0,0,333.912,173.1a97.473,97.473,0,0,0,5.708-18.389,99.185,99.185,0,0,0,0-39.566,97.494,97.494,0,0,0-14.747-35.043A16.217,16.217,0,1,1,351.748,61.95,130.457,130.457,0,0,1,243.535,265.444Z" transform="translate(-113.023 -4.432)"/></g><g class="d" transform="translate(0.954 0.954)"><path class="t" d="M243.582,264.537a130.4,130.4,0,0,1-26.095-2.632,128.92,128.92,0,0,1-46.354-19.5,129.895,129.895,0,0,1-46.923-56.988,128.984,128.984,0,0,1-7.555-24.34,130.674,130.674,0,0,1,0-52.189,128.925,128.925,0,0,1,19.5-46.353,129.89,129.89,0,0,1,56.988-46.923,129.009,129.009,0,0,1,24.341-7.555,131.251,131.251,0,0,1,52.188,0,128.99,128.99,0,0,1,24.339,7.555,15.264,15.264,0,0,1-11.891,28.116,98.375,98.375,0,0,0-18.568-5.764,100.582,100.582,0,0,0-39.949,0,98.415,98.415,0,0,0-35.385,14.891,99.384,99.384,0,0,0-35.9,43.585A98.506,98.506,0,0,0,146.562,115a100.161,100.161,0,0,0,0,39.949,98.38,98.38,0,0,0,14.892,35.384,99.35,99.35,0,0,0,43.585,35.9A98.424,98.424,0,0,0,223.607,232a100.617,100.617,0,0,0,39.949,0,98.4,98.4,0,0,0,35.384-14.891,99.363,99.363,0,0,0,35.9-43.585,98.334,98.334,0,0,0,5.764-18.57,100.113,100.113,0,0,0,0-39.948A98.422,98.422,0,0,0,325.709,79.62,15.263,15.263,0,1,1,351,62.53,129.5,129.5,0,0,1,243.582,264.537Z" transform="translate(-114.023 -5.431)"/></g><g class="e" transform="translate(1.908 1.908)"><path class="t" d="M243.628,263.629a129.423,129.423,0,0,1-25.9-2.613,127.981,127.981,0,0,1-46.011-19.359,128.932,128.932,0,0,1-46.578-56.57,128.058,128.058,0,0,1-7.5-24.159,129.751,129.751,0,0,1,0-51.807,127.985,127.985,0,0,1,19.36-46.011,128.946,128.946,0,0,1,56.57-46.579,128.082,128.082,0,0,1,24.16-7.5,130.277,130.277,0,0,1,51.806,0,128.082,128.082,0,0,1,24.16,7.5A14.309,14.309,0,1,1,282.542,42.89a99.315,99.315,0,0,0-18.748-5.819,101.556,101.556,0,0,0-40.332,0,99.337,99.337,0,0,0-35.728,15.035,100.335,100.335,0,0,0-36.241,44,99.442,99.442,0,0,0-5.82,18.749,101.133,101.133,0,0,0,0,40.333,99.366,99.366,0,0,0,15.036,35.727,100.32,100.32,0,0,0,44,36.241,99.358,99.358,0,0,0,18.748,5.819,101.555,101.555,0,0,0,40.332,0,99.361,99.361,0,0,0,35.728-15.036,100.3,100.3,0,0,0,36.241-44,99.331,99.331,0,0,0,5.82-18.749,101.085,101.085,0,0,0,0-40.332,99.389,99.389,0,0,0-15.035-35.727A14.309,14.309,0,1,1,350.26,63.111,128.547,128.547,0,0,1,243.628,263.629Z" transform="translate(-115.023 -6.431)"/></g><g class="f" transform="translate(2.862 2.861)"><path class="t" d="M243.674,262.721a128.555,128.555,0,0,1-25.712-2.593,127.02,127.02,0,0,1-45.668-19.216,127.987,127.987,0,0,1-46.234-56.15,127.145,127.145,0,0,1-7.444-23.979,128.789,128.789,0,0,1,0-51.425A127.04,127.04,0,0,1,137.832,63.69a127.988,127.988,0,0,1,56.15-46.234,127.034,127.034,0,0,1,23.981-7.443,129.3,129.3,0,0,1,51.423,0,127.016,127.016,0,0,1,23.979,7.443,13.355,13.355,0,1,1-10.4,24.6,100.417,100.417,0,0,0-18.929-5.875,102.53,102.53,0,0,0-40.714,0,100.317,100.317,0,0,0-36.071,15.179A101.3,101.3,0,0,0,150.66,95.784a100.411,100.411,0,0,0-5.876,18.929,102.074,102.074,0,0,0,0,40.714,100.268,100.268,0,0,0,15.18,36.069,101.266,101.266,0,0,0,44.422,36.586,100.255,100.255,0,0,0,18.929,5.875,102.5,102.5,0,0,0,40.714,0,100.3,100.3,0,0,0,36.07-15.179,101.285,101.285,0,0,0,36.585-44.422,100.237,100.237,0,0,0,5.876-18.93,102.046,102.046,0,0,0,0-40.713,100.326,100.326,0,0,0-15.18-36.07A13.356,13.356,0,0,1,349.516,63.69,127.595,127.595,0,0,1,243.674,262.721Z" transform="translate(-116.023 -7.431)"/></g><g class="g" transform="translate(3.816 3.815)"><path class="t" d="M243.72,261.813a127.576,127.576,0,0,1-25.521-2.574,126.057,126.057,0,0,1-45.325-19.072,127.024,127.024,0,0,1-45.889-55.73,126.164,126.164,0,0,1-7.387-23.8,127.815,127.815,0,0,1,0-51.042A126.073,126.073,0,0,1,138.667,64.27,127.045,127.045,0,0,1,194.4,18.381a126.159,126.159,0,0,1,23.8-7.387,128.364,128.364,0,0,1,51.041,0,126.107,126.107,0,0,1,23.8,7.387,12.4,12.4,0,0,1-9.663,22.845,101.171,101.171,0,0,0-19.109-5.932,103.469,103.469,0,0,0-41.1,0,101.293,101.293,0,0,0-36.413,15.324,102.229,102.229,0,0,0-36.931,44.842,101.247,101.247,0,0,0-5.932,19.109,103.02,103.02,0,0,0,0,41.1,101.249,101.249,0,0,0,15.324,36.413,102.216,102.216,0,0,0,44.841,36.931,101.335,101.335,0,0,0,19.109,5.932,103.486,103.486,0,0,0,41.1,0,101.269,101.269,0,0,0,36.413-15.323,102.223,102.223,0,0,0,36.931-44.842,101.3,101.3,0,0,0,5.933-19.11,103.021,103.021,0,0,0,0-41.1,101.267,101.267,0,0,0-15.324-36.413A12.4,12.4,0,0,1,348.771,64.27,126.641,126.641,0,0,1,243.72,261.813Z" transform="translate(-117.023 -8.431)"/></g><g class="h" transform="translate(4.77 4.769)"><path class="t" d="M243.766,260.9a126.583,126.583,0,0,1-25.33-2.555,125.114,125.114,0,0,1-44.982-18.927,126.081,126.081,0,0,1-45.545-55.313,125.264,125.264,0,0,1-7.332-23.618,126.9,126.9,0,0,1,0-50.66A125.137,125.137,0,0,1,139.5,64.85a126.06,126.06,0,0,1,55.314-45.545,125.151,125.151,0,0,1,23.619-7.331,127.385,127.385,0,0,1,50.657,0,125.152,125.152,0,0,1,23.619,7.331,11.448,11.448,0,0,1-8.919,21.087A102.24,102.24,0,0,0,264.5,34.4a104.443,104.443,0,0,0-41.479,0A102.254,102.254,0,0,0,186.27,49.872,103.179,103.179,0,0,0,149,95.133a102.312,102.312,0,0,0-5.988,19.29,103.987,103.987,0,0,0,0,41.479,102.214,102.214,0,0,0,15.468,36.755,103.18,103.18,0,0,0,45.261,37.275,102.248,102.248,0,0,0,19.289,5.987,104.408,104.408,0,0,0,41.479,0,102.189,102.189,0,0,0,36.755-15.468,103.167,103.167,0,0,0,37.275-45.26,102.211,102.211,0,0,0,5.988-19.291,103.937,103.937,0,0,0,0-41.478,102.2,102.2,0,0,0-15.468-36.756A11.447,11.447,0,1,1,348.026,64.85,125.688,125.688,0,0,1,243.766,260.9Z" transform="translate(-118.023 -9.431)"/></g><g class="i" transform="translate(5.724 5.723)"><path class="t" d="M243.812,260a125.594,125.594,0,0,1-25.139-2.536,124.146,124.146,0,0,1-44.64-18.783,125.135,125.135,0,0,1-45.2-54.894,124.252,124.252,0,0,1-7.276-23.438,125.925,125.925,0,0,1,0-50.277,124.152,124.152,0,0,1,18.783-44.64,125.1,125.1,0,0,1,54.894-45.2,124.189,124.189,0,0,1,23.439-7.276,126.434,126.434,0,0,1,50.276,0,124.187,124.187,0,0,1,23.439,7.276,10.494,10.494,0,0,1-8.175,19.329,103.245,103.245,0,0,0-19.47-6.044,105.4,105.4,0,0,0-41.862,0,103.195,103.195,0,0,0-37.1,15.613,104.143,104.143,0,0,0-37.619,45.679,103.273,103.273,0,0,0-6.044,19.47,104.955,104.955,0,0,0,0,41.862,103.174,103.174,0,0,0,15.614,37.1,104.122,104.122,0,0,0,45.679,37.619A103.254,103.254,0,0,0,222.88,236.9a105.365,105.365,0,0,0,41.862,0,103.15,103.15,0,0,0,37.1-15.612,104.129,104.129,0,0,0,37.62-45.68,103.186,103.186,0,0,0,6.044-19.47,104.909,104.909,0,0,0,0-41.862,103.213,103.213,0,0,0-15.612-37.1,10.493,10.493,0,0,1,17.391-11.748A124.732,124.732,0,0,1,243.812,260Z" transform="translate(-119.023 -10.431)"/></g><g class="j" transform="translate(6.678 6.677)"><path class="t" d="M243.858,259.089a124.675,124.675,0,0,1-24.947-2.516,123.225,123.225,0,0,1-44.3-18.639,124.165,124.165,0,0,1-44.855-54.475,123.324,123.324,0,0,1-7.22-23.259,124.957,124.957,0,0,1,0-49.894,123.225,123.225,0,0,1,18.639-44.3,124.179,124.179,0,0,1,54.476-44.855,123.28,123.28,0,0,1,23.258-7.219,125.482,125.482,0,0,1,49.894,0,123.278,123.278,0,0,1,23.258,7.219,9.54,9.54,0,0,1-7.432,17.572,104.23,104.23,0,0,0-19.651-6.1,106.351,106.351,0,0,0-42.243,0,104.111,104.111,0,0,0-37.442,15.757,105.1,105.1,0,0,0-37.964,46.1,104.144,104.144,0,0,0-6.1,19.651,105.876,105.876,0,0,0,0,42.244,104.115,104.115,0,0,0,15.757,37.441,105.093,105.093,0,0,0,46.1,37.964,104.183,104.183,0,0,0,19.651,6.1,106.356,106.356,0,0,0,42.244,0,104.115,104.115,0,0,0,37.441-15.757,105.074,105.074,0,0,0,37.964-46.1,104.118,104.118,0,0,0,6.1-19.652,105.872,105.872,0,0,0,0-42.243,104.158,104.158,0,0,0-15.757-37.441A9.54,9.54,0,1,1,346.537,66.01a123.78,123.78,0,0,1-102.68,193.079Z" transform="translate(-120.023 -11.431)"/></g><g class="k" transform="translate(7.632 7.631)"><path class="t" d="M243.9,258.181a123.693,123.693,0,0,1-24.756-2.5,122.245,122.245,0,0,1-43.954-18.494,123.214,123.214,0,0,1-44.511-54.056,122.326,122.326,0,0,1-7.163-23.077,124.012,124.012,0,0,1,0-49.512,122.251,122.251,0,0,1,18.5-43.954A123.21,123.21,0,0,1,196.07,22.079a122.353,122.353,0,0,1,23.078-7.163,124.521,124.521,0,0,1,49.511,0,122.324,122.324,0,0,1,23.077,7.163,8.585,8.585,0,1,1-6.688,15.815,105.1,105.1,0,0,0-19.831-6.155,107.313,107.313,0,0,0-42.627,0,105.057,105.057,0,0,0-37.784,15.9A106.045,106.045,0,0,0,146.5,94.156a105.138,105.138,0,0,0-6.156,19.832,106.841,106.841,0,0,0,0,42.626,105.1,105.1,0,0,0,15.9,37.785,106.051,106.051,0,0,0,46.517,38.308,105.072,105.072,0,0,0,19.831,6.155,107.273,107.273,0,0,0,42.626,0A105.053,105.053,0,0,0,303,222.962a106.037,106.037,0,0,0,38.308-46.517,105.047,105.047,0,0,0,6.156-19.831,106.8,106.8,0,0,0,0-42.626,105.076,105.076,0,0,0-15.9-37.785,8.585,8.585,0,1,1,14.228-9.612A122.826,122.826,0,0,1,243.9,258.181Z" transform="translate(-121.023 -12.431)"/></g><g class="l" transform="translate(8.586 8.585)"><path class="t" d="M243.95,257.273a122.762,122.762,0,0,1-24.565-2.477,121.28,121.28,0,0,1-43.611-18.35,122.272,122.272,0,0,1-44.167-53.636,121.421,121.421,0,0,1-7.108-22.9,123.068,123.068,0,0,1,0-49.129,121.3,121.3,0,0,1,18.351-43.611A122.265,122.265,0,0,1,196.488,23a121.357,121.357,0,0,1,22.9-7.107,123.6,123.6,0,0,1,49.129,0A121.355,121.355,0,0,1,291.411,23a7.632,7.632,0,1,1-5.946,14.059,106.067,106.067,0,0,0-20.011-6.212,108.264,108.264,0,0,0-43.008,0A106.042,106.042,0,0,0,184.319,46.9a107,107,0,0,0-38.654,46.936,106.136,106.136,0,0,0-6.212,20.011,107.814,107.814,0,0,0,0,43.009A106.026,106.026,0,0,0,155.5,194.978a106.989,106.989,0,0,0,46.935,38.654,106.016,106.016,0,0,0,20.011,6.211,108.252,108.252,0,0,0,43.009,0A106.023,106.023,0,0,0,303.58,223.8a107,107,0,0,0,38.654-46.936,106.008,106.008,0,0,0,6.212-20.012,107.762,107.762,0,0,0,0-43.008A106.015,106.015,0,0,0,332.4,75.715a7.632,7.632,0,0,1,12.648-8.545,121.87,121.87,0,0,1-101.1,190.1Z" transform="translate(-122.023 -13.431)"/></g><g class="m" transform="translate(9.54 9.539)"><path class="t" d="M244,256.365a121.85,121.85,0,0,1-24.374-2.457A120.358,120.358,0,0,1,176.353,235.7a121.313,121.313,0,0,1-43.821-53.219,120.448,120.448,0,0,1-7.052-22.717,122.1,122.1,0,0,1,0-48.746,120.358,120.358,0,0,1,18.206-43.269,121.315,121.315,0,0,1,53.219-43.822,120.449,120.449,0,0,1,22.718-7.051,122.607,122.607,0,0,1,48.746,0,120.418,120.418,0,0,1,22.717,7.051,6.678,6.678,0,0,1-5.2,12.3,106.99,106.99,0,0,0-20.193-6.268,109.221,109.221,0,0,0-43.391,0A107.027,107.027,0,0,0,183.83,46.15a107.952,107.952,0,0,0-39,47.355,106.986,106.986,0,0,0-6.268,20.192,108.736,108.736,0,0,0,0,43.392,106.964,106.964,0,0,0,16.189,38.469,107.953,107.953,0,0,0,47.355,39,106.979,106.979,0,0,0,20.192,6.268,109.221,109.221,0,0,0,43.391,0,106.964,106.964,0,0,0,38.469-16.189,107.94,107.94,0,0,0,39-47.354,107.022,107.022,0,0,0,6.268-20.192,108.733,108.733,0,0,0,0-43.392,106.982,106.982,0,0,0-16.189-38.469A6.677,6.677,0,1,1,344.3,67.751,120.917,120.917,0,0,1,244,256.365Z" transform="translate(-123.023 -14.431)"/></g><g class="n" transform="translate(10.494 10.492)"><path class="t" d="M244.042,255.457a120.853,120.853,0,0,1-24.182-2.438,119.392,119.392,0,0,1-42.926-18.062,120.356,120.356,0,0,1-43.477-52.8,119.481,119.481,0,0,1-7-22.536,121.136,121.136,0,0,1,0-48.365,119.379,119.379,0,0,1,18.062-42.925,120.328,120.328,0,0,1,52.8-43.477,119.389,119.389,0,0,1,22.536-7,121.638,121.638,0,0,1,48.364,0,119.387,119.387,0,0,1,22.536,7A5.723,5.723,0,1,1,286.3,35.4a107.983,107.983,0,0,0-20.372-6.323,110.2,110.2,0,0,0-43.774,0,107.944,107.944,0,0,0-38.813,16.333A108.9,108.9,0,0,0,144,93.18a107.971,107.971,0,0,0-6.324,20.372,109.7,109.7,0,0,0,0,43.774,107.948,107.948,0,0,0,16.333,38.812,108.9,108.9,0,0,0,47.773,39.342,107.988,107.988,0,0,0,20.372,6.323,110.146,110.146,0,0,0,43.774,0,107.924,107.924,0,0,0,38.812-16.332A108.9,108.9,0,0,0,344.083,177.7a107.918,107.918,0,0,0,6.324-20.373,109.652,109.652,0,0,0,0-43.773,107.964,107.964,0,0,0-16.333-38.813,5.724,5.724,0,0,1,9.486-6.408,119.964,119.964,0,0,1-99.518,187.126Z" transform="translate(-124.023 -15.43)"/></g><g class="o" transform="translate(11.448 11.447)"><path class="t" d="M244.088,254.549A119.877,119.877,0,0,1,220.1,252.13a118.434,118.434,0,0,1-42.583-17.917,119.413,119.413,0,0,1-43.132-52.381,118.519,118.519,0,0,1-6.94-22.356,120.212,120.212,0,0,1,0-47.982,118.422,118.422,0,0,1,17.919-42.582,119.4,119.4,0,0,1,52.38-43.133A118.526,118.526,0,0,1,220.1,18.839a120.73,120.73,0,0,1,47.98,0,118.5,118.5,0,0,1,22.356,6.939,4.77,4.77,0,0,1-3.716,8.786,109.028,109.028,0,0,0-20.553-6.379,111.134,111.134,0,0,0-44.156,0,108.884,108.884,0,0,0-39.155,16.477,109.86,109.86,0,0,0-39.687,48.192,109.051,109.051,0,0,0-6.38,20.552,110.673,110.673,0,0,0,0,44.157,108.907,108.907,0,0,0,16.478,39.155,109.86,109.86,0,0,0,48.192,39.687,108.9,108.9,0,0,0,20.552,6.379,111.135,111.135,0,0,0,44.156,0,108.865,108.865,0,0,0,39.155-16.477,109.839,109.839,0,0,0,39.687-48.192,108.824,108.824,0,0,0,6.38-20.552,110.625,110.625,0,0,0,0-44.157,108.93,108.93,0,0,0-16.477-39.155,4.769,4.769,0,0,1,7.9-5.339,119.01,119.01,0,0,1-98.727,185.638Z" transform="translate(-125.023 -16.431)"/></g><g class="p" transform="translate(12.402 12.401)"><path class="t" d="M244.134,253.641a118.948,118.948,0,0,1-23.8-2.4,117.49,117.49,0,0,1-42.24-17.774,118.443,118.443,0,0,1-42.788-51.962,117.531,117.531,0,0,1-6.884-22.175,119.247,119.247,0,0,1,0-47.6A117.489,117.489,0,0,1,146.2,69.491,118.442,118.442,0,0,1,198.159,26.7a117.531,117.531,0,0,1,22.176-6.883,119.778,119.778,0,0,1,47.6,0A117.531,117.531,0,0,1,290.109,26.7a3.816,3.816,0,1,1-2.973,7.029A109.939,109.939,0,0,0,266.4,27.3a112.09,112.09,0,0,0-44.539,0,109.831,109.831,0,0,0-39.5,16.621,110.818,110.818,0,0,0-40.032,48.611,109.9,109.9,0,0,0-6.435,20.733,111.594,111.594,0,0,0,0,44.54,109.837,109.837,0,0,0,16.621,39.5,110.819,110.819,0,0,0,48.611,40.032,109.9,109.9,0,0,0,20.733,6.435,112.091,112.091,0,0,0,44.539,0,109.849,109.849,0,0,0,39.5-16.621,110.823,110.823,0,0,0,40.031-48.611,109.91,109.91,0,0,0,6.436-20.733,111.589,111.589,0,0,0,0-44.539,109.874,109.874,0,0,0-16.622-39.5,3.816,3.816,0,0,1,6.324-4.273,118.055,118.055,0,0,1-97.937,184.151Z" transform="translate(-126.023 -17.431)"/></g><g class="q" transform="translate(13.355 13.355)"><path class="t" d="M244.18,252.733a117.969,117.969,0,0,1-23.609-2.38,116.511,116.511,0,0,1-41.9-17.63,117.5,117.5,0,0,1-42.444-51.543,116.618,116.618,0,0,1-6.827-22,118.278,118.278,0,0,1,0-47.217,116.53,116.53,0,0,1,17.63-41.9,117.5,117.5,0,0,1,51.543-42.444,116.625,116.625,0,0,1,22-6.828,118.817,118.817,0,0,1,47.215,0,116.594,116.594,0,0,1,22,6.828,2.862,2.862,0,0,1-2.229,5.273,110.866,110.866,0,0,0-20.914-6.493,113.082,113.082,0,0,0-44.921,0,110.84,110.84,0,0,0-39.84,16.766A111.776,111.776,0,0,0,141.5,92.2a110.863,110.863,0,0,0-6.492,20.913,112.562,112.562,0,0,0,0,44.922,110.776,110.776,0,0,0,16.766,39.84,111.755,111.755,0,0,0,49.03,40.376,110.878,110.878,0,0,0,20.913,6.492,113.083,113.083,0,0,0,44.921,0,110.8,110.8,0,0,0,39.84-16.765,111.769,111.769,0,0,0,40.376-49.03,110.857,110.857,0,0,0,6.493-20.914,112.559,112.559,0,0,0,0-44.922,110.84,110.84,0,0,0-16.766-39.84,2.862,2.862,0,0,1,4.743-3.2A117.1,117.1,0,0,1,244.18,252.733Z" transform="translate(-127.023 -18.431)"/></g><g transform="translate(14.309 14.309)"><path class="t" d="M244.226,251.826a117.036,117.036,0,0,1-23.417-2.361,115.566,115.566,0,0,1-41.555-17.485,116.535,116.535,0,0,1-42.1-51.125,115.688,115.688,0,0,1-6.772-21.815,117.352,117.352,0,0,1,0-46.834,115.589,115.589,0,0,1,17.486-41.555,116.54,116.54,0,0,1,51.125-42.1,115.561,115.561,0,0,1,21.815-6.772,117.865,117.865,0,0,1,46.834,0,115.585,115.585,0,0,1,21.815,6.772,1.908,1.908,0,1,1-1.487,3.513,111.792,111.792,0,0,0-21.093-6.547,114,114,0,0,0-45.3,0A111.733,111.733,0,0,0,181.39,42.428,112.726,112.726,0,0,0,140.67,91.877a111.882,111.882,0,0,0-6.548,21.094,113.527,113.527,0,0,0,0,45.3,111.757,111.757,0,0,0,16.91,40.184,112.725,112.725,0,0,0,49.449,40.721,111.8,111.8,0,0,0,21.094,6.547,114,114,0,0,0,45.3,0,111.738,111.738,0,0,0,40.183-16.909,112.705,112.705,0,0,0,40.721-49.449,111.746,111.746,0,0,0,6.548-21.094,113.482,113.482,0,0,0,0-45.3A111.778,111.778,0,0,0,337.42,72.787a1.908,1.908,0,1,1,3.161-2.136,116.148,116.148,0,0,1-96.356,181.174Z" transform="translate(-128.023 -19.431)"/></g><g transform="translate(15.581 15.58)"><path class="r" d="M244.287,250.614a115.774,115.774,0,0,1-23.162-2.334,114.3,114.3,0,0,1-41.1-17.293,115.265,115.265,0,0,1-41.639-50.566,114.377,114.377,0,0,1-6.7-21.575,116.034,116.034,0,0,1,0-46.324,114.282,114.282,0,0,1,17.293-41.1A115.264,115.264,0,0,1,199.55,29.786a114.33,114.33,0,0,1,21.575-6.7,116.592,116.592,0,0,1,46.324,0,114.3,114.3,0,0,1,21.574,6.7.635.635,0,0,1-.5,1.171,113.053,113.053,0,0,0-21.334-6.621,115.276,115.276,0,0,0-45.813,0,113,113,0,0,0-40.641,17.1A114,114,0,0,0,139.56,91.443a113.109,113.109,0,0,0-6.622,21.334,114.8,114.8,0,0,0,0,45.814,113.043,113.043,0,0,0,17.1,40.641,114,114,0,0,0,50.008,41.18,113.037,113.037,0,0,0,21.334,6.622,115.312,115.312,0,0,0,45.813,0,113.026,113.026,0,0,0,40.641-17.1,113.981,113.981,0,0,0,41.181-50.008,113.05,113.05,0,0,0,6.621-21.333,114.754,114.754,0,0,0,0-45.814,113,113,0,0,0-17.1-40.641.636.636,0,1,1,1.053-.712,114.873,114.873,0,0,1-95.3,179.189Z" transform="translate(-129.356 -20.764)"/></g></g></g></svg>