<svg xmlns="http://www.w3.org/2000/svg" width="26.7" height="23.363" viewBox="0 0 26.7 23.363"><defs><style>.a{fill:#a7a7a7;}</style></defs><path class="a" d="M26.7,8.091V23.11a2.5,2.5,0,0,1-2.5,2.5H2.5A2.5,2.5,0,0,1,0,23.11V8.091a2.5,2.5,0,0,1,2.5-2.5H7.092l.641-1.716A2.5,2.5,0,0,1,10.075,2.25H16.62a2.5,2.5,0,0,1,2.341,1.622l.647,1.716H24.2A2.5,2.5,0,0,1,26.7,8.091ZM19.608,15.6a6.258,6.258,0,1,0-6.258,6.258A6.263,6.263,0,0,0,19.608,15.6Zm-1.669,0a4.589,4.589,0,1,1-4.589-4.589A4.6,4.6,0,0,1,17.939,15.6Z" transform="translate(0 -2.25)"/></svg>