<svg xmlns="http://www.w3.org/2000/svg" width="21.311" height="20.765" viewBox="0 0 21.311 20.765">
  <g id="Group_2162" data-name="Group 2162" transform="translate(-33 -449)">
    <rect id="Rectangle_3100" data-name="Rectangle 3100" width="18" height="13" transform="translate(35 456)" fill="#fff"/>
    <g id="Group_2161" data-name="Group 2161" transform="translate(33 443.2)">
      <g id="Group_2160" data-name="Group 2160" transform="translate(0 5.8)">
        <path id="Path_2710" data-name="Path 2710" d="M19.764,10.711H13.176l2.339-3.838a.706.706,0,0,0-1.205-.734l-2.787,4.573H9.787L7,6.138a.706.706,0,0,0-1.205.734l2.339,3.838H1.546A1.548,1.548,0,0,0,0,12.257V25.019a1.548,1.548,0,0,0,1.546,1.546H19.765a1.548,1.548,0,0,0,1.546-1.546V12.257A1.548,1.548,0,0,0,19.764,10.711Zm-4.82,12.453a.84.84,0,0,1-.84.84H3.349a.84.84,0,0,1-.84-.84V14.112a.84.84,0,0,1,.84-.84H14.1a.84.84,0,0,1,.84.84Zm3.11-.269a1.458,1.458,0,1,1,1.458-1.458A1.46,1.46,0,0,1,18.055,22.9Zm0-5.6a1.458,1.458,0,1,1,1.458-1.458A1.46,1.46,0,0,1,18.055,17.3Z" transform="translate(0 -5.8)" fill="#dd2735"/>
      </g>
    </g>
  </g>
</svg>
