<svg xmlns="http://www.w3.org/2000/svg" xmlns:xlink="http://www.w3.org/1999/xlink" width="303.078" height="357.117" viewBox="0 0 303.078 357.117">
  <defs>
    <clipPath id="clip-path">
      <ellipse id="Ellipse_58" data-name="Ellipse 58" cx="9.946" cy="40.987" rx="9.946" ry="40.987" transform="translate(0 3.384) rotate(-9.795)" fill="#f8eee2" stroke="#090909" stroke-linecap="round" stroke-linejoin="round" stroke-width="1"/>
    </clipPath>
  </defs>
  <g id="cm" transform="translate(-62.164 -35.172)">
    <g id="Group_2162" data-name="Group 2162" transform="translate(62.164 169.505)">
      <rect id="Rectangle_3141" data-name="Rectangle 3141" width="139.616" height="18.675" transform="translate(35.587 204.11)" fill="#181c63"/>
      <g id="Group_2161" data-name="Group 2161">
        <path id="Path_2703" data-name="Path 2703" d="M262.027,294.546a4.95,4.95,0,0,0,4.564-7.146l-26.02-52.507a32.752,32.752,0,0,0-1.9-3.833l0-.007h0a32.755,32.755,0,0,0-26.512-16.28l-73.708-4.143-.024-.033-.548.01-.118,0c-.08,0-.157.011-.238.012l-12.212.232c-21.34.406-40.574,14.223-46.472,34.736q-.357,1.242-.65,2.51L62.9,299.953a5.735,5.735,0,0,0,5.212,7.348l36.719,1.851-11.819,98.1a6.456,6.456,0,0,0,6.41,7.229h139.1a5.638,5.638,0,0,0,5.637-5.72L244.1,294.038Z" transform="translate(-62.28 -210.214)" fill="#dd2735"/>
        <path id="Path_2704" data-name="Path 2704" d="M238.4,414.747H99.306a6.84,6.84,0,0,1-6.792-7.659l11.77-97.689-36.308-1.831a6.118,6.118,0,0,1-5.56-7.84L77.7,247.87c.191-.827.412-1.678.65-2.507,5.809-20.2,25.067-34.6,46.834-35.014l12.307-.237c.05,0,.1-.007.151-.007l.133.005.527-.011a.342.342,0,0,1,.18.041l73.58,4.136a33.1,33.1,0,0,1,26.824,16.469,33.523,33.523,0,0,1,1.925,3.884l26.01,52.485a5.333,5.333,0,0,1-4.917,7.7h0l-17.528-.5.051,114.326a6.023,6.023,0,0,1-6.022,6.1ZM137.628,210.872l-.082.005c-.045,0-.091.006-.138.007l-12.208.232c-21.433.408-40.4,14.577-46.111,34.458-.235.817-.452,1.655-.645,2.491l-15.29,51.881a5.35,5.35,0,0,0,4.863,6.856l36.719,1.852a.381.381,0,0,1,.361.429l-11.818,98.1a6.073,6.073,0,0,0,6.029,6.8H238.4a5.254,5.254,0,0,0,5.254-5.33L243.6,293.921a.381.381,0,0,1,.116-.275.366.366,0,0,1,.279-.109l17.922.508a4.471,4.471,0,0,0,3.966-2.106,4.532,4.532,0,0,0,.243-4.485l-26.02-52.506a32.891,32.891,0,0,0-1.888-3.811,32.34,32.34,0,0,0-26.206-16.1L138.31,210.9a.391.391,0,0,1-.128-.03l-.414.008Z" transform="translate(-62.164 -210.097)" fill="#090909"/>
      </g>
    </g>
    <g id="Group_2184" data-name="Group 2184" transform="translate(235.266 56.503)">
      <g id="Group_2164" data-name="Group 2164" transform="translate(6.616 87.722)">
        <g id="Group_2163" data-name="Group 2163">
          <path id="Path_2705" data-name="Path 2705" d="M338.423,239.4c4.506-8.258,6.041-18.239,1.991-27l-5.185,1.89s-4.964-14.3-5.766-24.741c-1.993-3.552-16.412,3.94-16.412,3.94l2.147-5.846c.759-2.066,1.53-4.267,1.076-6.421s-2.664-4.089-4.755-3.405c-2.058.673-5.957,9.2-7.186,11.213-7.4,12.085-7.306,27.894-6.007,41.558.693,7.282-2.6,82.268-1.345,85.6,7.591,20.1,35.882,20.509,44.043.632h0a54.455,54.455,0,0,0,1.785-11.919c.087-2.31-3.383-23.642-3.383-23.642s-5.457-30.98-5.537-31.925c-.194-2.308.9-4.338,2.165-6.27C336.873,241.814,337.762,240.608,338.423,239.4Z" transform="translate(-296.306 -177.293)" fill="#efefef"/>
          <path id="Path_2706" data-name="Path 2706" d="M319.044,331.764l-.372,0a23.63,23.63,0,0,1-22.165-15.556c-.669-1.771-.192-19.957.611-47.5.525-17.971,1.021-34.945.71-38.2-1.223-12.851-1.638-29.215,6.061-41.8.3-.482.765-1.382,1.309-2.424,2.31-4.425,4.513-8.439,6.085-8.953a3.477,3.477,0,0,1,2.843.363,5.186,5.186,0,0,1,2.407,3.327c.49,2.325-.386,4.714-1.09,6.633l-1.812,4.929c3.381-1.682,14.165-6.706,16.05-3.344a.391.391,0,0,1,.048.158c.717,9.347,4.844,21.967,5.62,24.275l4.817-1.756a.386.386,0,0,1,.48.2c3.765,8.142,3.036,18.107-2,27.342-.471.863-1.063,1.735-1.636,2.578-.25.368-.5.738-.748,1.114-1.388,2.12-2.278,3.956-2.1,6.027.035.419.708,4.228,1.64,9.5,2.6,14.71,7.432,42.09,7.281,46.114a54.908,54.908,0,0,1-1.8,12A23.621,23.621,0,0,1,319.044,331.764Zm-6.763-153.82a2.454,2.454,0,0,0-.76.121c-1.4.46-4.161,5.741-5.642,8.578-.574,1.1-1.027,1.966-1.335,2.47-7.58,12.387-7.163,28.59-5.952,41.322.313,3.3-.182,20.3-.707,38.294-.621,21.3-1.325,45.444-.661,47.2a23.289,23.289,0,0,0,43.33.623,54.254,54.254,0,0,0,1.756-11.789c.149-3.941-4.677-31.27-7.27-45.952-.968-5.488-1.609-9.115-1.647-9.569-.205-2.424.948-4.563,2.226-6.513.247-.378.5-.752.755-1.124.588-.865,1.144-1.683,1.6-2.513h0c4.853-8.9,5.621-18.472,2.125-26.331l-4.851,1.768a.384.384,0,0,1-.495-.234c-.049-.144-4.96-14.383-5.778-24.747-1.458-2.213-10.466,1.358-15.859,4.161a.384.384,0,0,1-.538-.473l2.148-5.846c.67-1.827,1.505-4.1,1.06-6.21a4.454,4.454,0,0,0-2.039-2.821A2.954,2.954,0,0,0,312.281,177.944Z" transform="translate(-296.189 -177.178)" fill="#090909"/>
        </g>
        <path id="Path_2707" data-name="Path 2707" d="M314.269,204.181l13.422,13.376,10.028-19.482-2.139-8.851-18.226,6.769Z" transform="translate(-300.384 -179.973)" fill="#181c63"/>
      </g>
      <g id="Group_2175" data-name="Group 2175">
        <g id="Group_2174" data-name="Group 2174">
          <g id="Group_2173" data-name="Group 2173">
            <g id="Group_2172" data-name="Group 2172">
              <g id="Group_2165" data-name="Group 2165" transform="translate(27.628 83.531)">
                <path id="Path_2708" data-name="Path 2708" d="M337.835,220.432h0a6.6,6.6,0,0,1-7.624-5.379l-6.061-35.111a6.6,6.6,0,0,1,5.379-7.624h0a6.6,6.6,0,0,1,7.625,5.379l6.061,35.111A6.6,6.6,0,0,1,337.835,220.432Z" transform="translate(-323.667 -171.836)" fill="#dd2735"/>
                <path id="Path_2709" data-name="Path 2709" d="M336.581,220.8a6.988,6.988,0,0,1-6.866-5.8l-6.061-35.111a6.982,6.982,0,1,1,13.761-2.375l6.062,35.111a6.99,6.99,0,0,1-5.693,8.067A7.087,7.087,0,0,1,336.581,220.8Zm-6.034-48.31a6.3,6.3,0,0,0-1.07.092,6.211,6.211,0,0,0-5.066,7.18l6.061,35.111a6.214,6.214,0,0,0,7.181,5.066h0a6.221,6.221,0,0,0,5.066-7.18l-6.062-35.111a6.216,6.216,0,0,0-6.11-5.158Z" transform="translate(-323.55 -171.72)" fill="#090909"/>
              </g>
              <g id="Group_2166" data-name="Group 2166" transform="translate(21.921 76.798)">
                <rect id="Rectangle_3142" data-name="Rectangle 3142" width="21.708" height="12.114" rx="6.057" transform="translate(0 3.693) rotate(-9.795)" fill="#fff9f3"/>
                <path id="Path_2710" data-name="Path 2710" d="M322.1,178.343a5.075,5.075,0,0,1-4.989-4.2l-.468-2.712a5.072,5.072,0,0,1,4.13-5.853l12.166-2.1a5.072,5.072,0,0,1,5.853,4.129l.468,2.712a5.071,5.071,0,0,1-4.13,5.852h0l-12.166,2.1A5.082,5.082,0,0,1,322.1,178.343Zm11.7-14.175a4.332,4.332,0,0,0-.733.063l-12.166,2.1a4.3,4.3,0,0,0-3.5,4.966l.468,2.712a4.3,4.3,0,0,0,4.966,3.5l12.165-2.1a4.3,4.3,0,0,0,3.5-4.966l-.468-2.712A4.305,4.305,0,0,0,333.8,164.168Zm1.262,11.623h0Z" transform="translate(-316.223 -163.056)" fill="#090909"/>
              </g>
              <g id="Group_2167" data-name="Group 2167" transform="translate(0 65.995)">
                <path id="Path_2757" data-name="Path 2757" d="M3.182,0h3.6V7.026h-3.6A3.182,3.182,0,0,1,0,3.844V3.182A3.182,3.182,0,0,1,3.182,0Z" transform="matrix(0.985, -0.17, 0.17, 0.985, 0, 1.537)" fill="#efefef"/>
                <path id="Path_2711" data-name="Path 2711" d="M291.389,157.235a3.568,3.568,0,0,1-3.506-2.96l-.113-.652a3.569,3.569,0,0,1,2.907-4.12l3.544-.612a.385.385,0,0,1,.445.313l1.195,6.924a.381.381,0,0,1-.065.286.385.385,0,0,1-.248.157l-3.544.611A3.615,3.615,0,0,1,291.389,157.235Zm2.585-7.523-3.166.547a2.8,2.8,0,0,0-2.281,3.233l.113.652a2.8,2.8,0,0,0,3.233,2.282l3.165-.547Z" transform="translate(-287.607 -148.885)" fill="#090909"/>
              </g>
              <g id="Group_2168" data-name="Group 2168" transform="translate(2.935 45.46)">
                <path id="Rectangle_3144" data-name="Rectangle 3144" d="M18.425,0H35.552a0,0,0,0,1,0,0V36.85a0,0,0,0,1,0,0H18.425A18.425,18.425,0,0,1,0,18.425v0A18.425,18.425,0,0,1,18.425,0Z" transform="translate(0 6.432) rotate(-9.795)" fill="#dd2735"/>
                <path id="Path_2712" data-name="Path 2712" d="M311.93,162.68a17.1,17.1,0,0,1-16.816-14.169l-.591-3.424a17.091,17.091,0,0,1,13.919-19.727l18.59-3.209a.387.387,0,0,1,.444.313l6.269,36.313a.386.386,0,0,1-.313.444l-18.589,3.208A17.034,17.034,0,0,1,311.93,162.68Zm14.854-39.707-18.211,3.143a16.323,16.323,0,0,0-13.292,18.84l.591,3.424a16.322,16.322,0,0,0,18.841,13.292l18.21-3.144Z" transform="translate(-292.063 -122.145)" fill="#090909"/>
              </g>
              <path id="Path_2713" data-name="Path 2713" d="M337.016,109.558h0l6.269,36.313h0a69.8,69.8,0,0,1,42.481,6.107l29.348,14.3L397.846,66.251,374.99,89.561A69.8,69.8,0,0,1,337.016,109.558Z" transform="translate(-299.047 -63.715)" fill="#efefef" stroke="#090909" stroke-linecap="round" stroke-linejoin="round" stroke-width="1"/>
              <path id="Path_2758" data-name="Path 2758" d="M12.376,0c6.835,0,12.376,22.833,12.376,51s-5.541,51-12.376,51S0,79.165,0,51,5.541,0,12.376,0Z" transform="translate(87.655 4.211) rotate(-9.795)" fill="#efefef" stroke="#090909" stroke-linecap="round" stroke-width="1"/>
              <g id="Group_2170" data-name="Group 2170" transform="translate(91.752 9.319)">
                <ellipse id="Ellipse_57" data-name="Ellipse 57" cx="9.946" cy="40.987" rx="9.946" ry="40.987" transform="translate(0 3.384) rotate(-9.795)" fill="#efefef"/>
                <g id="Group_2169" data-name="Group 2169" clip-path="url(#clip-path)">
                  <path id="Path_2714" data-name="Path 2714" d="M401.694,122.2l13.014-2.247a9.768,9.768,0,0,1,11.286,7.963h0a9.767,9.767,0,0,1-7.963,11.286l-13.014,2.247Z" transform="translate(-405.808 -85.462)" fill="#dd2735" stroke="#090909" stroke-linecap="round" stroke-linejoin="round" stroke-width="1"/>
                </g>
                <ellipse id="Ellipse_59" data-name="Ellipse 59" cx="9.946" cy="40.987" rx="9.946" ry="40.987" transform="translate(0 3.384) rotate(-9.795)" fill="none" stroke="#090909" stroke-linecap="round" stroke-linejoin="round" stroke-width="1"/>
              </g>
              <g id="Group_2171" data-name="Group 2171" transform="translate(41.428 44.683)">
                <line id="Line_1" data-name="Line 1" x2="6.085" y2="36.559" transform="translate(0.384 0.384)" fill="#f8eee2"/>
                <path id="Path_2715" data-name="Path 2715" d="M347.988,158.461a.384.384,0,0,1-.378-.321l-6.085-36.559a.384.384,0,0,1,.758-.126l6.085,36.559a.384.384,0,0,1-.316.442A.35.35,0,0,1,347.988,158.461Z" transform="translate(-341.52 -121.133)" fill="#090909"/>
              </g>
            </g>
          </g>
        </g>
      </g>
      <g id="Group_2181" data-name="Group 2181" transform="translate(29.579 90.185)">
        <g id="Group_2180" data-name="Group 2180">
          <g id="Group_2176" data-name="Group 2176" transform="translate(2.617 8.955)">
            <path id="Path_2756" data-name="Path 2756" d="M4.443,0h13.91A4.444,4.444,0,0,1,22.8,4.444V4.6a4.444,4.444,0,0,1-4.444,4.444H4.443A4.443,4.443,0,0,1,0,4.6V4.443A4.443,4.443,0,0,1,4.443,0Z" transform="matrix(0.953, -0.303, 0.303, 0.953, 0, 6.898)" fill="#efefef"/>
            <path id="Path_2716" data-name="Path 2716" d="M335.358,207.039a4.852,4.852,0,0,1-4.605-3.367l-.048-.148a4.835,4.835,0,0,1,3.14-6.063l13.258-4.21a4.833,4.833,0,0,1,6.063,3.14l.047.148a4.834,4.834,0,0,1-3.14,6.063l-13.258,4.21A4.8,4.8,0,0,1,335.358,207.039Zm13.2-13.248a4.051,4.051,0,0,0-1.226.191l-13.258,4.21a4.065,4.065,0,0,0-2.64,5.1l.047.148a4.073,4.073,0,0,0,5.1,2.641l13.257-4.211a4.064,4.064,0,0,0,2.641-5.1l-.048-.149h0A4.067,4.067,0,0,0,348.561,193.791Z" transform="translate(-329.726 -192.272)" fill="#090909"/>
          </g>
          <g id="Group_2177" data-name="Group 2177">
            <path id="Path_2755" data-name="Path 2755" d="M4.444,0h13.91A4.444,4.444,0,0,1,22.8,4.444V4.6a4.445,4.445,0,0,1-4.445,4.445H4.443A4.443,4.443,0,0,1,0,4.6V4.444A4.444,4.444,0,0,1,4.444,0Z" transform="translate(0 6.902) rotate(-17.622)" fill="#efefef"/>
            <path id="Path_2717" data-name="Path 2717" d="M331.95,195.38a4.852,4.852,0,0,1-4.605-3.367l-.048-.149a4.841,4.841,0,0,1,3.14-6.062l13.257-4.211a4.832,4.832,0,0,1,6.062,3.14l.048.148a4.84,4.84,0,0,1-3.14,6.063l-13.257,4.211A4.8,4.8,0,0,1,331.95,195.38Zm13.2-13.247a4.05,4.05,0,0,0-1.226.19l-13.257,4.211a4.074,4.074,0,0,0-2.641,5.1l.048.149a4.073,4.073,0,0,0,5.1,2.641l13.256-4.211a4.074,4.074,0,0,0,2.641-5.1l-.048-.148h0A4.067,4.067,0,0,0,345.153,182.133Z" transform="translate(-326.318 -180.612)" fill="#090909"/>
          </g>
          <g id="Group_2178" data-name="Group 2178" transform="translate(7.745 18.926)">
            <path id="Path_2718" data-name="Path 2718" d="M354.283,208.592l.012.039a4.4,4.4,0,0,1-2.854,5.511l-9.044,2.872a4.4,4.4,0,0,1-5.51-2.854l-.013-.04a4.4,4.4,0,0,1,2.854-5.51l9.043-2.872A4.4,4.4,0,0,1,354.283,208.592Z" transform="translate(-336.291 -205.147)" fill="#efefef"/>
            <path id="Path_2719" data-name="Path 2719" d="M340.958,217.488a4.8,4.8,0,0,1-1.46-9.361l9.042-2.871a4.785,4.785,0,0,1,5.994,3.1l.013.039a4.785,4.785,0,0,1-3.1,5.994l-9.044,2.872A4.753,4.753,0,0,1,340.958,217.488ZM349.98,205.8a3.98,3.98,0,0,0-1.207.188l-9.042,2.871a4.026,4.026,0,0,0,2.437,7.673l9.043-2.872a4.016,4.016,0,0,0,2.6-5.029l-.013-.04a4.027,4.027,0,0,0-3.822-2.792Z" transform="translate(-336.177 -205.03)" fill="#090909"/>
          </g>
          <g id="Group_2179" data-name="Group 2179" transform="translate(13.915 26.627)">
            <path id="Path_2754" data-name="Path 2754" d="M4.444,0h4.7a4.444,4.444,0,0,1,4.444,4.444V4.6A4.445,4.445,0,0,1,9.14,9.043h-4.7A4.443,4.443,0,0,1,0,4.6V4.444A4.444,4.444,0,0,1,4.444,0Z" transform="matrix(0.953, -0.302, 0.302, 0.953, 0, 4.109)" fill="#efefef"/>
            <path id="Path_2720" data-name="Path 2720" d="M350.069,227.262a4.852,4.852,0,0,1-4.605-3.367l-.048-.148a4.841,4.841,0,0,1,3.14-6.062l4.476-1.422a4.834,4.834,0,0,1,6.064,3.14v0l.046.148A4.841,4.841,0,0,1,356,225.614l-4.478,1.421A4.8,4.8,0,0,1,350.069,227.262Zm4.423-10.459a4.051,4.051,0,0,0-1.226.19l-4.476,1.422a4.072,4.072,0,0,0-2.64,5.1l.047.149a4.072,4.072,0,0,0,5.1,2.64l4.477-1.421a4.071,4.071,0,0,0,2.639-5.1l-.046-.148S356.214,216.8,354.492,216.8Z" transform="translate(-344.438 -215.285)" fill="#090909"/>
          </g>
        </g>
      </g>
      <g id="Group_2183" data-name="Group 2183" transform="translate(14.259 87.722)">
        <g id="Group_2182" data-name="Group 2182">
          <path id="Path_2721" data-name="Path 2721" d="M315.16,194.244s1.633-4.653,2.348-6.6c.759-2.066,1.53-4.267,1.076-6.421s-2.664-4.089-4.755-3.405c-2.058.673-5.957,9.2-7.186,11.213" transform="translate(-306.258 -177.293)" fill="#f8eee2"/>
          <path id="Path_2722" data-name="Path 2722" d="M315.405,194.255l-.724-.254s1.635-4.657,2.351-6.607c.67-1.827,1.505-4.1,1.06-6.21a4.454,4.454,0,0,0-2.039-2.821,2.721,2.721,0,0,0-2.221-.3c-1.4.46-4.161,5.741-5.642,8.578-.574,1.1-1.027,1.966-1.335,2.47a.384.384,0,0,1-.655-.4c.3-.482.765-1.382,1.309-2.424,2.31-4.425,4.513-8.439,6.085-8.953a3.477,3.477,0,0,1,2.843.363,5.186,5.186,0,0,1,2.407,3.327c.49,2.325-.386,4.714-1.09,6.633C317.037,189.606,315.405,194.255,315.405,194.255Z" transform="translate(-306.142 -177.178)" fill="#090909"/>
        </g>
        <path id="Path_2723" data-name="Path 2723" d="M312.885,211.94h0a.384.384,0,0,1-.379-.389c.047-4.224,3.518-12.233,3.665-12.571a.384.384,0,1,1,.7.306c-.035.082-3.556,8.2-3.6,12.274A.384.384,0,0,1,312.885,211.94Z" transform="translate(-307.618 -182.184)" fill="#090909"/>
      </g>
    </g>
    <g id="Group_2210" data-name="Group 2210" transform="translate(140.19 35.172)">
      <g id="Group_2209" data-name="Group 2209" transform="translate(0)">
        <g id="Group_2185" data-name="Group 2185" transform="translate(4.382)">
          <path id="Path_2724" data-name="Path 2724" d="M253.287,73.77a3.415,3.415,0,0,0,.447-.789A15.25,15.25,0,0,0,241.557,47.6c-7.426-6.412-12.6-13.35-25.623-11.674A17.847,17.847,0,0,0,203.4,43.332a15.355,15.355,0,0,0-1.064,1.849c-.256.517-6.9,1.263-7.779,1.507-6.2,1.717-14.14,4.274-17.237,10.418a21.234,21.234,0,0,0-1.915,8.843,15.04,15.04,0,0,0-4.7,16.237l4.878,15.367a13.043,13.043,0,0,1,3.183-.408h6.22c.381.649.763,1.3,1.137,1.963a20.6,20.6,0,0,1,3.033,11.009c8.047-11.251,46.557-8.318,55.1-8.318a15.465,15.465,0,0,0,9.026-28.03Z" transform="translate(-169.593 -35.287)" fill="#181c63"/>
          <path id="Path_2725" data-name="Path 2725" d="M189.038,110.387a.385.385,0,0,1-.384-.4,20.162,20.162,0,0,0-2.983-10.806q-.5-.893-1.021-1.768h-6a12.71,12.71,0,0,0-3.089.4.384.384,0,0,1-.459-.256l-4.879-15.367a15.377,15.377,0,0,1,4.685-16.544,21.778,21.778,0,0,1,1.95-8.826c2.973-5.9,10.156-8.589,17.477-10.615.313-.087,1.21-.218,2.345-.386a36.293,36.293,0,0,0,5.223-.981A15.359,15.359,0,0,1,202.961,43a18.214,18.214,0,0,1,12.806-7.575c11.363-1.461,16.973,3.651,22.909,9.066.936.853,1.9,1.735,2.9,2.6a15.261,15.261,0,0,1,2,.042,15.679,15.679,0,0,1,10.37,25.937,3.453,3.453,0,0,1-.255.5,15.848,15.848,0,0,1-9.551,28.5c-1.131,0-2.753-.051-4.807-.114-12.9-.4-43.117-1.334-49.986,8.27A.382.382,0,0,1,189.038,110.387Zm-10.389-13.74h6.22a.383.383,0,0,1,.332.19c.382.65.763,1.3,1.139,1.968a21.547,21.547,0,0,1,3.089,10.105c8.162-9.012,36.228-8.145,49.932-7.722,2.047.064,3.664.114,4.783.114a15.081,15.081,0,0,0,8.8-27.335.386.386,0,0,1-.155-.252.382.382,0,0,1,.07-.286,2.993,2.993,0,0,0,.4-.7.413.413,0,0,1,.071-.117,14.865,14.865,0,0,0-11.871-24.748.364.364,0,0,1-.269-.093c-1.046-.9-2.054-1.824-3.03-2.714-6.052-5.521-11.276-10.29-22.293-8.871A17.443,17.443,0,0,0,203.6,43.434a14.684,14.684,0,0,0-1.036,1.8c-.2.4-1.021.64-5.77,1.341-1.021.151-1.985.293-2.252.366-7.15,1.979-14.158,4.586-17,10.221a20.644,20.644,0,0,0-1.874,8.685.384.384,0,0,1-.145.286,14.592,14.592,0,0,0-4.569,15.82l4.77,15.027A13.366,13.366,0,0,1,178.649,96.647Zm23.282-51.83Z" transform="translate(-169.475 -35.172)" fill="#090909"/>
        </g>
        <g id="Group_2208" data-name="Group 2208" transform="translate(0 35.008)">
          <g id="Group_2187" data-name="Group 2187" transform="translate(0 0)">
            <g id="Group_2186" data-name="Group 2186">
              <path id="Path_2726" data-name="Path 2726" d="M221.566,85.878a15.826,15.826,0,0,0-5-2.075c-4.43-.647-8.488,3.073-12.964,2.95a7.933,7.933,0,0,1-7.183-5.493,51.72,51.72,0,0,1-8.593,39.438,20.6,20.6,0,0,0-3.033-11.009c-.374-.661-.756-1.314-1.137-1.963h-6.22a13.043,13.043,0,0,0-3.183.408,13.213,13.213,0,0,0-9.99,12.765v1.286a13.212,13.212,0,0,0,13.173,13.173h3.515l-3.52,43.976a23.355,23.355,0,0,0,21.417,25.144l2.272.182a23.355,23.355,0,0,0,25.144-21.418l1.326-16.565a21.334,21.334,0,0,0,20.986-21.326V93.88a21.112,21.112,0,0,0-1.008-6.415,16.962,16.962,0,0,1-3.272,1.542C236.857,91.563,228.512,89.581,221.566,85.878Z" transform="translate(-163.884 -80.876)" fill="#efefef"/>
              <path id="Path_2727" data-name="Path 2727" d="M202.912,205q-.963,0-1.933-.078l-2.272-.182a23.738,23.738,0,0,1-21.77-25.557l3.486-43.562h-3.1a13.572,13.572,0,0,1-13.557-13.557v-1.286a13.636,13.636,0,0,1,13.557-13.557h6.22a.383.383,0,0,1,.332.19c.382.65.763,1.3,1.139,1.968a21.628,21.628,0,0,1,3.084,9.972,51.644,51.644,0,0,0,7.831-38.138.384.384,0,0,1,.745-.184,7.515,7.515,0,0,0,6.825,5.22,15.527,15.527,0,0,0,5.967-1.5c2.259-.889,4.593-1.808,7.041-1.451a14.07,14.07,0,0,1,4.568,1.817l.555.3h0c4.6,2.456,13.642,6.124,22.43,3.106a16.564,16.564,0,0,0,3.2-1.507.388.388,0,0,1,.335-.031.383.383,0,0,1,.231.243,21.545,21.545,0,0,1,1.026,6.531v51.471a21.822,21.822,0,0,1-21.016,21.7l-1.3,16.22A23.742,23.742,0,0,1,202.912,205Zm-25.587-97.01a12.869,12.869,0,0,0-12.789,12.789v1.286a12.8,12.8,0,0,0,12.789,12.789h3.515a.383.383,0,0,1,.382.415L177.7,179.248a22.97,22.97,0,0,0,21.066,24.73l2.272.182a22.97,22.97,0,0,0,24.731-21.065L227.1,166.53a.385.385,0,0,1,.377-.353,21.047,21.047,0,0,0,20.609-20.942V93.763a20.725,20.725,0,0,0-.849-5.837,17.135,17.135,0,0,1-2.923,1.328c-9.062,3.111-18.325-.64-23.041-3.154l-.56-.3a13.534,13.534,0,0,0-4.312-1.732c-2.248-.326-4.385.515-6.649,1.405a16.3,16.3,0,0,1-6.27,1.55,8.314,8.314,0,0,1-6.375-3.438,52.469,52.469,0,0,1-9.079,37.222.384.384,0,0,1-.7-.238,20.162,20.162,0,0,0-2.983-10.806q-.5-.893-1.021-1.768Z" transform="translate(-163.768 -80.759)" fill="#090909"/>
            </g>
          </g>
          <g id="Group_2207" data-name="Group 2207" transform="translate(11.342 15.355)">
            <g id="Group_2188" data-name="Group 2188" transform="translate(1.724 38.734)">
              <path id="Path_2728" data-name="Path 2728" d="M188.03,151.733l-4.149,11.348-2.6-11.388Z" transform="translate(-180.897 -151.308)" fill="#181c63"/>
              <path id="Path_2729" data-name="Path 2729" d="M183.765,163.348h-.024a.382.382,0,0,1-.35-.3l-2.6-11.389a.383.383,0,0,1,.075-.326.458.458,0,0,1,.3-.144l6.749.041a.384.384,0,0,1,.359.516L184.126,163.1A.385.385,0,0,1,183.765,163.348Zm-2.118-11.385,2.2,9.65L187.365,152Z" transform="translate(-180.781 -151.192)" fill="#090909"/>
            </g>
            <g id="Group_2189" data-name="Group 2189" transform="translate(0 20.694)">
              <path id="Path_2730" data-name="Path 2730" d="M179.037,128.2l4.831,5.376-4.52,2.947" transform="translate(-178.653 -127.817)" fill="#f8eee2"/>
              <path id="Path_2731" data-name="Path 2731" d="M179.232,136.792a.384.384,0,0,1-.21-.706l4.145-2.7-4.532-5.042a.384.384,0,0,1,.571-.513l4.831,5.376a.384.384,0,0,1-.075.578l-4.52,2.947A.386.386,0,0,1,179.232,136.792Z" transform="translate(-178.537 -127.701)" fill="#090909"/>
            </g>
            <g id="Group_2205" data-name="Group 2205" transform="translate(26.712)">
              <path id="Path_2732" data-name="Path 2732" d="M245.359,136.494h-3.692a.384.384,0,1,1,0-.768h3.692a4.105,4.105,0,0,0,4.042-4.817l-2.28-12.958a.384.384,0,1,1,.756-.132l2.281,12.958a4.873,4.873,0,0,1-4.8,5.717Z" transform="translate(-219.809 -104.64)" fill="#090909"/>
              <g id="Group_2203" data-name="Group 2203">
                <path id="Path_2733" data-name="Path 2733" d="M260.711,126.282a2.683,2.683,0,1,1-3.119-2.162A2.684,2.684,0,0,1,260.711,126.282Z" transform="translate(-223.082 -106.166)" fill="#181c63"/>
                <g id="Group_2191" data-name="Group 2191" transform="translate(16.605 54.828)">
                  <g id="Group_2190" data-name="Group 2190">
                    <path id="Path_2734" data-name="Path 2734" d="M241.553,173.693a.561.561,0,0,1-.374-.031,4.753,4.753,0,0,0-5.271.968.559.559,0,0,1-.813-.767c2.752-2.911,6.511-1.234,6.55-1.217a.559.559,0,0,1-.091,1.047Z" transform="translate(-234.943 -172.15)" fill="#090909"/>
                  </g>
                </g>
                <g id="Group_2200" data-name="Group 2200">
                  <g id="Group_2199" data-name="Group 2199">
                    <g id="Group_2198" data-name="Group 2198">
                      <g id="Group_2194" data-name="Group 2194" transform="translate(0 0.028)">
                        <g id="Group_2193" data-name="Group 2193">
                          <g id="Group_2192" data-name="Group 2192">
                            <path id="Path_2735" data-name="Path 2735" d="M215.029,110.947a10.577,10.577,0,0,0,4.294-.967c1.47-.542,2.959-1.051,4.27-1.447s2.834-.8,4.359-1.168a10.537,10.537,0,0,0,4.1-1.577c.981-.818,1.027-2.32-.815-3.594-1.747-1.253-5.56-2.037-9.906-.73-4.334,1.325-7.017,4.076-7.726,6.074C212.832,109.6,213.744,110.816,215.029,110.947Z" transform="translate(-213.32 -100.79)" fill="#181c63"/>
                          </g>
                        </g>
                      </g>
                      <g id="Group_2197" data-name="Group 2197" transform="translate(30.111)">
                        <g id="Group_2196" data-name="Group 2196">
                          <g id="Group_2195" data-name="Group 2195">
                            <path id="Path_2736" data-name="Path 2736" d="M265.657,108.746a6.873,6.873,0,0,1-3.19-.608c-1.09-.385-2.2-.74-3.168-1.01s-2.1-.538-3.237-.772a6.845,6.845,0,0,1-3.04-1.127c-.726-.636-.75-1.887.629-3.034,1.309-1.127,4.151-1.955,7.377-1.067,3.218.9,5.2,3.076,5.711,4.709C267.3,107.524,266.613,108.578,265.657,108.746Z" transform="translate(-252.53 -100.754)" fill="#181c63"/>
                          </g>
                        </g>
                      </g>
                    </g>
                  </g>
                </g>
                <path id="Path_2737" data-name="Path 2737" d="M230.13,127.205a2.936,2.936,0,1,1-2.708-3.148A2.936,2.936,0,0,1,230.13,127.205Z" transform="translate(-215.86 -106.16)" fill="#181c63"/>
                <g id="Group_2201" data-name="Group 2201" transform="translate(7.929 22.787)">
                  <path id="Path_2738" data-name="Path 2738" d="M224.144,131.658a4.182,4.182,0,0,1,5.165.362" transform="translate(-223.761 -130.541)" fill="#f8eee2"/>
                  <path id="Path_2739" data-name="Path 2739" d="M229.193,132.29a.383.383,0,0,1-.254-.1,3.778,3.778,0,0,0-4.688-.337.384.384,0,0,1-.448-.624,4.6,4.6,0,0,1,5.644.386.384.384,0,0,1-.254.671Z" transform="translate(-223.645 -130.427)" fill="#090909"/>
                </g>
                <g id="Group_2202" data-name="Group 2202" transform="translate(32.517 22.868)">
                  <path id="Path_2740" data-name="Path 2740" d="M256.163,131.5a5.81,5.81,0,0,1,4.565.047" transform="translate(-255.779 -130.65)" fill="#f8eee2"/>
                  <path id="Path_2741" data-name="Path 2741" d="M260.612,131.81a.382.382,0,0,1-.174-.041,5.438,5.438,0,0,0-4.235-.039.384.384,0,0,1-.313-.7,6.146,6.146,0,0,1,4.9.055.384.384,0,0,1-.174.726Z" transform="translate(-255.663 -130.533)" fill="#090909"/>
                </g>
              </g>
              <g id="Group_2204" data-name="Group 2204" transform="translate(5.062 31.644)">
                <path id="Path_2742" data-name="Path 2742" d="M222.488,142.883a2.67,2.67,0,0,1,3.269.315,18.255,18.255,0,0,0,10.327,4.688,1.9,1.9,0,0,1,1.365,2.731c-1.186,2.51-4.36,6.379-10.969,3.28C218.429,150.121,219.838,144.646,222.488,142.883Z" transform="translate(-220.027 -142.077)" fill="#fff9f3"/>
                <path id="Path_2743" data-name="Path 2743" d="M230.877,155.306a11.052,11.052,0,0,1-4.676-1.178c-5.189-2.434-6.16-5.422-6.276-6.987a5.23,5.23,0,0,1,2.234-4.7h0a3.044,3.044,0,0,1,3.741.352,17.847,17.847,0,0,0,10.106,4.59,2.059,2.059,0,0,1,1.591,1.064,2.412,2.412,0,0,1,.082,2.212C237.071,151.955,235.077,155.306,230.877,155.306Zm-8.292-12.22a4.449,4.449,0,0,0-1.895,4c.18,2.413,2.252,4.668,5.836,6.348,6.651,3.119,9.529-1.127,10.459-3.1a1.663,1.663,0,0,0-.056-1.507,1.282,1.282,0,0,0-1-.677,18.627,18.627,0,0,1-10.547-4.787,2.276,2.276,0,0,0-2.8-.279Z" transform="translate(-219.911 -141.96)" fill="#090909"/>
              </g>
            </g>
            <g id="Group_2206" data-name="Group 2206" transform="translate(21.923 62.012)">
              <path id="Path_2744" data-name="Path 2744" d="M237.51,190.178s-24,1.548-29.924-8.174c0,0,5.335,16.032,28.849,21.607Z" transform="translate(-207.201 -181.621)" fill="#181c63"/>
              <path id="Path_2745" data-name="Path 2745" d="M236.318,203.88a.386.386,0,0,1-.088-.011c-23.452-5.56-29.071-21.7-29.126-21.86a.384.384,0,0,1,.693-.321c5.735,9.413,29.335,8.007,29.572,7.99a.389.389,0,0,1,.3.114.384.384,0,0,1,.109.3L236.7,203.527a.384.384,0,0,1-.382.353ZM209.1,184.43c2.639,4.719,9.956,14.441,26.872,18.587l1.005-12.547C233.884,190.623,216.505,191.162,209.1,184.43Z" transform="translate(-207.085 -181.505)" fill="#090909"/>
            </g>
          </g>
        </g>
      </g>
    </g>
    <g id="Group_2216" data-name="Group 2216" transform="translate(68.397 227.517)">
      <g id="Group_2212" data-name="Group 2212" transform="translate(0)">
        <g id="Group_2211" data-name="Group 2211">
          <path id="Path_2746" data-name="Path 2746" d="M70.78,380.326l2.136-55.3,58.054,1.865c-.021.336,5.526-41.077,5.5-40.742l-5.5,40.742-7.729-.239-.774,18.4S175.1,318.136,179.6,312.71c0,0,15.233-15.19,21.315-19.313a6.95,6.95,0,0,1,2.09-1.077,2.547,2.547,0,0,1,2.245.378,3.388,3.388,0,0,1,.879,2.83c-.141,3.18-1.4,6.163-2.655,9.109.369-.119,38.837-12.862,40.954-13.4,3.644-.918,3.469,4.112.886,6.842-3.3,3.484-18.613,11.553-19.447,11.747,3.7-.137,7.234-.885,8.118,5.138.611,4.156-3.067,5.311-6.8,5.743,2.355.086,4.376.872,4.592,3.671.928,4.732-3,6.65-6.924,7.136a.11.11,0,0,0-.026.213c3.216,1.26.991,7.173-3.743,8.892l-26.46,11.157C191.913,353,121.067,406.9,121.067,406.9a31.754,31.754,0,0,1-26.292,4.843C80.566,408.115,70.837,394.99,70.78,380.326Z" transform="translate(-70.396 -285.757)" fill="#efefef"/>
          <path id="Path_2747" data-name="Path 2747" d="M102.665,413.023A32.386,32.386,0,0,1,70.28,380.209v-.016l2.136-55.3a.379.379,0,0,1,.4-.369l57.709,1.855,5.237-38.821c.058-.423.1-.754.141-1.014l.077-.564.025,0c.09-.368.181-.356.4-.336a.387.387,0,0,1,.343.414l-2.231,16.525c-.1.758-.205,1.519-.306,2.278L131.5,324.9c-.075.551-.132.971-.18,1.289l-.087.637a.378.378,0,0,1-.108.22c-.074.136-.162.128-.309.112l-.013,0-7.311-.226-.73,17.361c5.789-2.974,52.28-26.946,56.429-31.944.177-.178,15.354-15.291,21.395-19.386a7.269,7.269,0,0,1,2.209-1.13,2.922,2.922,0,0,1,2.586.453,3.62,3.62,0,0,1,1.018,3.142,24.705,24.705,0,0,1-2.354,8.463l.817-.27c30.977-10.244,38.5-12.653,39.358-12.868a2.322,2.322,0,0,1,2.851.941c.951,1.625.223,4.618-1.591,6.537-2.679,2.833-13.4,8.794-17.8,11.01,2.965-.1,5.8.3,6.569,5.555a4.584,4.584,0,0,1-.781,3.586,7.056,7.056,0,0,1-4.083,2.216,3.81,3.81,0,0,1,2.659,3.638,5.533,5.533,0,0,1-.828,4.472c-1.317,1.818-3.66,2.613-5.639,2.956a2.848,2.848,0,0,1,1.03,2.39c-.031,2.376-2.1,5.574-5.508,6.812l-26.442,11.151c-2.108.951-48.986,36.438-73.478,55.069A32.1,32.1,0,0,1,102.665,413.023ZM71.048,380.214a31.917,31.917,0,0,0,23.706,31.035,31.224,31.224,0,0,0,25.977-4.785c2.881-2.193,70.9-53.924,73.623-55.154l26.468-11.161c3.074-1.117,4.995-4.038,5.021-6.107a2.025,2.025,0,0,0-1.269-2.073.495.495,0,0,1,.117-.952c2.767-.342,4.863-1.322,5.907-2.762a4.845,4.845,0,0,0,.69-3.918c-.174-2.209-1.516-3.263-4.23-3.362a.384.384,0,0,1-.031-.766c3.047-.352,4.9-1.082,5.836-2.3a3.8,3.8,0,0,0,.629-3.007c-.758-5.163-3.41-5.029-6.779-4.853-.313.015-.628.032-.945.044a.384.384,0,0,1-.1-.758c1.006-.273,16.059-8.257,19.256-11.637,1.689-1.785,2.179-4.441,1.487-5.622-.369-.629-1.044-.824-2-.584-.844.213-8.349,2.616-39.3,12.852l-1.627.537a.384.384,0,0,1-.471-.516c1.223-2.867,2.487-5.832,2.626-8.977a2.938,2.938,0,0,0-.74-2.516,2.155,2.155,0,0,0-1.9-.3,6.629,6.629,0,0,0-1.973,1.023c-5.982,4.055-21.106,19.116-21.257,19.268-4.479,5.4-55.082,31.31-57.234,32.411a.384.384,0,0,1-.558-.359l.759-18.021L73.169,325.3Z" transform="translate(-70.28 -285.639)" fill="#090909"/>
        </g>
        <path id="Path_2748" data-name="Path 2748" d="M131.328,350.485,108.5,372l22.717-11.615Z" transform="translate(-79.15 -300.687)" fill="#181c63"/>
        <path id="Path_2749" data-name="Path 2749" d="M238.816,309.4l-14.311,6.673s13.419-10.653,16.118-11.5Z" transform="translate(-106.069 -290.032)" fill="#181c63"/>
      </g>
      <g id="Group_2213" data-name="Group 2213" transform="translate(147.113 23.2)">
        <path id="Path_2750" data-name="Path 2750" d="M262.348,319.3s8.7-2.885,10.212-2.951" transform="translate(-261.964 -315.964)" fill="#f8eee2"/>
        <path id="Path_2751" data-name="Path 2751" d="M262.232,319.566a.384.384,0,0,1-.121-.748c.357-.119,8.771-2.9,10.317-2.97a.384.384,0,0,1,.033.768c-1.195.051-7.7,2.133-10.108,2.93A.37.37,0,0,1,262.232,319.566Z" transform="translate(-261.848 -315.848)" fill="#090909"/>
      </g>
      <g id="Group_2214" data-name="Group 2214" transform="translate(149.105 34.45)">
        <line id="Line_2" data-name="Line 2" x1="8.082" y2="2.522" transform="translate(0.384 0.384)" fill="#f8eee2"/>
        <path id="Path_2752" data-name="Path 2752" d="M264.825,333.789a.384.384,0,0,1-.114-.75l8.082-2.523a.384.384,0,0,1,.23.733l-8.082,2.523A.4.4,0,0,1,264.825,333.789Z" transform="translate(-264.441 -330.498)" fill="#090909"/>
      </g>
      <g id="Group_2215" data-name="Group 2215" transform="translate(149.142 45.434)">
        <line id="Line_3" data-name="Line 3" x1="4.383" y2="1.262" transform="translate(0.384 0.385)" fill="#f8eee2"/>
        <path id="Path_2753" data-name="Path 2753" d="M264.873,346.832a.384.384,0,0,1-.106-.753l4.383-1.263a.384.384,0,1,1,.213.738l-4.383,1.263A.4.4,0,0,1,264.873,346.832Z" transform="translate(-264.49 -344.801)" fill="#090909"/>
      </g>
    </g>
  </g>
</svg>
