<svg xmlns="http://www.w3.org/2000/svg" width="19.765" height="19.765" viewBox="0 0 19.765 19.765"><defs><style>.a{fill:#fff;}.b{fill:#dd2735;}</style></defs><g transform="translate(0)"><path class="a" d="M7.618,0H1.441A1.443,1.443,0,0,0,0,1.441V5.147A1.443,1.443,0,0,0,1.441,6.588H7.618A1.443,1.443,0,0,0,9.059,5.147V1.441A1.443,1.443,0,0,0,7.618,0Zm0,0" transform="translate(0)"/><path class="b" d="M7.618,213.332H1.441A1.443,1.443,0,0,0,0,214.773v8.647a1.443,1.443,0,0,0,1.441,1.441H7.618a1.443,1.443,0,0,0,1.441-1.441v-8.647A1.443,1.443,0,0,0,7.618,213.332Zm0,0" transform="translate(0 -205.097)"/><path class="a" d="M284.95,341.332h-6.176a1.443,1.443,0,0,0-1.441,1.441v3.706a1.443,1.443,0,0,0,1.441,1.441h6.176a1.443,1.443,0,0,0,1.441-1.441v-3.706A1.443,1.443,0,0,0,284.95,341.332Zm0,0" transform="translate(-266.626 -328.155)"/><path class="b" d="M284.95,0h-6.176a1.443,1.443,0,0,0-1.441,1.441v8.647a1.443,1.443,0,0,0,1.441,1.441h6.176a1.443,1.443,0,0,0,1.441-1.441V1.441A1.443,1.443,0,0,0,284.95,0Zm0,0" transform="translate(-266.626)"/></g></svg>