<svg xmlns="http://www.w3.org/2000/svg" width="20.082" height="24.581" viewBox="0 0 20.082 24.581"><defs><style>.a{fill:#dd2735;stroke:#dd2735;stroke-width:0.5px;}</style></defs><g transform="translate(0.262 0.25)"><path class="a" d="M262.963,154.7a.564.564,0,0,0-.564.564v10.659a.564.564,0,0,0,1.128,0V155.267A.564.564,0,0,0,262.963,154.7Z" transform="translate(-249.856 -145.978)"/><path class="a" d="M144.963,154.7a.564.564,0,0,0-.564.564v10.659a.564.564,0,0,0,1.128,0V155.267A.564.564,0,0,0,144.963,154.7Z" transform="translate(-138.511 -145.978)"/><path class="a" d="M41.6,7.168V21.063a3.112,3.112,0,0,0,.827,2.146,2.777,2.777,0,0,0,2.015.871h10.67a2.776,2.776,0,0,0,2.015-.871,3.112,3.112,0,0,0,.827-2.146V7.168A2.154,2.154,0,0,0,57.4,2.931H54.514v-.7A2.215,2.215,0,0,0,52.28,0H47.273a2.215,2.215,0,0,0-2.233,2.228v.7H42.152A2.154,2.154,0,0,0,41.6,7.168ZM55.112,22.952H44.441a1.786,1.786,0,0,1-1.714-1.889V7.217h14.1V21.063A1.786,1.786,0,0,1,55.112,22.952ZM46.167,2.226a1.086,1.086,0,0,1,1.105-1.1H52.28a1.086,1.086,0,0,1,1.105,1.1v.7H46.167ZM42.152,4.059H57.4a1.015,1.015,0,1,1,0,2.03H42.152a1.015,1.015,0,0,1,0-2.03Z" transform="translate(-39.997 0.001)"/><path class="a" d="M203.963,154.7a.564.564,0,0,0-.564.564v10.659a.564.564,0,0,0,1.128,0V155.267A.564.564,0,0,0,203.963,154.7Z" transform="translate(-194.184 -145.978)"/></g></svg>