<svg xmlns="http://www.w3.org/2000/svg" width="22.933" height="22.933" viewBox="0 0 22.933 22.933"><defs><style>.a{fill:#dd2735;}.b{fill:#fff;}</style></defs><circle class="a" cx="2.128" cy="2.128" r="2.128" transform="translate(9.339)"/><circle class="a" cx="2.128" cy="2.128" r="2.128" transform="translate(15.61)"/><circle class="a" cx="2.128" cy="2.128" r="2.128" transform="translate(3.068)"/><path class="b" d="M132.553,358.531l.5-4.031h-12.1l.5,4.031Z" transform="translate(-115.542 -338.621)"/><path class="a" d="M22.261,197H.672a.672.672,0,0,0-.672.672v1.344a.672.672,0,0,0,.672.672h21.59a.672.672,0,0,0,.672-.672v-1.344A.672.672,0,0,0,22.261,197Z" transform="translate(0 -188.176)"/><path class="a" d="M41.38,295.734H40.8L41.889,287H21.163l1.092,8.734h-.583a.672.672,0,1,0,0,1.344H41.38a.672.672,0,0,0,0-1.344Zm-17.168-6.827a.672.672,0,0,1,.5-.227H38.336a.672.672,0,0,1,.667.755l-.672,5.375a.672.672,0,0,1-.667.589H25.388a.672.672,0,0,1-.667-.589l-.672-5.375A.672.672,0,0,1,24.213,288.907Z" transform="translate(-20.059 -274.145)"/><path class="b" d="M360.078,101.744a5.12,5.12,0,0,1,.489,2.189v.09h4.927v-.09a3.8,3.8,0,0,0-1.3-2.864,3.459,3.459,0,0,1-4.114.674Z" transform="translate(-343.949 -96.543)"/><path class="b" d="M178.615,103.934a3.8,3.8,0,0,0-1.3-2.864,3.463,3.463,0,0,1-5.01,0,3.8,3.8,0,0,0-1.3,2.864v.09h7.615Z" transform="translate(-163.341 -96.543)"/><path class="b" d="M35.927,103.934a5.117,5.117,0,0,1,.49-2.189,3.462,3.462,0,0,1-4.115-.675,3.8,3.8,0,0,0-1.3,2.864v.09h4.927Z" transform="translate(-29.611 -96.543)"/></svg>