<svg id="Group_2159" data-name="Group 2159" xmlns="http://www.w3.org/2000/svg" width="20.765" height="20.765" viewBox="0 0 20.765 20.765">
  <path id="Path_2701" data-name="Path 2701" d="M4.326,0H.865A.865.865,0,0,0,0,.865V4.326a.865.865,0,0,0,.865.865H4.326a.865.865,0,0,0,.865-.865V.865A.865.865,0,0,0,4.326,0Z" fill="#dd2735"/>
  <path id="Path_2702" data-name="Path 2702" d="M4.326,192H.865a.866.866,0,0,0-.865.865v3.461a.865.865,0,0,0,.865.865H4.326a.865.865,0,0,0,.865-.865v-3.461A.866.866,0,0,0,4.326,192Z" transform="translate(0 -184.213)" fill="#fff"/>
  <path id="Path_2703" data-name="Path 2703" d="M4.326,384H.865a.866.866,0,0,0-.865.865v3.461a.866.866,0,0,0,.865.865H4.326a.866.866,0,0,0,.865-.865v-3.461A.866.866,0,0,0,4.326,384Z" transform="translate(0 -368.426)" fill="#dd2735"/>
  <path id="Path_2704" data-name="Path 2704" d="M196.326,0h-3.461A.866.866,0,0,0,192,.865V4.326a.866.866,0,0,0,.865.865h3.461a.865.865,0,0,0,.865-.865V.865A.865.865,0,0,0,196.326,0Z" transform="translate(-184.213 0)" fill="#fff"/>
  <path id="Path_2705" data-name="Path 2705" d="M196.326,192h-3.461a.866.866,0,0,0-.865.865v3.461a.865.865,0,0,0,.865.865h3.461a.865.865,0,0,0,.865-.865v-3.461A.865.865,0,0,0,196.326,192Z" transform="translate(-184.213 -184.213)" fill="#dd2735"/>
  <path id="Path_2706" data-name="Path 2706" d="M196.326,384h-3.461a.866.866,0,0,0-.865.865v3.461a.866.866,0,0,0,.865.865h3.461a.865.865,0,0,0,.865-.865v-3.461A.866.866,0,0,0,196.326,384Z" transform="translate(-184.213 -368.426)" fill="#fff"/>
  <path id="Path_2707" data-name="Path 2707" d="M388.326,0h-3.461A.866.866,0,0,0,384,.865V4.326a.866.866,0,0,0,.865.865h3.461a.866.866,0,0,0,.865-.865V.865A.866.866,0,0,0,388.326,0Z" transform="translate(-368.426 0)" fill="#dd2735"/>
  <path id="Path_2708" data-name="Path 2708" d="M388.326,192h-3.461a.866.866,0,0,0-.865.865v3.461a.866.866,0,0,0,.865.865h3.461a.865.865,0,0,0,.865-.865v-3.461A.866.866,0,0,0,388.326,192Z" transform="translate(-368.426 -184.213)" fill="#fff"/>
  <path id="Path_2709" data-name="Path 2709" d="M388.326,384h-3.461a.866.866,0,0,0-.865.865v3.461a.866.866,0,0,0,.865.865h3.461a.866.866,0,0,0,.865-.865v-3.461A.866.866,0,0,0,388.326,384Z" transform="translate(-368.426 -368.426)" fill="#dd2735"/>
</svg>
