<svg id="SvgjsSvg1001" width="288" height="288" xmlns="http://www.w3.org/2000/svg" version="1.1" xmlns:xlink="http://www.w3.org/1999/xlink" xmlns:svgjs="http://svgjs.com/svgjs"><defs id="SvgjsDefs1002"></defs><g id="SvgjsG1008" transform="matrix(1,0,0,1,0,0)"><svg xmlns="http://www.w3.org/2000/svg" width="288" height="288" viewBox="0 0 32.053 30.162"><defs><linearGradient id="a" x1=".5" x2=".5" y2="1" gradientUnits="objectBoundingBox"><stop offset="0" stop-color="#ff6672" class="stopColorffc545 svgShape"></stop><stop offset="1" stop-color="#e1323f" class="stopColore1aa32 svgShape"></stop></linearGradient></defs><path fill="url(#a)" d="M9.655,7.77a1.885,1.885,0,0,0,0-3.77H5.885A1.885,1.885,0,0,0,4,5.885V32.277a1.885,1.885,0,0,0,1.885,1.885h3.77a1.885,1.885,0,1,0,0-3.77H7.77V7.77ZM35.708,17.988l-5.316-7.541a1.886,1.886,0,1,0-3.073,2.187L30.562,17.2H15.311a1.885,1.885,0,0,0,0,3.77H30.392L27,25.491a1.885,1.885,0,0,0,3.016,2.262l5.655-7.541a1.885,1.885,0,0,0,.038-2.224Z" data-name="log out" transform="translate(-4 -4)"></path></svg></g></svg>