<svg xmlns="http://www.w3.org/2000/svg" width="29.983" height="37" viewBox="0 0 29.983 37"><defs><style>.a{fill:#f9c546;}</style></defs><g transform="translate(-48.547)"><g transform="translate(54.506)"><path class="a" d="M140.033,0a9.033,9.033,0,1,0,9.033,9.033A9.043,9.043,0,0,0,140.033,0Z" transform="translate(-131)"/></g><g transform="translate(59.421 20.234)"><path class="a" d="M203.252,280h-.281a14.276,14.276,0,0,0-3.952.559l4.119,6.37,4.115-6.362A14.427,14.427,0,0,0,203.252,280Z" transform="translate(-199.019 -280)"/></g><g transform="translate(64.623 21.579)"><path class="a" d="M284.2,309.394a14.264,14.264,0,0,0-8.093-10.794L271,306.5v7.519h13.908Z" transform="translate(-271 -298.6)"/></g><g transform="translate(48.547 21.571)"><g transform="translate(0)"><path class="a" d="M57.342,298.5a14.283,14.283,0,0,0-8.092,10.8l-.7,4.628H62.455v-7.523Z" transform="translate(-48.547 -298.5)"/></g></g></g></svg>