<svg xmlns="http://www.w3.org/2000/svg" width="363.207" height="390.169" viewBox="0 0 363.207 390.169"><defs><style>.a,.i{fill:#407bff;}.a,.b,.c,.d,.e,.o,.r,.u,.v,.w,.x{stroke:#000;}.a,.b,.c,.d,.e,.o,.r,.w,.x{stroke-width:0.5px;}.b,.g{fill:#dd2635;}.c,.p{fill:#efefef;}.d,.j,.y{fill:#181b63;}.e,.f{fill:#fff;}.h{fill:#ebebeb;}.k{fill:#263238;}.l{fill:#ff5652;}.m{fill:#ffb573;}.n,.t{opacity:0.2;}.o,.q,.r,.u,.v{fill:#181c63;}.r,.v{opacity:0.1;}.s,.y{opacity:0.3;}.w,.x{fill:#dd2735;}.x{opacity:0.4;}</style></defs><g transform="translate(-988.322 -281.948)"><g transform="translate(884.88 169.262)"><g transform="translate(103.12 162.393)"><path class="a" d="M404.591,361.932H129.262a12.4,12.4,0,0,1-12.138-11.323L103.6,162.741A10.422,10.422,0,0,1,114.1,151.418h275.33a12.4,12.4,0,0,1,12.138,11.323L415.1,350.61A10.424,10.424,0,0,1,404.591,361.932Z" transform="translate(-102.992 -151.418)"/><g transform="translate(1.631)"><path class="b" d="M405.412,361.932H130.083a12.4,12.4,0,0,1-12.138-11.323L104.418,162.741a10.423,10.423,0,0,1,10.506-11.323h275.33a12.4,12.4,0,0,1,12.138,11.323L415.92,350.61A10.423,10.423,0,0,1,405.412,361.932Z" transform="translate(-104.388 -151.418)"/><path class="c" d="M389.458,155.821H114.129q-.467,0-.922.037c-7.039.58-5.6,11.285,1.5,11.285h275.8c7.1,0,7-10.706-.122-11.285Q389.926,155.822,389.458,155.821Z" transform="translate(-103.186 -150.16)"/><path class="d" d="M119.633,160.8a2.384,2.384,0,0,1-2.409,2.6,2.834,2.834,0,0,1-2.782-2.6,2.382,2.382,0,0,1,2.409-2.594A2.833,2.833,0,0,1,119.633,160.8Z" transform="translate(-101.518 -149.479)"/><path class="d" d="M126.5,160.8a2.384,2.384,0,0,1-2.409,2.6,2.834,2.834,0,0,1-2.782-2.6,2.381,2.381,0,0,1,2.408-2.594A2.833,2.833,0,0,1,126.5,160.8Z" transform="translate(-99.557 -149.479)"/><path class="d" d="M133.369,160.8a2.384,2.384,0,0,1-2.409,2.6,2.834,2.834,0,0,1-2.782-2.6,2.381,2.381,0,0,1,2.408-2.594A2.835,2.835,0,0,1,133.369,160.8Z" transform="translate(-97.595 -149.479)"/></g><path class="e" d="M394.834,336.727H131.4a4.483,4.483,0,0,1-4.4-4.105l-11.126-154.5a3.769,3.769,0,0,1,3.809-4.105H383.118a4.484,4.484,0,0,1,4.4,4.105l11.125,154.5A3.768,3.768,0,0,1,394.834,336.727Z" transform="translate(-99.479 -144.963)"/><g transform="translate(127.455 64.916)"><g transform="translate(3.268)"><path class="f" d="M258.311,269.766l-4.288-59.55L241.029,202.4H205.283l4.851,67.371Z" transform="translate(-204.66 -201.773)"/><path class="g" d="M258.45,270.528H210.273a.624.624,0,0,1-.622-.579L204.8,202.578a.623.623,0,0,1,.621-.667h35.746a.623.623,0,0,1,.321.089l12.994,7.822a.625.625,0,0,1,.3.489l4.288,59.549a.623.623,0,0,1-.621.669Zm-47.6-1.246H257.78l-4.217-58.56-12.568-7.566h-34.9Z" transform="translate(-204.799 -201.911)"/><g transform="translate(35.746 0)"><path class="h" d="M246.081,210.217,233.087,202.4l4.77,10.361Z" transform="translate(-232.464 -201.773)"/><path class="g" d="M238,213.518a.622.622,0,0,1-.566-.363l-4.771-10.361a.623.623,0,0,1,.887-.795l12.994,7.822a.623.623,0,0,1-.138,1.129l-8.223,2.54A.643.643,0,0,1,238,213.518Zm-3.359-9.407,3.7,8.029,6.372-1.968Z" transform="translate(-232.603 -201.911)"/></g><g transform="translate(12.181 28.256)"><path class="g" d="M222.18,226.609a2.5,2.5,0,0,1-2.525,2.722,2.971,2.971,0,0,1-2.918-2.722,2.5,2.5,0,0,1,2.526-2.72A2.971,2.971,0,0,1,222.18,226.609Z" transform="translate(-213.572 -223.889)"/><path class="g" d="M235.916,226.609a2.5,2.5,0,0,1-2.526,2.722,2.971,2.971,0,0,1-2.917-2.722,2.5,2.5,0,0,1,2.525-2.72A2.971,2.971,0,0,1,235.916,226.609Z" transform="translate(-209.648 -223.889)"/><path class="g" d="M245.523,241.9a.623.623,0,0,1-.621-.579c-.315-4.375-7.179-7.935-15.3-7.935-5.38,0-10.212,1.6-12.607,4.174a4.8,4.8,0,0,0-1.466,3.672.623.623,0,0,1-1.243.089,6.081,6.081,0,0,1,1.8-4.609c2.624-2.821,7.805-4.573,13.52-4.573,8.908,0,16.175,3.994,16.542,9.093a.623.623,0,0,1-.577.666Z" transform="translate(-214.273 -221.531)"/></g><path class="g" d="M213.305,222.648a.624.624,0,0,1-.456-1.048l2.729-2.942a.623.623,0,0,1,.914.847l-2.729,2.942A.621.621,0,0,1,213.305,222.648Z" transform="translate(-202.547 -197.184)"/><path class="g" d="M238.423,222.648a.621.621,0,0,1-.424-.168l-3.154-2.942a.623.623,0,1,1,.85-.91l3.154,2.942a.623.623,0,0,1-.426,1.079Z" transform="translate(-196.273 -197.184)"/></g></g></g><g transform="translate(340.054 112.996)"><path class="i" d="M345.349,408.786a12.988,12.988,0,0,0,2.843-.387.254.254,0,0,0,.082-.46c-.369-.243-3.64-2.354-4.892-1.787a.868.868,0,0,0-.508.717,1.45,1.45,0,0,0,.423,1.355A3.08,3.08,0,0,0,345.349,408.786Zm2.121-.751c-1.874.374-3.285.31-3.83-.188a.958.958,0,0,1-.261-.908.362.362,0,0,1,.212-.323C344.251,406.319,346.137,407.229,347.47,408.035Z" transform="translate(-271.577 -29.287)"/><path class="i" d="M347.6,408.967a.254.254,0,0,0,.255-.256c0-.131-.014-3.232-1.185-4.268a1.328,1.328,0,0,0-1.08-.341.889.889,0,0,0-.858.711c-.243,1.214,1.715,3.538,2.742,4.12A.257.257,0,0,0,347.6,408.967ZM345.77,404.6a.826.826,0,0,1,.563.224c.7.62.939,2.359,1,3.391-1.023-.818-2.245-2.564-2.1-3.3.024-.121.094-.265.419-.3A.912.912,0,0,1,345.77,404.6Z" transform="translate(-271.046 -29.848)"/><path class="c" d="M350.9,148.067c-1.252,6.39-3.893,19.332.579,23.6,0,0-1.747,6.482-13.62,6.482-13.057,0-6.24-6.482-6.24-6.482,7.126-1.7,6.942-6.989,5.7-11.954Z" transform="translate(-275.293 -102.978)"/><path class="j" d="M329.5,170.043c-2.049.278-.306-5.031.527-5.581,1.923-1.271,26.807-3.073,26.645-.053-.1,1.3-.714,3.836-1.8,4.7S347.387,167.366,329.5,170.043Z" transform="translate(-275.666 -98.782)"/><path class="j" d="M332.727,169.269c-1.628.55-1.473-4.8-.918-5.443,1.282-1.489,21.423-6.663,22.022-3.736.23,1.265.341,3.79-.35,4.77S346.871,164.218,332.727,169.269Z" transform="translate(-274.842 -99.796)"/><path class="k" d="M327.57,139.728a.514.514,0,0,1-.426-.186,4.06,4.06,0,0,0-3.328-1.579.51.51,0,1,1-.111-1.014,5.062,5.062,0,0,1,4.23,1.946.511.511,0,0,1-.365.833Z" transform="translate(-277.176 -106.157)"/><path class="l" d="M325.236,144a23.211,23.211,0,0,1-2.538,5.82,3.737,3.737,0,0,0,3.138.275Z" transform="translate(-277.334 -104.139)"/><path class="k" d="M325.617,143.113c.085.864-.3,1.61-.869,1.665s-1.091-.6-1.176-1.464.3-1.611.869-1.666S325.532,142.248,325.617,143.113Z" transform="translate(-277.088 -104.812)"/><path class="k" d="M324.917,141.752l-2.135-.393S324.007,142.876,324.917,141.752Z" transform="translate(-277.31 -104.894)"/><path class="m" d="M359.093,413.226H348.324l.845-24.939h10.769Z" transform="translate(-270.014 -34.362)"/><path class="j" d="M351.1,406.715h12.1a.853.853,0,0,1,.86.737l1.378,9.572a1.731,1.731,0,0,1-1.727,1.916c-4.218-.073-6.251-.32-11.571-.32-3.273,0-8.056.339-12.576.339-4.421,0-4.761-4.47-2.879-4.874,8.439-1.815,9.772-4.318,12.616-6.707A2.816,2.816,0,0,1,351.1,406.715Z" transform="translate(-273.647 -29.098)"/><g class="n" transform="translate(78.722 353.933)"><path d="M359.848,388.293H349.075l-.43,12.855h10.773Z" transform="translate(-348.645 -388.293)"/></g><path class="c" d="M333.645,190.044a211.3,211.3,0,0,1-19.348-8.683,116.72,116.72,0,0,1-18.52-11.28,42.551,42.551,0,0,1-4.4-3.947c-.359-.386-.717-.743-1.07-1.185a17.019,17.019,0,0,1-1.13-1.454,10.243,10.243,0,0,1-1.72-4.64,10.446,10.446,0,0,1,.631-4.654,14.078,14.078,0,0,1,1.809-3.353,23.985,23.985,0,0,1,4.357-4.525,53.861,53.861,0,0,1,9.389-6c1.594-.847,3.219-1.61,4.865-2.312s3.267-1.377,5.022-1.98l2.282,4.954c-5.607,3.534-11.416,7.418-15.686,11.775a17.624,17.624,0,0,0-2.517,3.2c-.611,1.012-.6,1.77-.5,1.711.053,0,.031-.023.18.125l.513.55c.192.229.464.465.706.7a32.954,32.954,0,0,0,3.471,2.789,82.672,82.672,0,0,0,8.271,5.1c2.9,1.61,5.879,3.15,8.916,4.61,6.059,2.9,12.34,5.694,18.5,8.245Z" transform="translate(-287.413 -106.416)"/><path class="c" d="M313.592,138.637l1.781-3.862-8.094-2.812s-2.521,7.589.485,11.091h0A7.768,7.768,0,0,0,313.592,138.637Z" transform="translate(-282.021 -107.578)"/><path class="c" d="M315.153,128.07l-6.471-1.865-1.623,7.4,8.094,2.811Z" transform="translate(-281.801 -109.222)"/><path class="c" d="M353.688,184.708c1.149-.576,2.519-1.32,3.785-2.016,1.289-.708,2.573-1.448,3.836-2.216,2.519-1.55,5.056-3.083,7.467-4.785a99.056,99.056,0,0,0,13.515-11.125c.537-.491.994-1.036,1.491-1.554l.733-.788.368-.392.184-.2c.048-.051.037-.04.013-.01l-.04.063c-.184.342-.031.239.04-.093a7.019,7.019,0,0,0,.181-1.4,38.59,38.59,0,0,0-.937-8.123c-1.144-5.767-2.877-11.7-4.591-17.508l5-2.191a105.391,105.391,0,0,1,7.858,17.482A40.973,40.973,0,0,1,394.8,160a15.711,15.711,0,0,1-.107,3.228,9.779,9.779,0,0,1-1.572,4.221l-.213.3-.166.216-.2.242-.4.481-.794.964c-.536.634-1.044,1.3-1.614,1.9A91.471,91.471,0,0,1,375.105,184.6c-2.619,1.914-5.3,3.732-8.078,5.387q-2.077,1.257-4.213,2.423c-1.444.8-2.817,1.5-4.457,2.27Z" transform="translate(-268.482 -107.462)"/><path class="c" d="M379.994,136.446l.942-9.025-8.341,1.961s-.122,8.46,4.29,9.808Z" transform="translate(-263.082 -108.875)"/><path class="c" d="M377.165,122.507l-5.435,2.537,1.112,5.741,8.341-1.96Z" transform="translate(-263.328 -110.279)"/><path class="c" d="M354.211,141.42c.392,10.68.786,15.192-4.041,21.169-7.259,8.989-20.464,7.135-24.039-3.213-3.218-9.314-3.32-25.215,6.657-30.462A14.577,14.577,0,0,1,354.211,141.42Z" transform="translate(-276.907 -108.946)"/><g transform="translate(38.503)"><path class="o" d="M349.783,164.267c10.486-4.531,17.382-14.084,14.47-29.022-2.785-14.291-12.433-15.7-16.419-12.738s-13.92-1.454-19.881,3.563c-10.329,8.692-.563,18.063,4.523,23.616C335.515,155.931,339.5,168.713,349.783,164.267Z" transform="translate(-315.637 -110.644)"/><path class="g" d="M341,133.939c3.538,5.123,10.324,6.57,15.158,3.232s5.883-10.2,2.346-15.32-10.325-6.57-15.159-3.232S337.462,128.817,341,133.939Z" transform="translate(-311.208 -111.902)"/><path class="o" d="M342.692,125.86c-1.513-8.611,6.635-15.252,17.531-12.043s5.132,12.868,2.9,20.582,3.629,15.06,6.081,9.186-1.669-7.688-1.669-7.688,11.568,3,.822,16.042-20.478-1.36-17.847-9.858C352.634,135.212,344.123,134,342.692,125.86Z" transform="translate(-310.178 -112.996)"/><path class="j" d="M338.569,126.05c-4.974-2.6-13.4-4.694-18.192,3.372-2.267,3.814-1.389,8.985-1.389,8.985l14.642.975Z" transform="translate(-316.944 -109.931)"/><path class="j" d="M317.684,136.007h-.021a.322.322,0,0,1-.3-.341c.014-.219.368-5.391,3.489-8.636,7.545-7.84,16.392-1.337,18.923.843a.321.321,0,0,1-.419.487c-2.423-2.087-10.885-8.318-18.04-.885-2.957,3.071-3.308,8.178-3.312,8.229A.321.321,0,0,1,317.684,136.007Z" transform="translate(-317.362 -110.061)"/></g><path class="p" d="M333.308,143.722a8.889,8.889,0,0,1-2.128,5.5c-1.777,2.078-3.813,1.056-4.28-1.248-.42-2.074,0-5.654,2.242-6.909C331.355,139.827,333.327,141.343,333.308,143.722Z" transform="translate(-276.175 -105.104)"/><g transform="translate(54.82 136.44)"><path class="q" d="M330.053,219.122s.687,74.752,7.171,116.408c5.238,33.645,14.93,111.449,14.93,111.449H366.84s1.435-75.112-1.224-108.39c-6.728-84.205,10.634-99.948-3.376-119.468Z" transform="translate(-330.053 -219.122)"/><path class="r" d="M330.053,219.122s.687,74.752,7.171,116.408c5.238,33.645,14.93,111.449,14.93,111.449H366.84s1.435-75.112-1.224-108.39c-6.728-84.205,10.634-99.948-3.376-119.468Z" transform="translate(-330.053 -219.122)"/></g><path class="s" d="M337.614,246.915c5.155,22.563,1.041,58.1-1.774,73.744-2.983-23.759-4.487-54.55-5.233-77.113C333.268,239.226,335.788,238.944,337.614,246.915Z" transform="translate(-275.075 -76.562)"/><path class="j" d="M345.705,398.189h18.7l.982-6.562-19.793-.67Z" transform="translate(-270.793 -33.599)"/><path class="i" d="M342.748,393.4a.255.255,0,0,0-.256-.386c-.54.081-5.3.837-5.942,2.2a.821.821,0,0,0,.049.8,1.416,1.416,0,0,0,1.1.733c1.559.161,3.812-2,5.015-3.307A.3.3,0,0,0,342.748,393.4Zm-5.71,1.976c.441-.721,2.9-1.386,4.78-1.732-1.7,1.725-3.19,2.684-4.064,2.594a.916.916,0,0,1-.719-.487.322.322,0,0,1-.026-.324C337.02,395.41,337.029,395.392,337.039,395.375Z" transform="translate(-273.401 -33.013)"/><path class="i" d="M342.6,393.915a.264.264,0,0,0,.023-.051.253.253,0,0,0-.048-.248c-.081-.094-1.988-2.291-3.745-2.405a1.847,1.847,0,0,0-1.4.474c-.528.473-.483.885-.351,1.147.557,1.1,3.976,1.486,5.356,1.2A.263.263,0,0,0,342.6,393.915Zm-5.033-1.619a1.04,1.04,0,0,1,.2-.231,1.33,1.33,0,0,1,1.027-.346c1.155.075,2.467,1.27,3.064,1.878-1.524.129-3.993-.334-4.328-1A.282.282,0,0,1,337.566,392.3Z" transform="translate(-273.251 -33.528)"/><path class="m" d="M354.67,394.763l-9.849,4.375L340.431,390,334.7,378.041l-.672-1.391,9.838-4.382.761,1.565,5.56,11.583Z" transform="translate(-274.099 -38.937)"/><path class="t" d="M350.033,385.07l-9.751,4.585-5.735-11.962,9.927-4.207Z" transform="translate(-273.949 -38.589)"/><g transform="translate(18.868 136.44)"><path class="u" d="M326.49,219.122s-31.463,78.211-22.936,115.041c7.707,33.285,41.788,96.321,41.788,96.321l13.178-6.615s-21.069-76.094-23.355-92.626c-4.447-32.164,24.139-77.566,24.139-112.122Z" transform="translate(-302.089 -219.122)"/><path class="v" d="M326.49,219.122s-31.463,78.211-22.936,115.041c7.707,33.285,41.788,96.321,41.788,96.321l13.178-6.615s-21.069-76.094-23.355-92.626c-4.447-32.164,24.139-77.566,24.139-112.122Z" transform="translate(-302.089 -219.122)"/></g><path class="j" d="M343.107,393.723l9.782-7.12a.853.853,0,0,1,1.127.09l6.747,6.927a1.731,1.731,0,0,1-.269,2.565c-3.453,2.423-5.243,3.42-9.545,6.55-2.646,1.926-7.92,6.185-11.575,8.845-3.574,2.6-6.48-.812-5.2-2.247,5.755-6.433,6.967-10.412,7.86-14.016A2.812,2.812,0,0,1,343.107,393.723Z" transform="translate(-274.142 -34.892)"/><path class="j" d="M335.826,388.962l17.009-7.78-2.183-6.932-18.215,8.308Z" transform="translate(-274.552 -38.371)"/><g transform="translate(36.843 68.326)"><path class="w" d="M317.35,169.26s-5.13,1.806,5.146,65h43.737c-.734-17.8-.755-28.778,7.752-65.308a128.963,128.963,0,0,0-18.572-2.447,139.16,139.16,0,0,0-19.86,0C327.025,167.28,317.35,169.26,317.35,169.26Z" transform="translate(-316.07 -166.141)"/><path class="x" d="M317.35,169.26s-5.13,1.806,5.146,65h43.737c-.734-17.8-.755-28.778,7.752-65.308a128.963,128.963,0,0,0-18.572-2.447,139.16,139.16,0,0,0-19.86,0C327.025,167.28,317.35,169.26,317.35,169.26Z" transform="translate(-316.07 -166.141)"/></g><g transform="translate(29.044 63.407)"><path class="w" d="M332.58,171.372c-1.412-3.652-13.7-7.659-19.867-9.057L310,182.587s10.068,14.471,14.488,13.273C329.714,194.447,335.6,179.2,332.58,171.372Z" transform="translate(-310.004 -162.315)"/><path class="x" d="M332.58,171.372c-1.412-3.652-13.7-7.659-19.867-9.057L310,182.587s10.068,14.471,14.488,13.273C329.714,194.447,335.6,179.2,332.58,171.372Z" transform="translate(-310.004 -162.315)"/></g><g transform="translate(78.832 67.649)"><path class="w" d="M350.148,171.307c1.76-3.5,11.217-5.7,16.387-5.692L370.4,182.8s-10.3,15.286-14.583,13.665C350.761,194.551,346.379,178.8,350.148,171.307Z" transform="translate(-348.73 -165.615)"/><path class="x" d="M350.148,171.307c1.76-3.5,11.217-5.7,16.387-5.692L370.4,182.8s-10.3,15.286-14.583,13.665C350.761,194.551,346.379,178.8,350.148,171.307Z" transform="translate(-348.73 -165.615)"/></g><g transform="translate(41.912 133.545)"><path class="j" d="M365.762,217.2l1.972,3.916c.153.3-.207.613-.712.613H321.155c-.393,0-.72-.194-.746-.441l-.395-3.915c-.027-.273.315-.5.746-.5h44.29A.8.8,0,0,1,365.762,217.2Z" transform="translate(-320.013 -216.87)"/><path class="y" d="M365.762,217.2l1.972,3.916c.153.3-.207.613-.712.613H321.155c-.393,0-.72-.194-.746-.441l-.395-3.915c-.027-.273.315-.5.746-.5h44.29A.8.8,0,0,1,365.762,217.2Z" transform="translate(-320.013 -216.87)"/></g></g></g></g></svg>