<svg xmlns="http://www.w3.org/2000/svg" width="18.253" height="22.846" viewBox="0 0 18.253 22.846"><defs><style>.a{fill:#191d64;}</style></defs><g transform="translate(-6.775 -3.93)"><path class="a" d="M19.3,28.336a.74.74,0,0,0-.725.582,1.431,1.431,0,0,1-.286.622,1.079,1.079,0,0,1-.919.337,1.1,1.1,0,0,1-.919-.337,1.431,1.431,0,0,1-.286-.622.74.74,0,0,0-.725-.582h0a.745.745,0,0,0-.725.908,2.551,2.551,0,0,0,2.655,2.118,2.546,2.546,0,0,0,2.655-2.118.747.747,0,0,0-.725-.908Z" transform="translate(-1.489 -4.586)"/><path class="a" d="M24.8,20.849c-.879-1.159-2.609-1.839-2.609-7.029,0-5.327-2.353-7.469-4.545-7.983-.206-.051-.354-.12-.354-.337V5.335a1.4,1.4,0,0,0-1.37-1.4h-.034a1.4,1.4,0,0,0-1.37,1.4V5.5c0,.211-.148.286-.354.337-2.2.52-4.545,2.655-4.545,7.983,0,5.19-1.73,5.864-2.609,7.029a1.133,1.133,0,0,0,.908,1.816H23.908A1.134,1.134,0,0,0,24.8,20.849Zm-2.227.331H9.256a.25.25,0,0,1-.188-.417,6.918,6.918,0,0,0,1.2-1.907,12.94,12.94,0,0,0,.817-5.036,8.757,8.757,0,0,1,1.193-4.956,3.664,3.664,0,0,1,2.21-1.576,2,2,0,0,0,1.062-.6.452.452,0,0,1,.679-.011,2.069,2.069,0,0,0,1.073.611,3.664,3.664,0,0,1,2.21,1.576A8.757,8.757,0,0,1,20.7,13.82a12.94,12.94,0,0,0,.817,5.036,7,7,0,0,0,1.228,1.936A.236.236,0,0,1,22.571,21.18Z"/></g></svg>