<?xml version="1.0"?>
<svg xmlns="http://www.w3.org/2000/svg" xmlns:xlink="http://www.w3.org/1999/xlink" xmlns:svgjs="http://svgjs.com/svgjs" version="1.1" width="512" height="512" x="0" y="0" viewBox="0 0 24 24" style="enable-background:new 0 0 512 512" xml:space="preserve" class=""><g><g xmlns="http://www.w3.org/2000/svg"><path d="m21.25 23h-18.5c-1.517 0-2.75-1.233-2.75-2.75v-16.5c0-1.517 1.233-2.75 2.75-2.75h18.5c1.517 0 2.75 1.233 2.75 2.75v16.5c0 1.517-1.233 2.75-2.75 2.75zm-18.5-20.5c-.689 0-1.25.561-1.25 1.25v16.5c0 .689.561 1.25 1.25 1.25h18.5c.689 0 1.25-.561 1.25-1.25v-16.5c0-.689-.561-1.25-1.25-1.25z" fill="#4c6072" data-original="#000000" style="" class=""/></g><g xmlns="http://www.w3.org/2000/svg"><path d="m23.25 6h-22.5c-.414 0-.75-.336-.75-.75s.336-.75.75-.75h22.5c.414 0 .75.336.75.75s-.336.75-.75.75z" fill="#4c6072" data-original="#000000" style="" class=""/></g><g xmlns="http://www.w3.org/2000/svg"><path d="m16.25 13h-2c-.414 0-.75-.336-.75-.75s.336-.75.75-.75h1.25v-1.25c0-.414.336-.75.75-.75s.75.336.75.75v2c0 .414-.336.75-.75.75z" fill="#4c6072" data-original="#000000" style="" class=""/></g><g xmlns="http://www.w3.org/2000/svg"><path d="m7.75 18.5c-.414 0-.75-.336-.75-.75v-2c0-.414.336-.75.75-.75h2c.414 0 .75.336.75.75s-.336.75-.75.75h-1.25v1.25c0 .414-.336.75-.75.75z" fill="#4c6072" data-original="#000000" style="" class=""/></g><g xmlns="http://www.w3.org/2000/svg"><path d="m7.94 13.5c-.073 0-.146-.011-.219-.032-.396-.121-.62-.54-.499-.937.644-2.112 2.564-3.531 4.778-3.531 1.85 0 3.537 1.015 4.403 2.648.194.366.055.82-.311 1.015-.365.191-.82.055-1.014-.312-.606-1.142-1.785-1.851-3.078-1.851-1.549 0-2.893.992-3.343 2.469-.098.323-.395.531-.717.531z" fill="#4c6072" data-original="#000000" style="" class=""/></g><g xmlns="http://www.w3.org/2000/svg"><path d="m12 19c-1.85 0-3.537-1.015-4.403-2.648-.194-.366-.055-.82.311-1.015.367-.19.82-.054 1.014.312.606 1.142 1.785 1.851 3.078 1.851 1.541 0 2.885-.993 3.344-2.473.123-.395.543-.617.938-.493.396.122.617.543.494.938-.654 2.11-2.574 3.528-4.776 3.528z" fill="#4c6072" data-original="#000000" style="" class=""/></g></g></svg>
