<svg xmlns="http://www.w3.org/2000/svg" width="21.984" height="21.985" viewBox="0 0 21.984 21.985"><defs><style>.a{fill:#fff;}.b{fill:#dd2735;}</style></defs><g transform="translate(-31 -353)"><circle class="a" cx="6.5" cy="6.5" r="6.5" transform="translate(36 357)"/><path class="b" d="M20.779,8.605l-1.722-.219a8.657,8.657,0,0,0-.521-1.259L19.6,5.758a1.362,1.362,0,0,0-.112-1.813L18.044,2.5a1.365,1.365,0,0,0-1.818-.116L14.858,3.45a8.626,8.626,0,0,0-1.26-.521L13.38,1.209A1.372,1.372,0,0,0,12.019,0H9.967A1.372,1.372,0,0,0,8.605,1.206L8.386,2.929a8.526,8.526,0,0,0-1.26.521L5.758,2.386A1.363,1.363,0,0,0,3.945,2.5L2.5,3.94a1.366,1.366,0,0,0-.116,1.819L3.45,7.128a8.556,8.556,0,0,0-.521,1.259l-1.719.219A1.372,1.372,0,0,0,0,9.967v2.052A1.372,1.372,0,0,0,1.206,13.38l1.722.219a8.657,8.657,0,0,0,.521,1.259L2.386,16.227A1.362,1.362,0,0,0,2.5,18.04l1.443,1.443a1.366,1.366,0,0,0,1.818.115l1.369-1.064a8.457,8.457,0,0,0,1.259.521l.219,1.719a1.372,1.372,0,0,0,1.361,1.211h2.052a1.372,1.372,0,0,0,1.361-1.206l.219-1.722a8.657,8.657,0,0,0,1.259-.521L16.227,19.6a1.362,1.362,0,0,0,1.813-.112l1.443-1.443a1.364,1.364,0,0,0,.116-1.818l-1.064-1.369a8.457,8.457,0,0,0,.521-1.259l1.719-.219a1.372,1.372,0,0,0,1.209-1.361V9.967a1.37,1.37,0,0,0-1.206-1.361Zm-9.786,6.967a4.58,4.58,0,1,1,4.58-4.58,4.585,4.585,0,0,1-4.58,4.58Z" transform="translate(31 353)"/></g></svg>