<svg xmlns="http://www.w3.org/2000/svg" width="20" height="19.686" viewBox="0 0 20 19.686">
  <g id="table_of_winner" data-name="table of winner" transform="translate(0.037 -4.3)">
    <path id="Path_151" d="M20.3,4.839a1.308,1.308,0,0,0-.959-.539h-.09a1.285,1.285,0,0,0-1.228.929L16.857,9.542A2.785,2.785,0,0,1,14.131,11.7H12.424a.669.669,0,0,1-.3-.539V10.052H9.818V11.16a.669.669,0,0,1-.3.539H7.871A2.912,2.912,0,0,1,5.085,9.572L3.946,5.348A1.384,1.384,0,0,0,2.6,4.33a1.2,1.2,0,0,0-1.2,1.2.923.923,0,0,0,.03.3l1.887,7.01a3.474,3.474,0,0,0,1.288,1.887A6.193,6.193,0,0,1,6.912,18.5l.509,2.636a.831.831,0,0,0,.809.659h5.452a.807.807,0,0,0,.809-.659L15,18.5a6.193,6.193,0,0,1,2.307-3.774,3.585,3.585,0,0,0,1.288-1.887l1.887-6.95A1.117,1.117,0,0,0,20.3,4.839Z" transform="translate(-1.007)" fill="#fff"/>
    <path id="Path_152" d="M46.289,4.839A1.308,1.308,0,0,0,45.33,4.3h-.09a.829.829,0,0,0-.27.03.11.11,0,0,1-.03.09l-1.887,6.95a3.474,3.474,0,0,1-1.288,1.887,6.193,6.193,0,0,0-2.307,3.774L38.5,21.794h1.138a.807.807,0,0,0,.809-.659l.509-2.636a6.193,6.193,0,0,1,2.307-3.774,3.585,3.585,0,0,0,1.288-1.887l1.857-6.95A.962.962,0,0,0,46.289,4.839Z" transform="translate(-26.993)" fill="#fff"/>
    <path id="Path_153" d="M29.022,9.558h-.15V8.929a2.185,2.185,0,0,0-.749-1.648,2.42,2.42,0,0,0-3.205,0,2.185,2.185,0,0,0-.749,1.648v.629h-.15a.41.41,0,0,0-.419.419v.479a.41.41,0,0,0,.419.419h.15a2.123,2.123,0,0,0,.749,1.618,2.42,2.42,0,0,0,3.205,0,2.348,2.348,0,0,0,.749-1.618h.15a.41.41,0,0,0,.419-.419h0V9.978A.409.409,0,0,0,29.022,9.558Z" transform="translate(-16.557 -1.664)" fill="#fff"/>
    <path id="Path_155" d="M28.574,6.1H25.788A1.279,1.279,0,0,0,24.5,7.388h0v1.8a1.115,1.115,0,0,1,.6.21.091.091,0,0,0,.12,0,.1.1,0,0,0,.03-.06V7.927a.569.569,0,0,1,.569-.569h.509a.85.85,0,0,1,.389.12l.06.03a.72.72,0,0,0,.9,0l.06-.03a.6.6,0,0,1,.389-.12h.509a.569.569,0,0,1,.569.569h0V9.365a.1.1,0,0,0,.09.09c.03,0,.03,0,.06-.03a.816.816,0,0,1,.6-.21v-1.8A1.449,1.449,0,0,0,28.574,6.1Z" transform="translate(-17.187 -1.261)" fill="#fff"/>
    <path id="SVGCleanerId_0" d="M20.079,22.3a2.886,2.886,0,0,1-2.726,2.007H15.706l-.15.15a1.8,1.8,0,0,1-2.546.15c-.06-.03-.09-.09-.12-.12l-.18-.18H11.093A2.831,2.831,0,0,1,8.367,22.3L6,23.259l.6,2.187a3.474,3.474,0,0,0,1.288,1.887,6.193,6.193,0,0,1,2.307,3.774l.509,2.636a.831.831,0,0,0,.809.659h5.452a.807.807,0,0,0,.809-.659l.509-2.636a6.193,6.193,0,0,1,2.307-3.774,3.585,3.585,0,0,0,1.288-1.887l.6-2.187Z" transform="translate(-4.229 -12.608)" fill="#2d5872"/>
    <g id="Group_87" transform="translate(1.751 9.695)">
      <path id="SVGCleanerId_0_1_" d="M14.109,0a2.886,2.886,0,0,1-2.726,2.007H9.736l-.15.15a1.8,1.8,0,0,1-2.546.15c-.06-.03-.09-.09-.12-.12l-.15-.15H5.152A2.971,2.971,0,0,1,2.367,0L0,.959.6,3.145A3.474,3.474,0,0,0,1.887,5.033,6.193,6.193,0,0,1,4.194,8.807L4.7,11.443a.831.831,0,0,0,.809.659h5.452a.807.807,0,0,0,.809-.659l.509-2.636a6.193,6.193,0,0,1,2.307-3.774,3.585,3.585,0,0,0,1.288-1.887l.6-2.187Z" fill="#dd2735"/>
    </g>
    <path id="Path_157" d="M40.747,34.374l.509-2.636a6.193,6.193,0,0,1,2.307-3.774,3.585,3.585,0,0,0,1.288-1.887l.6-2.187L43.743,23.2l-.389,1.408A3.474,3.474,0,0,1,42.065,26.5a6.193,6.193,0,0,0-2.307,3.774L38.8,35.033h1.138A.8.8,0,0,0,40.747,34.374Z" transform="translate(-27.203 -13.238)" fill="#dd2735"/>
    <path id="Path_158" d="M19.745,55.771c-6.56-2.7-13.121,3.325-19.681.479a.134.134,0,0,1-.09-.18l.539-1.348v-.09c-.18-.569-.33-1.138-.509-1.707a.145.145,0,0,1,.09-.18h.09c6.56,2.7,13.121-3.325,19.681-.479.06.03.12.12.09.18l-.539,1.348v.09c.18.569.33,1.138.509,1.708a.145.145,0,0,1-.09.18Z" transform="translate(0 -33.048)" fill="#fff"/>
    <path id="Path_159" d="M19.535,59.24C13.154,56.814,6.8,62.416.423,59.959c-.15.359-.3.719-.449,1.108a.134.134,0,0,0,.09.18c6.56,2.816,13.121-3.175,19.681-.479a.134.134,0,0,0,.18-.09v-.09C19.8,60.139,19.685,59.69,19.535,59.24Z" transform="translate(0 -38.045)" fill="#fff"/>
    <path id="Path_160" d="M28.841,29h-.869L25.7,32.5,23.419,29H22.4l2.936,4.523a.429.429,0,0,0,.6.12.234.234,0,0,0,.12-.12L28.99,29Z" transform="translate(-15.716 -17.301)" fill="#fff"/>
    <path id="Path_162" d="M30.6,40.5a1.2,1.2,0,1,1-1.2,1.2,1.2,1.2,0,0,1,1.2-1.2Z" transform="translate(-20.619 -25.356)" fill="#fff"/>
  </g>
</svg>
