<svg xmlns="http://www.w3.org/2000/svg" width="95.487" height="81" viewBox="0 0 95.487 81"><defs><style>.a{fill:#181c63;}.b{fill:#dd2735;}</style></defs><g transform="translate(74.319 43.73)"><path class="a" d="M405.878,273.32h-7.384a19.211,19.211,0,0,1,1.164,6.6v27.91a8.232,8.232,0,0,1-.474,2.757h12.209a8.28,8.28,0,0,0,8.27-8.271V287.1A13.8,13.8,0,0,0,405.878,273.32Z" transform="translate(-398.494 -273.32)"/></g><g transform="translate(0 43.731)"><g transform="translate(0 0)"><path class="a" d="M20,279.924a19.208,19.208,0,0,1,1.164-6.6H13.784A13.8,13.8,0,0,0,0,287.105V302.32a8.28,8.28,0,0,0,8.27,8.27H20.479A8.232,8.232,0,0,1,20,307.833Z" transform="translate(0 -273.321)"/></g></g><g transform="translate(25.519 36.549)"><g transform="translate(0 0)"><path class="b" d="M167.5,234.815H150.613A13.8,13.8,0,0,0,136.829,248.6v27.91a2.757,2.757,0,0,0,2.757,2.757h38.937a2.757,2.757,0,0,0,2.757-2.757V248.6A13.8,13.8,0,0,0,167.5,234.815Z" transform="translate(-136.829 -234.815)"/></g></g><g transform="translate(31.167 0)"><path class="a" d="M183.691,38.84a16.574,16.574,0,1,0,16.577,16.577A16.6,16.6,0,0,0,183.691,38.84Z" transform="translate(-167.114 -38.84)"/></g><g transform="translate(6.237 15.451)"><g transform="translate(0 0)"><path class="b" d="M45.841,121.689a12.391,12.391,0,1,0,12.4,12.4A12.411,12.411,0,0,0,45.841,121.689Z" transform="translate(-33.443 -121.689)"/></g></g><g transform="translate(64.455 15.451)"><g transform="translate(0 0)"><path class="b" d="M358,121.689a12.4,12.4,0,1,0,12.4,12.4A12.411,12.411,0,0,0,358,121.689Z" transform="translate(-345.607 -121.689)"/></g></g></svg>