<svg xmlns="http://www.w3.org/2000/svg" width="57.74" height="37" viewBox="0 0 57.74 37"><defs><style>.a{fill:#f9c546;}</style></defs><g transform="translate(-1508.343 -126.832)"><g transform="translate(1522.221 126.832)"><g transform="translate(5.959)"><path class="a" d="M140.033,0a9.033,9.033,0,1,0,9.033,9.033A9.043,9.043,0,0,0,140.033,0Z" transform="translate(-131)"/></g><g transform="translate(10.874 20.234)"><path class="a" d="M203.252,280h-.281a14.275,14.275,0,0,0-3.952.559l4.119,6.37,4.115-6.362A14.427,14.427,0,0,0,203.252,280Z" transform="translate(-199.019 -280)"/></g><g transform="translate(16.076 21.578)"><path class="a" d="M284.2,309.394a14.264,14.264,0,0,0-8.093-10.794L271,306.5v7.519h13.908Z" transform="translate(-271 -298.6)"/></g><g transform="translate(0 21.571)"><g transform="translate(0)"><path class="a" d="M57.342,298.5a14.283,14.283,0,0,0-8.092,10.8l-.7,4.628H62.455v-7.523Z" transform="translate(-48.547 -298.5)"/></g></g></g><g transform="translate(1541.296 133.244)"><g transform="translate(4.926)"><path class="a" d="M138.468,0a7.468,7.468,0,1,0,7.468,7.468A7.476,7.476,0,0,0,138.468,0Z" transform="translate(-131)"/></g><g transform="translate(8.989 16.728)"><path class="a" d="M202.519,280h-.232a11.8,11.8,0,0,0-3.267.462l3.405,5.266,3.4-5.26A11.929,11.929,0,0,0,202.519,280Z" transform="translate(-199.019 -280)"/></g><g transform="translate(13.29 17.839)"><path class="a" d="M281.916,307.523a11.792,11.792,0,0,0-6.691-8.923L271,305.133v6.216h11.5Z" transform="translate(-271 -298.6)"/></g><g transform="translate(0 17.833)"><g transform="translate(0)"><path class="a" d="M55.818,298.5a11.808,11.808,0,0,0-6.689,8.929l-.582,3.826h11.5v-6.219Z" transform="translate(-48.547 -298.5)"/></g></g></g><g transform="translate(1508.343 133.244)"><g transform="translate(4.926)"><path class="a" d="M138.468,0a7.468,7.468,0,1,0,7.468,7.468A7.476,7.476,0,0,0,138.468,0Z" transform="translate(-131)"/></g><g transform="translate(8.989 16.728)"><path class="a" d="M202.519,280h-.232a11.8,11.8,0,0,0-3.267.462l3.405,5.266,3.4-5.26A11.929,11.929,0,0,0,202.519,280Z" transform="translate(-199.019 -280)"/></g><g transform="translate(13.29 17.839)"><path class="a" d="M281.916,307.523a11.792,11.792,0,0,0-6.691-8.923L271,305.133v6.216h11.5Z" transform="translate(-271 -298.6)"/></g><g transform="translate(0 17.833)"><g transform="translate(0)"><path class="a" d="M55.818,298.5a11.808,11.808,0,0,0-6.689,8.929l-.582,3.826h11.5v-6.219Z" transform="translate(-48.547 -298.5)"/></g></g></g></g></svg>