<svg xmlns="http://www.w3.org/2000/svg" width="37.635" height="37" viewBox="0 0 37.635 37"><defs><style>.a{fill:#f9c546;}.b{fill:#fdb62f;}</style></defs><g transform="translate(0 -4.32)"><path class="a" d="M32.918,346.879H21.436A12.757,12.757,0,0,1,8.678,334.121h37A12.757,12.757,0,0,1,32.918,346.879Z" transform="translate(-8.04 -305.559)"/><path class="a" d="M206.747,10.7h-.529l1.676-1.676a2.786,2.786,0,0,0,.262-3.713,2.707,2.707,0,0,0-3.81-.374q-.1.084-.2.178l-1.759,1.759V6.345a1.986,1.986,0,0,0-1.811-2.022,1.914,1.914,0,0,0-2.014,1.808c0,.035,0,.07,0,.105V9.426a1.914,1.914,0,0,0-1.911-1.916c-.035,0-.07,0-.105,0a1.987,1.987,0,0,0-1.811,2.022v3.081a1.914,1.914,0,0,0-1.911-1.916c-.035,0-.07,0-.105,0a1.986,1.986,0,0,0-1.811,2.022v9.46h10.844a1.914,1.914,0,0,0,1.914-1.914h0a1.914,1.914,0,0,0-1.914-1.914h3.081a1.986,1.986,0,0,0,2.022-1.811,1.914,1.914,0,0,0-1.808-2.014c-.035,0-.07,0-.105,0h1.914a1.914,1.914,0,0,0,1.916-1.911c0-.035,0-.07,0-.105A1.986,1.986,0,0,0,206.747,10.7Z" transform="translate(-176.876 0)"/><g transform="translate(2.552 5.319)"><path class="a" d="M151.475,51.193l-.9-.9-2.738,2.738V51.38h-1.276v2.925l-2.552,2.552V54.569h-1.276v3.563l-2.552,2.552V57.759H138.9v4.2l-6.192,6.192.9.9,6.192-6.192h4.2V61.586h-2.925l2.552-2.552H147.2V57.759h-2.287l2.551-2.552h2.925V53.931h-1.65Z" transform="translate(-125.508 -47.911)"/><path class="a" d="M39.634,27.124a3.193,3.193,0,0,1-3.189-3.189v-.319l-.559-.419A2.934,2.934,0,0,1,39.407,18.5l.227.17.226-.17a2.934,2.934,0,0,1,4.108.586c.033.043.064.088.094.133h0a2.934,2.934,0,0,1-.681,3.975l-.558.419v.319A3.193,3.193,0,0,1,39.634,27.124ZM37.652,19.19a1.66,1.66,0,0,0-1,2.986l.813.61a.637.637,0,0,1,.255.51v.638a1.914,1.914,0,1,0,3.827,0V23.3a.637.637,0,0,1,.255-.51l.813-.61a1.659,1.659,0,1,0-1.99-2.654l-.609.457a.637.637,0,0,1-.765,0l-.61-.457A1.64,1.64,0,0,0,37.652,19.19Z" transform="translate(-34.712 -17.914)"/></g><g transform="translate(0 4.323)"><path class="a" d="M468.61,52.851V51.575a1.276,1.276,0,0,0,0-2.552V47.748a2.552,2.552,0,1,1,0,5.1Z" transform="translate(-434.164 -44.559)"/><rect class="a" width="1.276" height="1.276" transform="translate(14.033 0)"/><rect class="a" width="1.276" height="1.276" transform="translate(17.861 20.412)"/><rect class="a" width="1.276" height="1.276" transform="translate(1.276 8.93)"/><rect class="a" width="1.276" height="1.276" transform="translate(0 6.379)"/></g><path class="b" d="M308.832,275.927h-1.276a1.276,1.276,0,1,0-2.552,0h-1.276a2.552,2.552,0,1,1,5.1,0Z" transform="translate(-281.403 -249.278)"/><path class="a" d="M15.695,179.831h-.638a1.914,1.914,0,0,0-3.827,0h-.638a1.914,1.914,0,1,0,0,3.827h5.1a1.914,1.914,0,1,0,0-3.827Z" transform="translate(-8.04 -160.837)"/><rect class="a" width="2.552" height="2.552" transform="translate(3.827 22.821)"/><path class="a" d="M411.691,195.273a3.827,3.827,0,1,0,3.827,3.827A3.827,3.827,0,0,0,411.691,195.273Zm0,5.741A1.914,1.914,0,1,1,413.6,199.1,1.914,1.914,0,0,1,411.691,201.014Z" transform="translate(-377.884 -176.917)"/><path class="a" d="M163.414,334.121c-5.039,6.658-12.446,10.419-18.137,12.461a12.757,12.757,0,0,0,2.717.3h11.482a12.757,12.757,0,0,0,12.758-12.758Z" transform="translate(-134.598 -305.559)"/></g></svg>