<svg xmlns="http://www.w3.org/2000/svg" width="23.3" height="19.765" viewBox="0 0 23.3 19.765"><defs><style>.a{fill:#fff;}.b{fill:#dd2735;}</style></defs><g transform="translate(18.135 10.671)"><path class="a" d="M400.3,273.32h-1.8a4.688,4.688,0,0,1,.284,1.611v6.81a2.009,2.009,0,0,1-.116.673h2.979a2.02,2.02,0,0,0,2.018-2.018v-3.713A3.367,3.367,0,0,0,400.3,273.32Z" transform="translate(-398.494 -273.32)"/></g><g transform="translate(0 10.671)"><g transform="translate(0 0)"><path class="a" d="M4.881,274.932a4.687,4.687,0,0,1,.284-1.611h-1.8A3.367,3.367,0,0,0,0,276.684V280.4a2.02,2.02,0,0,0,2.018,2.018H5a2.009,2.009,0,0,1-.116-.673Z" transform="translate(0 -273.321)"/></g></g><g transform="translate(6.227 8.918)"><g transform="translate(0 0)"><path class="b" d="M144.312,234.815h-4.119a3.367,3.367,0,0,0-3.363,3.363v6.81a.673.673,0,0,0,.673.673H147a.673.673,0,0,0,.673-.673v-6.81A3.367,3.367,0,0,0,144.312,234.815Z" transform="translate(-136.829 -234.815)"/></g></g><g transform="translate(7.605)"><g transform="translate(0 0)"><path class="a" d="M171.159,38.84a4.044,4.044,0,1,0,4.045,4.045A4.05,4.05,0,0,0,171.159,38.84Z" transform="translate(-167.114 -38.84)"/></g></g><g transform="translate(1.522 3.77)"><g transform="translate(0 0)"><path class="b" d="M36.468,121.689a3.024,3.024,0,1,0,3.025,3.025A3.029,3.029,0,0,0,36.468,121.689Z" transform="translate(-33.443 -121.689)"/></g></g><g transform="translate(15.728 3.77)"><g transform="translate(0 0)"><path class="b" d="M348.632,121.689a3.025,3.025,0,1,0,3.025,3.025A3.029,3.029,0,0,0,348.632,121.689Z" transform="translate(-345.607 -121.689)"/></g></g></svg>