<svg id="SvgjsSvg1043" width="288" height="288" xmlns="http://www.w3.org/2000/svg" version="1.1" xmlns:xlink="http://www.w3.org/1999/xlink" xmlns:svgjs="http://svgjs.com/svgjs"><defs id="SvgjsDefs1044"></defs><g id="SvgjsG1045"><svg xmlns="http://www.w3.org/2000/svg" width="288" height="288" viewBox="0 0 23.3 19.765"><path fill="#181c63" d="M400.3,273.32h-1.8a4.688,4.688,0,0,1,.284,1.611v6.81a2.009,2.009,0,0,1-.116.673h2.979a2.02,2.02,0,0,0,2.018-2.018v-3.713A3.367,3.367,0,0,0,400.3,273.32Z" transform="translate(-380.359 -262.649)" class="colorfff svgShape"></path><path fill="#181c63" d="M4.881,274.932a4.687,4.687,0,0,1,.284-1.611h-1.8A3.367,3.367,0,0,0,0,276.684V280.4a2.02,2.02,0,0,0,2.018,2.018H5a2.009,2.009,0,0,1-.116-.673Z" transform="translate(0 -262.65)" class="colorfff svgShape"></path><path fill="#dd2735" d="M144.312,234.815h-4.119a3.367,3.367,0,0,0-3.363,3.363v6.81a.673.673,0,0,0,.673.673H147a.673.673,0,0,0,.673-.673v-6.81A3.367,3.367,0,0,0,144.312,234.815Z" transform="translate(-130.602 -225.897)" class="colordd2735 svgShape"></path><path fill="#181c63" d="M171.159,38.84a4.044,4.044,0,1,0,4.045,4.045A4.05,4.05,0,0,0,171.159,38.84Z" transform="translate(-159.509 -38.84)" class="colorfff svgShape"></path><path fill="#dd2735" d="M36.468,121.689a3.024,3.024,0,1,0,3.025,3.025A3.029,3.029,0,0,0,36.468,121.689Z" transform="translate(-31.921 -117.919)" class="colordd2735 svgShape"></path><path fill="#dd2735" d="M348.632,121.689a3.025,3.025,0,1,0,3.025,3.025A3.029,3.029,0,0,0,348.632,121.689Z" transform="translate(-329.879 -117.919)" class="colordd2735 svgShape"></path></svg></g></svg>