<svg xmlns="http://www.w3.org/2000/svg" width="80.5" height="81.252" viewBox="0 0 80.5 81.252"><defs><style>.a{fill:#dd2735;}.b{fill:#181c63;}.c{fill:#fff;}</style></defs><g transform="translate(-1431 -282)"><g transform="translate(1431 282)"><path class="a" d="M40.024,33.513h.034L56.6,27.877A4,4,0,0,0,56.663,27a2.33,2.33,0,0,0-.135-.844,5.29,5.29,0,0,0-1.485-2.227V16.537c0-5.467-1.957-7.627-3.982-8.876C50.014,4.489,45.661,0,37.122,0,27,0,19.37,10.024,19.37,16.537c0,2.7-.1,4.826-.2,6.446,0,.337-.034.641-.034.911a5.224,5.224,0,0,0-1.485,2.464,3.738,3.738,0,0,0-.067.641,22.317,22.317,0,0,0,1.687,6.885A2.323,2.323,0,0,0,20.483,35.2a2.976,2.976,0,0,1,.067.742c0,3.577,3.071,6.952,4.759,8.572-.169,3.712-1.215,6.277-2.7,6.919L9.38,55.822a11.494,11.494,0,0,0-7.526,8.134L.065,71.111a2.61,2.61,0,0,0,.472,2.16,2.543,2.543,0,0,0,1.991.979H40.362a35.353,35.353,0,0,1-2.835-4.219,28.723,28.723,0,0,1-3.78-14.175V42.322a9.344,9.344,0,0,1,6.277-8.809Z" transform="translate(0.003)"/><path class="b" d="M50.782,16.164,33.063,10.136a2.488,2.488,0,0,0-1.627,0L13.718,16.164A2.524,2.524,0,0,0,12,18.56V32.121c0,16.551,18.475,24.6,19.261,24.931a2.545,2.545,0,0,0,1.978,0c.786-.337,19.261-8.38,19.261-24.931V18.56a2.524,2.524,0,0,0-1.718-2.4Zm-7.442,12.8L34.059,40.774a3.377,3.377,0,0,1-4.85.479L23.3,36.191a3.374,3.374,0,0,1,4.391-5.123l3.233,2.771,7.1-9.042a3.374,3.374,0,0,1,5.309,4.165Z" transform="translate(28 24)"/><path/></g><rect class="b" width="30" height="23" transform="translate(1477 326)"/><g transform="translate(-2 4)"><rect class="c" width="6.339" height="25.358" rx="3.17" transform="translate(1499.205 324) rotate(40)"/><rect class="c" width="6.339" height="25.197" rx="3.17" transform="translate(1482 329.388) rotate(-45)"/></g></g></svg>