<?xml version="1.0" encoding="utf-8"?>
<!-- Generator: Adobe Illustrator 24.2.1, SVG Export Plug-In . SVG Version: 6.00 Build 0)  -->
<svg version="1.1" id="Layer_1" xmlns="http://www.w3.org/2000/svg" xmlns:xlink="http://www.w3.org/1999/xlink" x="0px" y="0px"
	 viewBox="0 0 23 22.5" style="enable-background:new 0 0 23 22.5;" xml:space="preserve">
<style type="text/css">
	.st0{fill:#FCFCFC;}
</style>
<path class="st0" d="M17.5,0H1.3C0.6,0,0,0.6,0,1.3s0.6,1.3,1.3,1.3h16.1c0.7,0,1.3-0.5,1.3-1.2C18.7,0.6,18.2,0,17.5,0z M1.3,10
	C0.6,10,0,10.6,0,11.2s0.6,1.3,1.3,1.3h9.1c0.7,0,1.3-0.6,1.3-1.3S11.1,10,10.4,10H1.3z M1.3,20C0.6,20,0,20.5,0,21.2
	s0.6,1.3,1.3,1.3h20.5c0.7,0,1.3-0.6,1.3-1.3S22.4,20,21.8,20H1.3z"/>
</svg>
