<svg xmlns="http://www.w3.org/2000/svg" width="23.933" height="23.933" viewBox="0 0 23.933 23.933"><defs><style>.a{fill:#dd2735;}.b{fill:#fff;}</style></defs><g transform="translate(0 -0.001)"><path class="a" d="M399.332,358.059H404.6v7.2h-5.267Zm0,0" transform="translate(-380.665 -341.321)"/><path class="a" d="M174.345,5.841a3.447,3.447,0,1,0-4.954,0,4.127,4.127,0,0,0-1.648,3.125h8.251a4.127,4.127,0,0,0-1.648-3.125Zm0,0" transform="translate(-159.901)"/><path class="a" d="M0,272.727H5.266v11.185H0Zm0,0" transform="translate(0 -259.978)"/><path class="b" d="M142.668,221.789v13.566h10.6V221.789Zm6.295,8.3h-1.418v-3.137h-.721v-1.07h2.14v4.207Zm0,0" transform="translate(-135.999 -211.421)"/></g></svg>