<?xml version="1.0" encoding="utf-8"?>
<!-- Generator: Adobe Illustrator 25.0.0, SVG Export Plug-In . SVG Version: 6.00 Build 0)  -->
<svg version="1.1" id="Layer_1" xmlns="http://www.w3.org/2000/svg" xmlns:xlink="http://www.w3.org/1999/xlink" x="0px" y="0px"
	 viewBox="0 0 44 28.3" style="enable-background:new 0 0 44 28.3;" xml:space="preserve">
<style type="text/css">
	.st0{fill:#EE2953;}
	.st1{fill:#F9A7BB;}
</style>
<g id="Cards_colored" transform="translate(0 -91)">
	<g id="Group_318" transform="translate(0 91)">
		<g id="Group_317" transform="translate(0 0)">
			<path id="Path_1036" class="st0" d="M44,3.9C44,1.7,42.3,0,40.1,0c0,0,0,0,0,0H3.9C1.7,0,0,1.7,0,3.9c0,0,0,0,0,0v2.6L11,9
				L0,11.6v12.9c0,2.1,1.7,3.9,3.9,3.9c0,0,0,0,0,0h36.2c2.1,0,3.9-1.7,3.9-3.9c0,0,0,0,0,0V11.6L33,9l11-2.6V3.9z"/>
		</g>
	</g>
	<g id="Group_320" transform="translate(0 97.443)">
		<g id="Group_319" transform="translate(0 0)">
			<path id="Path_1037" class="st1" d="M0,0v5.2h44V0H0z M37.5,9H27.2c-0.7,0-1.3,0.6-1.3,1.3c0,0,0,0,0,0v5.2
				c0,0.7,0.6,1.3,1.3,1.3c0,0,0,0,0,0h10.3c0.7,0,1.3-0.6,1.3-1.3c0,0,0,0,0,0v-5.2C38.8,9.6,38.3,9,37.5,9C37.5,9,37.5,9,37.5,9z
				 M16.7,9H6.4c-0.7,0-1.3,0.6-1.3,1.3c0,0.7,0.6,1.2,1.3,1.3h10.3c0.7,0,1.3-0.5,1.3-1.3C18.1,9.6,17.5,9,16.7,9
				C16.8,9,16.8,9,16.7,9L16.7,9z M11.6,14.2H6.4c-0.7,0-1.3,0.6-1.3,1.3c0,0.7,0.6,1.2,1.3,1.3h5.2c0.7,0,1.3-0.5,1.3-1.3
				C12.9,14.8,12.4,14.2,11.6,14.2C11.6,14.2,11.6,14.2,11.6,14.2z"/>
		</g>
	</g>
</g>
</svg>
