<?xml version="1.0" encoding="UTF-8"?>
<svg xmlns="http://www.w3.org/2000/svg" xmlns:xlink="http://www.w3.org/1999/xlink" width="16pt" height="16pt" viewBox="0 0 16 16" version="1.1">
<g id="surface1">
<path style=" stroke:none;fill-rule:nonzero;fill:rgb(53.333333%,53.333333%,53.333333%);fill-opacity:1;" d="M 15.816406 7.558594 L 12.550781 4.308594 C 12.304688 4.0625 11.910156 4.0625 11.667969 4.308594 C 11.421875 4.554688 11.425781 4.949219 11.667969 5.191406 L 13.859375 7.375 L 0.625 7.375 C 0.28125 7.375 0 7.65625 0 8 C 0 8.34375 0.28125 8.625 0.625 8.625 L 13.859375 8.625 L 11.667969 10.808594 C 11.425781 11.050781 11.421875 11.445312 11.667969 11.691406 C 11.910156 11.9375 12.304688 11.9375 12.550781 11.691406 L 15.816406 8.441406 C 16.0625 8.199219 16.0625 7.800781 15.816406 7.558594 Z M 15.816406 7.558594 "/>
</g>
</svg>
