<svg xmlns="http://www.w3.org/2000/svg" width="412.004" height="277.876" viewBox="0 0 412.004 277.876">
  <g id="manage_delivery_partners_black" data-name="manage delivery partners black" transform="translate(0 -67.064)">
    <g id="Group_341" data-name="Group 341">
      <g id="Group_340" data-name="Group 340">
        <path id="Path_1033" data-name="Path 1033" d="M0,283.525c0,4.224,2.96,7.539,7.184,7.539h11.47c7.707-17,25.254-29.864,45.628-29.864s37.918,12.864,45.629,29.864H259v-61H0Z"/>
        <path id="Path_1034" data-name="Path 1034" d="M64.282,277.32a33.81,33.81,0,1,0,33.81,33.81A33.81,33.81,0,0,0,64.282,277.32Z"/>
        <path id="Path_1035" data-name="Path 1035" d="M407.6,205.217l-32.2-14.153H275v100h19.488c7.712-17,25.254-29.864,45.628-29.864s37.921,12.864,45.628,29.864h19.072c4.224,0,7.184-3.315,7.184-7.539V212.491A7.774,7.774,0,0,0,407.6,205.217Z"/>
        <path id="Path_1036" data-name="Path 1036" d="M342.3,133.408a22.967,22.967,0,0,0-20.73-12.344H275v54h88.915Z"/>
        <path id="Path_1037" data-name="Path 1037" d="M236.036,67.064H22.844C9.985,67.064,0,77.65,0,90.509V214.064H259V90.509c0-.036,0-.072,0-.108A23.152,23.152,0,0,0,236.036,67.064Z"/>
        <path id="Path_1038" data-name="Path 1038" d="M340.114,277.32a33.81,33.81,0,1,0,33.811,33.81h0A33.811,33.811,0,0,0,340.114,277.32Z"/>
      </g>
    </g>
  </g>
</svg>
