<?xml version="1.0" encoding="utf-8"?>
<!-- Generator: Adobe Illustrator 25.1.0, SVG Export Plug-In . SVG Version: 6.00 Build 0)  -->
<svg version="1.1" id="Layer_1" xmlns="http://www.w3.org/2000/svg" xmlns:xlink="http://www.w3.org/1999/xlink" x="0px" y="0px"
	 viewBox="0 0 14 20" style="enable-background:new 0 0 14 20;" xml:space="preserve">
<style type="text/css">
	.st0{fill:#4C6072;}
	.st1{fill:#FDFEFF;}
</style>
<g>
	<path class="st0" d="M7,9.5c-0.7,0-1.3-0.3-1.8-0.7C4.8,8.3,4.5,7.7,4.5,7s0.3-1.3,0.7-1.8C5.7,4.8,6.3,4.5,7,4.5s1.3,0.3,1.8,0.7
		C9.2,5.7,9.5,6.3,9.5,7c0,0.3-0.1,0.7-0.2,1C9.2,8.3,9,8.5,8.8,8.8C8.5,9,8.3,9.2,8,9.3C7.7,9.4,7.3,9.5,7,9.5z M7,0
		C5.1,0,3.4,0.7,2.1,2.1C0.7,3.4,0,5.1,0,7c0,5.2,7,13,7,13s7-7.8,7-13c0-1.9-0.7-3.6-2.1-4.9C10.6,0.7,8.9,0,7,0z"/>
	<circle class="st1" cx="7" cy="7.1" r="2.8"/>
</g>
</svg>
