<svg width="34" height="21" viewBox="0 0 34 21" fill="none" xmlns="http://www.w3.org/2000/svg">
<path d="M17.3395 0.09375C16.1365 0.09375 14.9827 0.599767 14.1321 1.50048C13.2814 2.4012 12.8035 3.62283 12.8035 4.89663C12.8035 6.17044 13.2814 7.39207 14.1321 8.29279C14.9827 9.1935 16.1365 9.69952 17.3395 9.69952C18.5426 9.69952 19.6963 9.1935 20.547 8.29279C21.3977 7.39207 21.8756 6.17044 21.8756 4.89663C21.8756 3.62283 21.3977 2.4012 20.547 1.50048C19.6963 0.599767 18.5426 0.09375 17.3395 0.09375ZM8.26743 3.56784C7.2649 3.56784 6.30343 3.98952 5.59453 4.74011C4.88564 5.49071 4.48738 6.50874 4.48738 7.57024C4.48738 8.09584 4.58516 8.6163 4.77512 9.10189C4.96509 9.58749 5.24352 10.0287 5.59453 10.4004C5.94554 10.772 6.36225 11.0668 6.82087 11.268C7.27949 11.4691 7.77103 11.5726 8.26743 11.5726C9.59801 11.5726 10.7623 10.8362 11.4276 9.74755C10.4145 8.38673 9.77945 6.73774 9.77945 4.89663C9.77945 4.57644 9.77945 4.25625 9.83993 3.93606C9.35608 3.69591 8.82688 3.56784 8.26743 3.56784ZM26.4117 3.56784C25.8522 3.56784 25.323 3.69591 24.8392 3.93606C24.8996 4.25625 24.8996 4.57644 24.8996 4.89663C24.8996 6.73774 24.2646 8.38673 23.2515 9.74755C23.9168 10.8362 25.0811 11.5726 26.4117 11.5726C26.9081 11.5726 27.3996 11.4691 27.8582 11.268C28.3168 11.0668 28.7335 10.772 29.0846 10.4004C29.4356 10.0287 29.714 9.58749 29.904 9.10189C30.0939 8.6163 30.1917 8.09584 30.1917 7.57024C30.1917 7.04464 30.0939 6.52418 29.904 6.03859C29.714 5.55299 29.4356 5.11177 29.0846 4.74011C28.7335 4.36846 28.3168 4.07364 27.8582 3.8725C27.3996 3.67136 26.9081 3.56784 26.4117 3.56784ZM17.3395 12.9014C14.3155 12.9014 8.26743 14.5024 8.26743 17.7043V20.9062H26.4117V17.7043C26.4117 14.5024 20.3636 12.9014 17.3395 12.9014ZM6.25645 14.4544C3.73137 14.9187 0.707336 16.1674 0.707336 18.2326V20.9062H5.24339V17.7043C5.24339 16.4556 5.68188 15.3509 6.25645 14.4544ZM28.4226 14.4544C28.9972 15.3509 29.4357 16.4556 29.4357 17.7043V20.9062H33.9718V18.2326C33.9718 16.1674 30.9477 14.9187 28.4226 14.4544Z" fill="#EE2953"/>
</svg>
