<svg width="22" height="16" viewBox="0 0 22 16" fill="none" xmlns="http://www.w3.org/2000/svg">
<path d="M15 9.14286C14.71 9.14286 14.38 9.14286 14.03 9.2C15.19 10.16 16 11.4286 16 13.1429V16H22V13.1429C22 10.48 17.33 9.14286 15 9.14286ZM7 9.14286C4.67 9.14286 0 10.48 0 13.1429V16H14V13.1429C14 10.48 9.33 9.14286 7 9.14286ZM7 6.85714C7.79565 6.85714 8.55871 6.49592 9.12132 5.85294C9.68393 5.20996 10 4.33789 10 3.42857C10 2.51926 9.68393 1.64719 9.12132 1.00421C8.55871 0.361224 7.79565 0 7 0C6.20435 0 5.44129 0.361224 4.87868 1.00421C4.31607 1.64719 4 2.51926 4 3.42857C4 4.33789 4.31607 5.20996 4.87868 5.85294C5.44129 6.49592 6.20435 6.85714 7 6.85714ZM15 6.85714C15.7956 6.85714 16.5587 6.49592 17.1213 5.85294C17.6839 5.20996 18 4.33789 18 3.42857C18 2.51926 17.6839 1.64719 17.1213 1.00421C16.5587 0.361224 15.7956 0 15 0C14.2044 0 13.4413 0.361224 12.8787 1.00421C12.3161 1.64719 12 2.51926 12 3.42857C12 4.33789 12.3161 5.20996 12.8787 5.85294C13.4413 6.49592 14.2044 6.85714 15 6.85714Z" fill="#EE2953"/>
</svg>
