<svg width="34" height="21" viewBox="0 0 34 21" fill="none" xmlns="http://www.w3.org/2000/svg">
<path d="M17.3395 0.09375C16.1364 0.09375 14.9827 0.599767 14.132 1.50048C13.2813 2.4012 12.8034 3.62283 12.8034 4.89663C12.8034 6.17044 13.2813 7.39207 14.132 8.29279C14.9827 9.1935 16.1364 9.69952 17.3395 9.69952C18.5425 9.69952 19.6963 9.1935 20.547 8.29279C21.3976 7.39207 21.8755 6.17044 21.8755 4.89663C21.8755 3.62283 21.3976 2.4012 20.547 1.50048C19.6963 0.599767 18.5425 0.09375 17.3395 0.09375ZM8.26737 3.56784C7.26484 3.56784 6.30337 3.98952 5.59447 4.74011C4.88558 5.49071 4.48732 6.50874 4.48732 7.57024C4.48732 8.09584 4.5851 8.6163 4.77506 9.10189C4.96503 9.58749 5.24346 10.0287 5.59447 10.4004C5.94548 10.772 6.36219 11.0668 6.82081 11.268C7.27943 11.4691 7.77097 11.5726 8.26737 11.5726C9.59795 11.5726 10.7622 10.8362 11.4275 9.74755C10.4144 8.38673 9.77939 6.73774 9.77939 4.89663C9.77939 4.57644 9.77939 4.25625 9.83987 3.93606C9.35602 3.69591 8.82682 3.56784 8.26737 3.56784ZM26.4116 3.56784C25.8522 3.56784 25.3229 3.69591 24.8391 3.93606C24.8996 4.25625 24.8996 4.57644 24.8996 4.89663C24.8996 6.73774 24.2645 8.38673 23.2515 9.74755C23.9168 10.8362 25.081 11.5726 26.4116 11.5726C26.908 11.5726 27.3995 11.4691 27.8582 11.268C28.3168 11.0668 28.7335 10.772 29.0845 10.4004C29.4355 10.0287 29.7139 9.58749 29.9039 9.10189C30.0939 8.6163 30.1916 8.09584 30.1916 7.57024C30.1916 7.04464 30.0939 6.52418 29.9039 6.03859C29.7139 5.55299 29.4355 5.11177 29.0845 4.74011C28.7335 4.36846 28.3168 4.07364 27.8582 3.8725C27.3995 3.67136 26.908 3.56784 26.4116 3.56784ZM17.3395 12.9014C14.3154 12.9014 8.26737 14.5024 8.26737 17.7043V20.9062H26.4116V17.7043C26.4116 14.5024 20.3635 12.9014 17.3395 12.9014ZM6.25639 14.4544C3.73131 14.9187 0.707275 16.1674 0.707275 18.2326V20.9062H5.24333V17.7043C5.24333 16.4556 5.68182 15.3509 6.25639 14.4544ZM28.4226 14.4544C28.9972 15.3509 29.4356 16.4556 29.4356 17.7043V20.9062H33.9717V18.2326C33.9717 16.1674 30.9477 14.9187 28.4226 14.4544Z" fill="#EE2953"/>
</svg>
