<?xml version="1.0" encoding="utf-8"?>
<!-- Generator: Adobe Illustrator 25.0.0, SVG Export Plug-In . SVG Version: 6.00 Build 0)  -->
<svg version="1.1" id="Layer_1" xmlns="http://www.w3.org/2000/svg" xmlns:xlink="http://www.w3.org/1999/xlink" x="0px" y="0px"
	 viewBox="0 0 31.9 31.9" style="enable-background:new 0 0 31.9 31.9;" xml:space="preserve">
<style type="text/css">
	.st0{fill:#EE2953;}
	.st1{fill:#F9A7BB;}
</style>
<g id="settings_colored" transform="translate(0 0)">
	<path id="Path_1038" class="st0" d="M17.8,31.9h-3.7c-0.5,0-0.8-0.3-0.9-0.8l-0.6-3.5c-0.9-0.3-1.7-0.6-2.5-1l-2.8,2
		c-0.4,0.3-0.9,0.2-1.2-0.1l-2.6-2.6c-0.3-0.3-0.4-0.8-0.1-1.2l2-2.8c-0.4-0.8-0.8-1.6-1-2.5l-3.5-0.6C0.3,18.7,0,18.3,0,17.8v-3.7
		c0-0.5,0.3-0.8,0.8-0.9l3.5-0.6c0.3-0.9,0.6-1.7,1-2.5l-2-2.8C3,6.9,3.1,6.4,3.4,6L6,3.4C6.4,3.1,6.9,3,7.2,3.3l2.8,2
		c0.8-0.4,1.6-0.8,2.5-1l0.6-3.5C13.2,0.3,13.6,0,14.1,0h3.7c0.5,0,0.8,0.3,0.9,0.8l0.6,3.5c0.9,0.3,1.7,0.6,2.5,1l2.8-2
		C25,3,25.6,3.1,25.9,3.4L28.5,6c0.3,0.3,0.4,0.8,0.1,1.2l-2,2.8c0.4,0.8,0.8,1.6,1,2.5l3.5,0.6c0.5,0.1,0.8,0.5,0.8,0.9v3.7
		c0,0.5-0.3,0.8-0.8,0.9l-3.5,0.6c-0.3,0.9-0.6,1.7-1,2.5l2,2.8c0.3,0.4,0.2,0.9-0.1,1.2l-2.6,2.6c-0.3,0.3-0.8,0.4-1.2,0.1l-2.9-2
		c-0.8,0.4-1.6,0.8-2.5,1l-0.6,3.5C18.7,31.6,18.3,31.9,17.8,31.9L17.8,31.9z M31,17.8L31,17.8z"/>
	<path id="Path_1039" class="st1" d="M16,22.5c-3.6,0-6.5-2.9-6.5-6.5s2.9-6.5,6.5-6.5c3.6,0,6.5,2.9,6.5,6.5l0,0
		C22.5,19.6,19.6,22.5,16,22.5z"/>
</g>
</svg>
