<svg width="18" height="18" viewBox="0 0 18 18" fill="none" xmlns="http://www.w3.org/2000/svg">
<path d="M15.364 2.63602C13.6641 0.936141 11.404 0 9 0C6.59602 0 4.33589 0.936141 2.63602 2.63602C0.936141 4.33589 0 6.59602 0 9C0 11.404 0.936176 13.6641 2.63602 15.364C4.33586 17.0639 6.59602 18 9 18C11.404 18 13.6641 17.0639 15.364 15.364C17.0639 13.6641 18 11.404 18 9C18 6.59602 17.0638 4.33593 15.364 2.63602ZM9 8.4375C10.3957 8.4375 11.5312 9.57301 11.5312 10.9688C11.5312 12.1246 10.7523 13.1013 9.69195 13.4031C9.61576 13.4248 9.5625 13.4933 9.5625 13.5725V14.0466C9.5625 14.3495 9.32973 14.6101 9.02718 14.6244C8.70413 14.6396 8.4375 14.3822 8.4375 14.0625V13.5724C8.4375 13.4934 8.38455 13.4248 8.30858 13.4032C7.25277 13.103 6.47582 12.1336 6.46879 10.9845C6.46692 10.6777 6.70809 10.4153 7.01473 10.4065C7.33293 10.3974 7.59375 10.6526 7.59375 10.9688C7.59375 11.7774 8.27989 12.4289 9.10051 12.3715C9.79323 12.3231 10.3544 11.7619 10.4027 11.0692C10.46 10.2485 9.80863 9.5625 9 9.5625C7.60426 9.5625 6.46875 8.42699 6.46875 7.03125C6.46875 5.87542 7.24771 4.89871 8.30805 4.59693C8.38424 4.57523 8.4375 4.50671 8.4375 4.42751V3.95339C8.4375 3.65048 8.67027 3.38987 8.97282 3.37563C9.29588 3.36045 9.5625 3.61782 9.5625 3.9375V4.42761C9.5625 4.50661 9.61545 4.57516 9.69142 4.59679C10.7472 4.89702 11.5242 5.86638 11.5312 7.01553C11.5331 7.32227 11.2919 7.58471 10.9853 7.5935C10.6671 7.60264 10.4062 7.34741 10.4062 7.03125C10.4062 6.22259 9.72011 5.57114 8.89949 5.62852C8.20677 5.67693 7.64564 6.23809 7.59727 6.93081C7.53996 7.75146 8.19137 8.4375 9 8.4375Z" fill="#EE2953"/>
</svg>
